<svg xmlns="http://www.w3.org/2000/svg" xmlns:xlink="http://www.w3.org/1999/xlink" viewBox="0 0 552.83 553.07"><defs><style>.cls-1{fill:none;}.cls-2{isolation:isolate;}.cls-3{clip-path:url(#clip-path);}.cls-4{fill:#140563;}.cls-134,.cls-5{mix-blend-mode:screen;}.cls-6{clip-path:url(#clip-path-2);}.cls-7{fill:#256e7c;}.cls-8{fill:#3cb3ca;}.cls-9{clip-path:url(#clip-path-3);}.cls-10{clip-path:url(#clip-path-4);}.cls-11{fill:#0b0337;}.cls-12{fill:#0b0335;}.cls-13{clip-path:url(#clip-path-5);}.cls-14{fill:#0a0333;}.cls-15{fill:#13055d;}.cls-16{fill:#1f5e77;}.cls-17{clip-path:url(#clip-path-6);}.cls-18{fill:#1e5a72;}.cls-19{fill:#36a3ce;}.cls-20{fill:#0d2e41;}.cls-21{clip-path:url(#clip-path-7);}.cls-22{fill:#0c2c3e;}.cls-23{fill:#164f70;}.cls-24{clip-path:url(#clip-path-8);}.cls-25{fill:#0c2a3c;}.cls-26{clip-path:url(#clip-path-9);}.cls-27{fill:#0d2f43;}.cls-28{clip-path:url(#clip-path-10);}.cls-29{fill:#0d2d41;}.cls-30{clip-path:url(#clip-path-11);}.cls-31{fill:#164d6e;}.cls-32{clip-path:url(#clip-path-12);}.cls-33{fill:#437f8f;}.cls-34{clip-path:url(#clip-path-13);}.cls-35{fill:#3c7280;}.cls-36{fill:#6ac8e1;}.cls-37{clip-path:url(#clip-path-14);}.cls-38{fill:#4d91a2;}.cls-39{fill:#63bbd2;}.cls-40{clip-path:url(#clip-path-15);}.cls-41{fill:#0d033f;}.cls-42{clip-path:url(#clip-path-16);}.cls-43{fill:#110455;}.cls-44{clip-path:url(#clip-path-17);}.cls-45{fill:#4a8c9d;}.cls-46{clip-path:url(#clip-path-18);}.cls-47{fill:#3f7685;}.cls-48{clip-path:url(#clip-path-19);}.cls-49{fill:#1a5e77;}.cls-50{clip-path:url(#clip-path-20);}.cls-51{fill:#18576f;}.cls-52{fill:#2b99c2;}.cls-53{clip-path:url(#clip-path-21);}.cls-54{clip-path:url(#clip-path-22);}.cls-55{clip-path:url(#clip-path-23);}.cls-56{clip-path:url(#clip-path-24);}.cls-57{fill:#12055a;}.cls-58{clip-path:url(#clip-path-25);}.cls-59{clip-path:url(#clip-path-26);}.cls-60{clip-path:url(#clip-path-27);}.cls-61{fill:#8f8f8f;}.cls-62{clip-path:url(#clip-path-28);}.cls-63{fill:#858585;}.cls-64{fill:#e9e9e9;}.cls-65{clip-path:url(#clip-path-29);}.cls-66{clip-path:url(#clip-path-30);}.cls-67{fill:#67c2da;}.cls-68{clip-path:url(#clip-path-31);}.cls-69{clip-path:url(#clip-path-32);}.cls-70{clip-path:url(#clip-path-33);}.cls-71{clip-path:url(#clip-path-34);}.cls-72{fill:#359fc9;}.cls-73{clip-path:url(#clip-path-35);}.cls-74{clip-path:url(#clip-path-36);}.cls-75{clip-path:url(#clip-path-37);}.cls-76{fill:#226673;}.cls-77{fill:#226571;}.cls-78{clip-path:url(#clip-path-38);}.cls-79{fill:#267280;}.cls-80{clip-path:url(#clip-path-39);}.cls-81{clip-path:url(#clip-path-40);}.cls-82{fill:#151515;}.cls-83{clip-path:url(#clip-path-41);}.cls-84{fill:#181818;}.cls-85{fill:#252525;}.cls-86{clip-path:url(#clip-path-42);}.cls-87{clip-path:url(#clip-path-43);}.cls-88{clip-path:url(#clip-path-44);}.cls-89{fill:#8a8a8a;}.cls-90{clip-path:url(#clip-path-45);}.cls-91{clip-path:url(#clip-path-46);}.cls-92{clip-path:url(#clip-path-47);}.cls-93{clip-path:url(#clip-path-48);}.cls-94{fill:gray;}.cls-95{clip-path:url(#clip-path-49);}.cls-96{fill:#efefef;}.cls-97{clip-path:url(#clip-path-50);}.cls-98{clip-path:url(#clip-path-51);}.cls-99{clip-path:url(#clip-path-52);}.cls-100{clip-path:url(#clip-path-53);}.cls-101{clip-path:url(#clip-path-54);}.cls-102{clip-path:url(#clip-path-55);}.cls-103{clip-path:url(#clip-path-56);}.cls-104{clip-path:url(#clip-path-57);}.cls-105{clip-path:url(#clip-path-58);}.cls-106{fill:#0e0343;}.cls-107{fill:#0e0345;}.cls-108{clip-path:url(#clip-path-59);}.cls-109{clip-path:url(#clip-path-60);}.cls-110{fill:#1b1b1b;}.cls-111{clip-path:url(#clip-path-61);}.cls-112{fill:#222;}.cls-113{clip-path:url(#clip-path-62);}.cls-114{clip-path:url(#clip-path-63);}.cls-115{clip-path:url(#clip-path-64);}.cls-116{fill:#20617b;}.cls-117{clip-path:url(#clip-path-65);}.cls-118{clip-path:url(#clip-path-66);}.cls-119{fill:#0e3146;}.cls-120{clip-path:url(#clip-path-67);}.cls-121{clip-path:url(#clip-path-68);}.cls-122{clip-path:url(#clip-path-69);}.cls-123{clip-path:url(#clip-path-70);}.cls-124{clip-path:url(#clip-path-71);}.cls-125{clip-path:url(#clip-path-72);}.cls-126{clip-path:url(#clip-path-73);}.cls-127{clip-path:url(#clip-path-74);}.cls-128{clip-path:url(#clip-path-75);}.cls-129{clip-path:url(#clip-path-76);}.cls-130{clip-path:url(#clip-path-77);}.cls-131{fill:#e2e2e2;}.cls-132{clip-path:url(#clip-path-78);}.cls-133{clip-path:url(#clip-path-79);}.cls-134{fill:#002d6a;}.cls-135{clip-path:url(#clip-path-80);}.cls-136{clip-path:url(#clip-path-81);}.cls-137{clip-path:url(#clip-path-82);}.cls-138{fill:#1b617c;}.cls-139{clip-path:url(#clip-path-83);}.cls-140{clip-path:url(#clip-path-84);}.cls-141{fill:#161616;}.cls-142{fill:#171717;}.cls-143{clip-path:url(#clip-path-85);}.cls-144{fill:#949494;}.cls-145{clip-path:url(#clip-path-86);}.cls-146{clip-path:url(#clip-path-87);}.cls-147{clip-path:url(#clip-path-88);}.cls-148{clip-path:url(#clip-path-89);}</style><clipPath id="clip-path"><rect class="cls-1" width="552.83" height="553.07"/></clipPath><clipPath id="clip-path-2"><path class="cls-1" d="M544.57,349.76l.32,4.8Q469.19,412.33,399,477.92l-.32-4.81Q468.87,407.53,544.57,349.76Z"/></clipPath><clipPath id="clip-path-3"><path class="cls-1" d="M556.89,476.9l.32,4.8q-75.71,57.77-145.87,123.36l-.32-4.81A1909,1909,0,0,1,556.89,476.9Z"/></clipPath><clipPath id="clip-path-4"><path class="cls-1" d="M424.21,450.17l.91-6.52q3.3-23.81,7-48.29l-.9,6.52Q427.52,426.38,424.21,450.17Z"/></clipPath><clipPath id="clip-path-5"><path class="cls-1" d="M393.31,533.63l-.9,6.52a1927,1927,0,0,0-294.16-132l.9-6.52A1926.59,1926.59,0,0,1,393.31,533.63Z"/></clipPath><clipPath id="clip-path-6"><path class="cls-1" d="M433.8,370.59l-.91,6.52a1186.35,1186.35,0,0,0-188.51-53.18l.9-6.52A1186.47,1186.47,0,0,1,433.8,370.59Z"/></clipPath><clipPath id="clip-path-7"><path class="cls-1" d="M423.24,293.48l-.91,6.52a832.32,832.32,0,0,0-132.28-37.32l.9-6.52A832.43,832.43,0,0,1,423.24,293.48Z"/></clipPath><clipPath id="clip-path-8"><path class="cls-1" d="M236.2,274.48l-.91,6.52a694,694,0,0,0-71.35-107.9l.91-6.52A694,694,0,0,1,236.2,274.48Z"/></clipPath><clipPath id="clip-path-9"><path class="cls-1" d="M286.1,234.91l-.91,6.52Q262.68,263.92,242.86,285l.9-6.52Q263.58,257.4,286.1,234.91Z"/></clipPath><clipPath id="clip-path-10"><path class="cls-1" d="M327.38,344.11l.32,4.8c-5.67,3.7-8.48,5.53-14.12,9.16l-.32-4.8C318.9,349.64,321.72,347.81,327.38,344.11Z"/></clipPath><clipPath id="clip-path-11"><path class="cls-1" d="M313.26,353.27l.32,4.8q-84-34.57-173-62l-.32-4.81Q229.28,318.7,313.26,353.27Z"/></clipPath><clipPath id="clip-path-12"><path class="cls-1" d="M404.34,247.9l.31,4.81q-20.08,23.94-39.42,46.86l-.32-4.81Q384.25,271.84,404.34,247.9Z"/></clipPath><clipPath id="clip-path-13"><path class="cls-1" d="M364.91,294.76l.32,4.81q-54.64-10.11-110.51-18.45l-.32-4.8Q310.27,284.66,364.91,294.76Z"/></clipPath><clipPath id="clip-path-14"><path class="cls-1" d="M429.71,482.39l.78,5.21q-15.81,56.73-29.39,110.62l-.78-5.21Q413.9,539.1,429.71,482.39Z"/></clipPath><clipPath id="clip-path-15"><path class="cls-1" d="M473.38,262.55l.78,5.22q-4.1,32.79-7.15,63.91l-.79-5.21Q469.28,295.35,473.38,262.55Z"/></clipPath><clipPath id="clip-path-16"><path class="cls-1" d="M466.22,326.47l.79,5.21q-40.27-9.12-81.45-16.75l-.79-5.21Q426,317.34,466.22,326.47Z"/></clipPath><clipPath id="clip-path-17"><path class="cls-1" d="M474,210.15l.79,5.22q-2.31,18.45-4,36l-.79-5.21Q471.71,228.63,474,210.15Z"/></clipPath><clipPath id="clip-path-18"><path class="cls-1" d="M470,246.13l.79,5.21q-22.66-5.11-45.85-9.42l-.78-5.21Q447.31,241,470,246.13Z"/></clipPath><clipPath id="clip-path-19"><path class="cls-1" d="M355.28,277l.32,4.8c-8.84,7.91-13.23,11.83-21.94,19.58l-.32-4.81C342.05,288.81,346.44,284.89,355.28,277Z"/></clipPath><clipPath id="clip-path-20"><path class="cls-1" d="M333.34,296.55l.32,4.81q-63.65-11.87-129-21.3l-.31-4.81Q269.7,284.69,333.34,296.55Z"/></clipPath><clipPath id="clip-path-21"><path class="cls-1" d="M388.52,247.56l.32,4.81c-7.81,7-11.69,10.45-19.4,17.3l-.32-4.81C376.83,258,380.71,254.55,388.52,247.56Z"/></clipPath><clipPath id="clip-path-22"><path class="cls-1" d="M369.12,264.86l.32,4.81q-56.25-10.5-114-18.83l-.32-4.81Q312.89,254.36,369.12,264.86Z"/></clipPath><clipPath id="clip-path-23"><path class="cls-1" d="M419,231.51l.32,4.81c-6,5.34-8.94,8-14.84,13.23l-.31-4.8C410.1,239.51,413.06,236.86,419,231.51Z"/></clipPath><clipPath id="clip-path-24"><path class="cls-1" d="M404.2,244.75l.31,4.8q-43-8-87.22-14.39l-.32-4.81Q361.17,236.71,404.2,244.75Z"/></clipPath><clipPath id="clip-path-25"><path class="cls-1" d="M431.07,211.84l.32,4.8c-5,4.6-7.5,6.87-12.44,11.38l-.32-4.81C423.58,218.71,426.06,216.44,431.07,211.84Z"/></clipPath><clipPath id="clip-path-26"><path class="cls-1" d="M418.63,223.21,419,228q-36.61-6.41-74.2-11.38l-.32-4.81Q382,216.81,418.63,223.21Z"/></clipPath><clipPath id="clip-path-27"><path class="cls-1" d="M447.51,193.92l.32,4.8c-3.76,3.45-5.62,5.16-9.33,8.54l-.32-4.81C441.89,199.07,443.76,197.37,447.51,193.92Z"/></clipPath><clipPath id="clip-path-28"><path class="cls-1" d="M438.18,202.45l.32,4.81q-27.47-4.8-55.69-8.53l-.31-4.81Q410.72,197.66,438.18,202.45Z"/></clipPath><clipPath id="clip-path-29"><path class="cls-1" d="M241.6,353.38l-.6.8q-19.33,12.76-38.23,24.91l.6-.8Q222.27,366.16,241.6,353.38Z"/></clipPath><clipPath id="clip-path-30"><path class="cls-1" d="M203.37,378.29l-.6.8q-78.6-35.22-161.57-63.94l.59-.79Q124.79,343.07,203.37,378.29Z"/></clipPath><clipPath id="clip-path-31"><path class="cls-1" d="M248.16,405.12l.31,4.8c-5.67,3.69-8.49,5.53-14.12,9.16l-.31-4.8Z"/></clipPath><clipPath id="clip-path-32"><path class="cls-1" d="M234,414.28l.31,4.8q-84-34.57-173.06-62L61,352.27Q150.06,379.69,234,414.28Z"/></clipPath><clipPath id="clip-path-33"><path class="cls-1" d="M401.71,437.82l.32,4.8c-5.67,3.69-8.49,5.53-14.12,9.16l-.32-4.81C393.22,443.34,396,441.5,401.71,437.82Z"/></clipPath><clipPath id="clip-path-34"><path class="cls-1" d="M387.59,447l.32,4.81q-84-34.57-173-62l-.32-4.8Q303.61,412.41,387.59,447Z"/></clipPath><clipPath id="clip-path-35"><path class="cls-1" d="M438.25,396l.32,4.8c-5.67,3.69-8.49,5.53-14.12,9.16l-.32-4.8C429.76,401.49,432.58,399.65,438.25,396Z"/></clipPath><clipPath id="clip-path-36"><path class="cls-1" d="M424.13,405.12l.32,4.8q-84-34.57-173-62l-.32-4.81Q340.15,370.54,424.13,405.12Z"/></clipPath><clipPath id="clip-path-37"><path class="cls-1" d="M263.83,546.69l.32,4.81a1749.81,1749.81,0,0,0-156.69-93.94l-.31-4.8A1753.33,1753.33,0,0,1,263.83,546.69Z"/></clipPath><clipPath id="clip-path-38"><path class="cls-1" d="M329,494.77l.32,4.8q-14.54,27.7-27.73,53.53l-.32-4.8Q314.48,522.46,329,494.77Z"/></clipPath><clipPath id="clip-path-39"><path class="cls-1" d="M211.48,630.13l.32,4.8A1735.24,1735.24,0,0,0,59.51,535.14l-.31-4.8A1734.29,1734.29,0,0,1,211.48,630.13Z"/></clipPath><clipPath id="clip-path-40"><path class="cls-1" d="M344.62,556.2l.32,4.81C305.21,546.07,261,523.88,220.4,511.69l-.31-4.8C260.71,519.07,304.89,541.26,344.62,556.2Z"/></clipPath><clipPath id="clip-path-41"><path class="cls-1" d="M467.4,489.4l.32,4.81c.89,13.5-1.54,55.82-.64,69.44l-.32-4.81C465.86,545.23,468.29,502.91,467.4,489.4Z"/></clipPath><clipPath id="clip-path-42"><path class="cls-1" d="M225.12,430.32l.31,4.8c-22,19-71.49,56.09-91.94,72.93l-.32-4.8C153.62,486.4,203.12,449.35,225.12,430.32Z"/></clipPath><clipPath id="clip-path-43"><path class="cls-1" d="M133.17,503.25l.32,4.8A1068.07,1068.07,0,0,0-4.57,433.78L-4.89,429A1068.14,1068.14,0,0,1,133.17,503.25Z"/></clipPath><clipPath id="clip-path-44"><path class="cls-1" d="M116.89,520.44l.32,4.81c-24.74,16-79.48,46.1-102.33,60.09l-.31-4.81C37.41,566.55,92.15,536.39,116.89,520.44Z"/></clipPath><clipPath id="clip-path-45"><path class="cls-1" d="M14.57,580.53l.31,4.81a1030,1030,0,0,0-124.66-91.92l-.31-4.81A1032.67,1032.67,0,0,1,14.57,580.53Z"/></clipPath><clipPath id="clip-path-46"><path class="cls-1" d="M27.58,319.62l-.91,6.52A1324.71,1324.71,0,0,0-18.22,65.27l.91-6.52A1326.18,1326.18,0,0,1,27.58,319.62Z"/></clipPath><clipPath id="clip-path-47"><path class="cls-1" d="M162,279.4l-.91,6.52Q96.26,313,38,339.49L39,333Q97.17,306.52,162,279.4Z"/></clipPath><clipPath id="clip-path-48"><path class="cls-1" d="M171.77,271.62l-.91,6.52A829.44,829.44,0,0,0,116.18,126l.9-6.52A828.75,828.75,0,0,1,171.77,271.62Z"/></clipPath><clipPath id="clip-path-49"><path class="cls-1" d="M247.06,235.78l-.91,6.52Q210.69,264.2,179,285.13l.91-6.52Q211.59,257.69,247.06,235.78Z"/></clipPath><clipPath id="clip-path-50"><path class="cls-1" d="M124.54,175l.32,4.81A1455.5,1455.5,0,0,0,90,30.18l-.32-4.8A1452.71,1452.71,0,0,1,124.54,175Z"/></clipPath><clipPath id="clip-path-51"><path class="cls-1" d="M138.93,180l.32,4.81c-5.8-2-8.68-3-14.39-5l-.32-4.81C130.26,177,133.13,178,138.93,180Z"/></clipPath><clipPath id="clip-path-52"><path class="cls-1" d="M261.67,214.21,262,219q-35.33-48.18-71.6-96.34l-.32-4.8Q226.35,166,261.67,214.21Z"/></clipPath><clipPath id="clip-path-53"><path class="cls-1" d="M293.7,219.17,294,224c-12.9-2-19.3-3-32-5l-.31-4.8C274.4,216.2,280.8,217.18,293.7,219.17Z"/></clipPath><clipPath id="clip-path-54"><path class="cls-1" d="M303,218.77l.32,4.8q-29-34.09-58.81-68.14l-.32-4.8Q274,184.67,303,218.77Z"/></clipPath><clipPath id="clip-path-55"><path class="cls-1" d="M327.17,220.92l.32,4.8c-9.71-.86-14.54-1.28-24.13-2.15l-.32-4.8Z"/></clipPath><clipPath id="clip-path-56"><path class="cls-1" d="M194.71,186.41l.32,4.8q-18.72-42.42-39.46-84.79l-.31-4.8Q176,144,194.71,186.41Z"/></clipPath><clipPath id="clip-path-57"><path class="cls-1" d="M252.16,189.42l.32,4.8q-29.32-1.49-57.45-3l-.32-4.8Q222.84,187.91,252.16,189.42Z"/></clipPath><clipPath id="clip-path-58"><path class="cls-1" d="M214.65,274.15l.78,5.21c-27.56,12.18-51.26,22.82-77.17,34.68l-.78-5.21C163.39,297,187.09,286.33,214.65,274.15Z"/></clipPath><clipPath id="clip-path-59"><path class="cls-1" d="M137.48,308.83l.78,5.21c-7.09-17.41-19.06-31.67-24.48-49.8L113,259C118.42,277.16,130.38,291.42,137.48,308.83Z"/></clipPath><clipPath id="clip-path-60"><path class="cls-1" d="M116.37,315.63l.79,5.21q-51.59,19.23-100,38.1l-.79-5.22Q64.81,334.86,116.37,315.63Z"/></clipPath><clipPath id="clip-path-61"><path class="cls-1" d="M16.34,353.72l.79,5.22Q9.38,322.61-1.1,286.61l-.79-5.22Q8.59,317.39,16.34,353.72Z"/></clipPath><clipPath id="clip-path-62"><path class="cls-1" d="M778.12,308.56l-.91,6.52a1673.8,1673.8,0,0,0-245.64,185.2l.91-6.52A1673.27,1673.27,0,0,1,778.12,308.56Z"/></clipPath><clipPath id="clip-path-63"><path class="cls-1" d="M532.48,493.76l-.91,6.52Q522,439.44,508.65,374.5l.91-6.52Q522.9,432.92,532.48,493.76Z"/></clipPath><clipPath id="clip-path-64"><path class="cls-1" d="M641.33,201.26l-.91,6.52A960.65,960.65,0,0,0,514.81,340.11l.91-6.52A959.45,959.45,0,0,1,641.33,201.26Z"/></clipPath><clipPath id="clip-path-65"><path class="cls-1" d="M515.72,333.59l-.91,6.52q-12.22-35.57-27.12-73.24l.9-6.52Q503.49,298,515.72,333.59Z"/></clipPath><clipPath id="clip-path-66"><path class="cls-1" d="M542.12,226.54l.32,4.81q-32.9,41.73-64.56,85.2l-.32-4.8Q509.23,268.27,542.12,226.54Z"/></clipPath><clipPath id="clip-path-67"><path class="cls-1" d="M513.59,189.66l.32,4.81q-17.4,22.07-34.14,45.07l-.32-4.81Q496.19,211.74,513.59,189.66Z"/></clipPath><clipPath id="clip-path-68"><path class="cls-1" d="M613.55,322l.32,4.81Q538.17,384.53,468,450.13l-.32-4.8Q537.86,379.72,613.55,322Z"/></clipPath><clipPath id="clip-path-69"><path class="cls-1" d="M577.45,414.69l.32,4.81q-69.54,56.6-134.1,120.29l-.31-4.8Q507.91,471.29,577.45,414.69Z"/></clipPath><clipPath id="clip-path-70"><path class="cls-1" d="M583.45,379.14l.32,4.8q-69.54,56.61-134.1,120.31l-.32-4.81Q513.9,435.74,583.45,379.14Z"/></clipPath><clipPath id="clip-path-71"><path class="cls-1" d="M642.08,522.64l.32,4.81a1080.83,1080.83,0,0,0-131.7,86.12l-.31-4.81A1081.89,1081.89,0,0,1,642.08,522.64Z"/></clipPath><clipPath id="clip-path-72"><path class="cls-1" d="M178.19,162.7l.31,4.8Q156.8,118,132.26,68.64l-.32-4.81Q156.5,113.24,178.19,162.7Z"/></clipPath><clipPath id="clip-path-73"><path class="cls-1" d="M204.89,167.69l.32,4.8c-10.78-2-16.12-3-26.71-5l-.31-4.8C188.77,164.69,194.11,165.69,204.89,167.69Z"/></clipPath><clipPath id="clip-path-74"><path class="cls-1" d="M87.13,191.85l.32,4.81A1460.32,1460.32,0,0,0,55.72,37.35l-.31-4.81A1463.12,1463.12,0,0,1,87.13,191.85Z"/></clipPath><clipPath id="clip-path-75"><path class="cls-1" d="M183.35,193.73l.32,4.8q-50.17-.9-96.22-1.87l-.32-4.81Q133.18,192.84,183.35,193.73Z"/></clipPath><clipPath id="clip-path-76"><path class="cls-1" d="M93.21,126.81l-.59.8q-19.23-8-37.77-16l.6-.8Q74,118.81,93.21,126.81Z"/></clipPath><clipPath id="clip-path-77"><path class="cls-1" d="M55.45,110.83l-.6.8q-13.29-76-33.62-152.12l.59-.79Q42.18,34.78,55.45,110.83Z"/></clipPath><clipPath id="clip-path-78"><path class="cls-1" d="M43.62,126.56l.32,4.8A1452.83,1452.83,0,0,0,9.05-18.31l-.32-4.81A1451,1451,0,0,1,43.62,126.56Z"/></clipPath><clipPath id="clip-path-79"><path class="cls-1" d="M58,131.51l.31,4.81c-5.79-2-8.67-3-14.39-5l-.32-4.8C49.34,128.55,52.22,129.53,58,131.51Z"/></clipPath><clipPath id="clip-path-80"><path class="cls-1" d="M23.69,144.15,24,149c-26.29-5.31-80.74-20.19-104.48-25.55l-.32-4.81C-57,124-2.6,138.85,23.69,144.15Z"/></clipPath><clipPath id="clip-path-81"><path class="cls-1" d="M475.89,346.75l.32,4.81c-.16-2.36-.49-4.63-.65-7l-.31-4.81C475.4,342.13,475.73,344.4,475.89,346.75Z"/></clipPath><clipPath id="clip-path-82"><path class="cls-1" d="M555.92,271.46l.31,4.81c-31,28.16-51.77,57.62-81.94,87.56L474,359C504.14,329.09,524.91,299.63,555.92,271.46Z"/></clipPath><clipPath id="clip-path-83"><path class="cls-1" d="M478.75,291.33l.32,4.81c-.19-2.79-.75-5.4-.93-8.19l-.32-4.8C478,285.93,478.56,288.55,478.75,291.33Z"/></clipPath><clipPath id="clip-path-84"><path class="cls-1" d="M549,223.75l.32,4.81c-27.42,24.9-45.23,51-71.9,77.43l-.32-4.8C503.81,274.72,521.63,248.65,549,223.75Z"/></clipPath><clipPath id="clip-path-85"><path class="cls-1" d="M536.14,171l.32,4.81Q509.63,208.09,483.91,242l-.32-4.8Q509.32,203.27,536.14,171Z"/></clipPath><clipPath id="clip-path-86"><path class="cls-1" d="M459.89,352.22l.78,5.21q-5.79,47.67-10.06,92.88l-.78-5.22Q454.11,399.9,459.89,352.22Z"/></clipPath><clipPath id="clip-path-87"><path class="cls-1" d="M449.83,445.09l.78,5.22Q392,437.16,332.12,426.18l-.78-5.21Q391.25,431.93,449.83,445.09Z"/></clipPath><clipPath id="clip-path-88"><path class="cls-1" d="M369.49,316.3l.31,4.81q-32.67,42-62.82,80.41l-.32-4.81Q336.81,358.3,369.49,316.3Z"/></clipPath><clipPath id="clip-path-89"><path class="cls-1" d="M306.66,396.71l.32,4.81q-87.59-39.24-180.79-70.59l-.32-4.8Q219.08,357.48,306.66,396.71Z"/></clipPath></defs><g class="cls-2"><g id="Layer_1" data-name="Layer 1"><g class="cls-3"><rect class="cls-4" width="552.83" height="553.07"/><g class="cls-5"><g class="cls-2"><g class="cls-2"><g class="cls-6"><g class="cls-2"><path class="cls-7" d="M544.57,349.76l.32,4.8Q469.19,412.33,399,477.92l-.32-4.81q70.17-65.58,145.87-123.35"/></g></g></g><path class="cls-8" d="M490.71,265.26q28.17,44,53.86,84.5Q468.88,407.53,398.7,473.11q6.12-53.69,11.05-109Q449.28,313.33,490.71,265.26Z"/></g></g><g class="cls-5"><g class="cls-2"><g class="cls-2"><g class="cls-9"><g class="cls-2"><path class="cls-7" d="M556.89,476.9l.32,4.8q-75.71,57.77-145.87,123.36l-.32-4.81A1909,1909,0,0,1,556.89,476.9"/></g></g></g><path class="cls-8" d="M503,392.4q28.17,44,53.86,84.5A1909,1909,0,0,0,411,600.25q6.11-53.68,11-109Q461.6,440.47,503,392.4Z"/></g></g><g class="cls-2"><g class="cls-2"><g class="cls-10"><g class="cls-2"><path class="cls-11" d="M432.11,395.36l-.9,6.52q-3.69,24.5-7,48.29l.91-6.52q3.3-23.81,7-48.29"/></g></g></g><polygon class="cls-12" points="413.78 532.81 412.87 539.33 392.41 540.15 393.31 533.63 413.78 532.81"/><g class="cls-2"><g class="cls-13"><g class="cls-2"><path class="cls-14" d="M393.31,533.63l-.9,6.52a1927,1927,0,0,0-294.16-132l.9-6.52a1926.59,1926.59,0,0,1,294.16,132"/></g></g></g><path class="cls-15" d="M216.59,334.86q110.48,25.26,215.52,60.5-10.78,71.7-18.33,137.45l-20.47.82a1926.59,1926.59,0,0,0-294.16-132Q156.62,370.57,216.59,334.86Z"/></g><g class="cls-2"><polygon class="cls-16" points="445.83 368.31 444.92 374.83 432.89 377.11 433.8 370.59 445.83 368.31"/><g class="cls-2"><g class="cls-17"><g class="cls-2"><path class="cls-18" d="M433.8,370.59l-.91,6.52a1186.35,1186.35,0,0,0-188.51-53.18l.9-6.52A1186.47,1186.47,0,0,1,433.8,370.59"/></g></g></g><path class="cls-19" d="M307.68,267.17q68.18,5.43,134.22,17.31,1.32,43.81,3.93,83.83l-12,2.28a1186.47,1186.47,0,0,0-188.52-53.18Q276,293.79,307.68,267.17Z"/></g><g class="cls-2"><polygon class="cls-20" points="431.68 291.88 430.78 298.39 422.33 300 423.24 293.48 431.68 291.88"/><g class="cls-2"><g class="cls-21"><g class="cls-2"><path class="cls-22" d="M423.24,293.48l-.91,6.52a832.32,832.32,0,0,0-132.28-37.32l.9-6.52a832.43,832.43,0,0,1,132.29,37.32"/></g></g></g><path class="cls-23" d="M334.74,220.91q47.83,3.79,94.18,12.14.93,30.75,2.76,58.82l-8.44,1.61A832.43,832.43,0,0,0,291,256.16Q312.49,239.59,334.74,220.91Z"/></g><g class="cls-2"><g class="cls-2"><g class="cls-24"><g class="cls-2"><path class="cls-22" d="M236.2,274.48l-.91,6.52a694,694,0,0,0-71.35-107.9l.91-6.52a694,694,0,0,1,71.35,107.9"/></g></g></g><polygon class="cls-25" points="243.76 278.52 242.86 285.04 235.29 281 236.2 274.48 243.76 278.52"/><g class="cls-2"><g class="cls-26"><g class="cls-2"><path class="cls-27" d="M286.1,234.91l-.91,6.52Q262.68,263.92,242.86,285l.9-6.52q19.82-21.12,42.34-43.61"/></g></g></g><path class="cls-23" d="M164.85,166.58q28.72,1.44,59.56,1.79a842,842,0,0,1,61.69,66.54q-22.53,22.48-42.34,43.61l-7.56-4A694,694,0,0,0,164.85,166.58Z"/></g><g class="cls-2"><g class="cls-2"><g class="cls-28"><g class="cls-2"><path class="cls-29" d="M327.38,344.11l.32,4.8c-5.67,3.7-8.48,5.53-14.12,9.16l-.32-4.8c5.64-3.63,8.46-5.46,14.12-9.16"/></g></g></g><g class="cls-2"><g class="cls-30"><g class="cls-2"><path class="cls-22" d="M313.26,353.27l.32,4.8q-84-34.57-173-62l-.32-4.81q89.07,27.44,173,62"/></g></g></g><path class="cls-31" d="M162.94,286.81q84.48,25.47,164.44,57.3c-5.66,3.7-8.48,5.53-14.12,9.16q-84-34.57-173-62Z"/></g><g class="cls-2"><g class="cls-2"><g class="cls-32"><g class="cls-2"><path class="cls-33" d="M404.34,247.9l.31,4.81q-20.08,23.94-39.42,46.86l-.32-4.81q19.33-22.92,39.43-46.86"/></g></g></g><g class="cls-2"><g class="cls-34"><g class="cls-2"><path class="cls-35" d="M364.91,294.76l.32,4.81q-54.64-10.11-110.51-18.45l-.32-4.8q55.87,8.34,110.51,18.44"/></g></g></g><path class="cls-36" d="M316.3,253q44.11-2.7,88-5.09-20.08,24-39.43,46.86-54.63-10.1-110.51-18.44Q285.17,264.92,316.3,253Z"/></g><g class="cls-2"><g class="cls-2"><g class="cls-37"><g class="cls-2"><path class="cls-38" d="M429.71,482.39l.78,5.21q-15.81,56.73-29.39,110.62l-.78-5.21q13.57-53.91,29.39-110.62"/></g></g></g><path class="cls-39" d="M321.57,465.51q54.56,7.82,108.14,16.88Q413.9,539.11,400.32,593q-65.94-20.81-133.83-39.12Q292.89,511.13,321.57,465.51Z"/></g><g class="cls-2"><g class="cls-2"><g class="cls-40"><g class="cls-2"><path class="cls-41" d="M473.38,262.55l.78,5.22q-4.1,32.79-7.15,63.91l-.79-5.21q3.06-31.12,7.16-63.92"/></g></g></g><g class="cls-2"><g class="cls-42"><g class="cls-2"><path class="cls-14" d="M466.22,326.47l.79,5.21q-27.54-6.24-55.48-11.77l-.79-5.21q28,5.54,55.48,11.77"/><path class="cls-12" d="M410.74,314.7l.79,5.21q-12.94-2.57-26-5l-.79-5.21q13,2.41,26,5"/></g></g></g><path class="cls-43" d="M408.89,257.36q32.48,2.22,64.49,5.19-4.11,32.81-7.16,63.92-40.28-9.12-81.45-16.75Q396.3,284.39,408.89,257.36Z"/></g><g class="cls-2"><g class="cls-2"><g class="cls-44"><g class="cls-2"><path class="cls-45" d="M474,210.15l.79,5.22q-2.31,18.45-4,36l-.79-5.21q1.72-17.5,4-36"/></g></g></g><g class="cls-2"><g class="cls-46"><g class="cls-2"><path class="cls-35" d="M470,246.13l.79,5.21q-15.51-3.5-31.25-6.63l-.79-5.21q15.75,3.12,31.25,6.63"/><path class="cls-47" d="M438.73,239.5l.79,5.21q-7.27-1.44-14.6-2.79l-.78-5.21q7.32,1.35,14.59,2.79"/></g></g></g><path class="cls-39" d="M437.72,207.23q18.27,1.26,36.3,2.92-2.31,18.47-4,36-22.67-5.13-45.84-9.42Q430.62,222.45,437.72,207.23Z"/></g><g class="cls-2"><g class="cls-2"><g class="cls-48"><g class="cls-2"><path class="cls-49" d="M355.28,277l.32,4.8c-8.84,7.91-13.23,11.83-21.94,19.58l-.32-4.81c8.71-7.74,13.1-11.66,21.94-19.57"/></g></g></g><g class="cls-2"><g class="cls-50"><g class="cls-2"><path class="cls-51" d="M333.34,296.55l.32,4.81q-63.65-11.87-129-21.3l-.31-4.81q65.37,9.44,129,21.3"/></g></g></g><path class="cls-52" d="M239.7,267.74Q298,271.64,355.28,277c-8.84,7.91-13.23,11.83-21.94,19.57q-63.63-11.87-129-21.3C218.47,272.27,225.54,270.77,239.7,267.74Z"/></g><g class="cls-2"><g class="cls-2"><g class="cls-53"><g class="cls-2"><path class="cls-49" d="M388.52,247.56l.32,4.81c-7.81,7-11.69,10.45-19.4,17.3l-.32-4.81c7.71-6.85,11.59-10.31,19.4-17.3"/></g></g></g><g class="cls-2"><g class="cls-54"><g class="cls-2"><path class="cls-51" d="M369.12,264.86l.32,4.81q-56.25-10.5-114-18.83l-.32-4.81q57.81,8.33,114,18.83"/></g></g></g><path class="cls-52" d="M286.35,239.39q51.54,3.45,102.17,8.17c-7.81,7-11.69,10.45-19.4,17.3q-56.24-10.49-114-18.83C267.58,243.4,273.83,242.07,286.35,239.39Z"/></g><g class="cls-2"><g class="cls-2"><g class="cls-55"><g class="cls-2"><path class="cls-11" d="M419,231.51l.32,4.81c-6,5.34-8.94,8-14.84,13.23l-.31-4.8c5.9-5.24,8.86-7.89,14.83-13.24"/></g></g></g><g class="cls-2"><g class="cls-56"><g class="cls-2"><path class="cls-14" d="M404.2,244.75l.31,4.8q-43-8-87.22-14.39l-.32-4.81q44.2,6.36,87.23,14.4"/></g></g></g><path class="cls-57" d="M340.89,225.27q39.42,2.63,78.14,6.24c-6,5.35-8.93,8-14.83,13.24q-43-8-87.23-14.4C326.53,228.33,331.32,227.31,340.89,225.27Z"/></g><g class="cls-2"><g class="cls-2"><g class="cls-58"><g class="cls-2"><path class="cls-49" d="M431.07,211.84l.32,4.8c-5,4.6-7.5,6.87-12.44,11.38l-.32-4.81c4.95-4.5,7.43-6.77,12.44-11.37"/></g></g></g><g class="cls-2"><g class="cls-59"><g class="cls-2"><path class="cls-51" d="M418.63,223.21,419,228q-36.61-6.41-74.2-11.38l-.32-4.81q37.59,5,74.2,11.38"/></g></g></g><path class="cls-52" d="M364.67,207.29q33.48,1.88,66.4,4.55c-5,4.6-7.49,6.87-12.44,11.37q-36.61-6.39-74.2-11.38C352.51,210,356.56,209.12,364.67,207.29Z"/></g><g class="cls-2"><g class="cls-2"><g class="cls-60"><g class="cls-2"><path class="cls-61" d="M447.51,193.92l.32,4.8c-3.76,3.45-5.62,5.16-9.33,8.54l-.32-4.81c3.71-3.38,5.58-5.08,9.33-8.53"/></g></g></g><g class="cls-2"><g class="cls-62"><g class="cls-2"><path class="cls-63" d="M438.18,202.45l.32,4.81q-27.47-4.8-55.69-8.53l-.31-4.81q28.22,3.74,55.68,8.53"/></g></g></g><path class="cls-64" d="M397.69,190.51q25.14,1.4,49.82,3.41c-3.75,3.45-5.62,5.15-9.33,8.53q-27.46-4.78-55.68-8.53Z"/></g><g class="cls-2"><g class="cls-2"><g class="cls-65"><g class="cls-2"><path class="cls-35" d="M241.6,353.38l-.6.8q-19.33,12.76-38.23,24.91l.6-.8q18.9-12.14,38.23-24.91"/></g></g></g><g class="cls-2"><g class="cls-66"><g class="cls-2"><path class="cls-35" d="M203.37,378.29l-.6.8q-78.6-35.22-161.57-63.94l.59-.79q83,28.71,161.58,63.93"/></g></g></g><path class="cls-67" d="M101.12,303.8q71.77,22.54,140.48,49.58-19.33,12.78-38.23,24.91-78.6-35.21-161.58-63.93Q71.41,309.14,101.12,303.8Z"/></g><g class="cls-2"><g class="cls-2"><g class="cls-68"><g class="cls-2"><path class="cls-29" d="M248.16,405.12l.31,4.8c-5.67,3.69-8.49,5.53-14.12,9.16l-.31-4.8,14.12-9.16"/></g></g></g><g class="cls-2"><g class="cls-69"><g class="cls-2"><path class="cls-22" d="M234,414.28l.31,4.8q-84-34.57-173.06-62L61,352.27q89.09,27.42,173.07,62"/></g></g></g><path class="cls-31" d="M83.71,347.81q84.48,25.49,164.45,57.31L234,414.28q-84-34.57-173.07-62C70.06,350.5,74.62,349.6,83.71,347.81Z"/></g><g class="cls-2"><g class="cls-2"><g class="cls-70"><g class="cls-2"><path class="cls-16" d="M401.71,437.82l.32,4.8c-5.67,3.69-8.49,5.53-14.12,9.16l-.32-4.81c5.63-3.63,8.45-5.47,14.12-9.15"/></g></g></g><g class="cls-2"><g class="cls-71"><g class="cls-2"><path class="cls-18" d="M387.59,447l.32,4.81q-84-34.57-173-62l-.32-4.8q89.07,27.43,173,62"/></g></g></g><path class="cls-72" d="M237.28,380.51Q321.74,406,401.71,437.82c-5.67,3.68-8.49,5.52-14.12,9.15q-84-34.58-173-62Z"/></g><g class="cls-2"><g class="cls-2"><g class="cls-73"><g class="cls-2"><path class="cls-16" d="M438.25,396l.32,4.8c-5.67,3.69-8.49,5.53-14.12,9.16l-.32-4.8c5.63-3.63,8.45-5.47,14.12-9.16"/></g></g></g><g class="cls-2"><g class="cls-74"><g class="cls-2"><path class="cls-18" d="M424.13,405.12l.32,4.8q-84-34.57-173-62l-.32-4.81q89.07,27.43,173,62"/></g></g></g><path class="cls-72" d="M273.81,338.65Q358.29,364.14,438.25,396c-5.67,3.69-8.49,5.53-14.12,9.16q-84-34.58-173-62C260.16,341.34,264.71,340.44,273.81,338.65Z"/></g><g class="cls-5"><g class="cls-2"><g class="cls-2"><g class="cls-75"><g class="cls-2"><path class="cls-76" d="M263.83,546.69l.32,4.81a1749.81,1749.81,0,0,0-156.69-93.94l-.31-4.8a1753.33,1753.33,0,0,1,156.68,93.93"/></g></g></g><polygon class="cls-77" points="301.28 548.3 301.6 553.1 264.15 551.5 263.83 546.69 301.28 548.3"/><g class="cls-2"><g class="cls-78"><g class="cls-2"><path class="cls-79" d="M329,494.77l.32,4.8q-14.54,27.7-27.73,53.53l-.32-4.8q13.2-25.84,27.73-53.53"/></g></g></g><path class="cls-8" d="M178.24,411.91Q256,449.95,329,494.77q-14.53,27.71-27.73,53.53l-37.45-1.61a1753.33,1753.33,0,0,0-156.68-93.93Q141.74,433.67,178.24,411.91Z"/></g></g><g class="cls-5"><g class="cls-2"><g class="cls-2"><g class="cls-80"><g class="cls-2"><path class="cls-76" d="M211.48,630.13l.32,4.8A1735.24,1735.24,0,0,0,59.51,535.14l-.31-4.8a1734.29,1734.29,0,0,1,152.28,99.79"/></g></g></g><path class="cls-8" d="M132,492.18q76,40.95,146.88,88.49-15.76,27.15-30.1,52.47l-37.32-3A1734.29,1734.29,0,0,0,59.2,530.34Q94.6,512.55,132,492.18Z"/></g></g><g class="cls-2"><g class="cls-2"><g class="cls-81"><g class="cls-2"><path class="cls-82" d="M344.62,556.2l.32,4.81C305.21,546.07,261,523.88,220.4,511.69l-.31-4.8c40.62,12.18,84.8,34.37,124.53,49.31"/></g></g></g><g class="cls-2"><g class="cls-83"><g class="cls-2"><path class="cls-84" d="M467.4,489.4l.32,4.81c.89,13.5-1.54,55.82-.64,69.44l-.32-4.81c-.9-13.61,1.53-55.93.64-69.44"/></g></g></g><path class="cls-85" d="M259.4,430.58A1930.12,1930.12,0,0,1,467.15,487c1.62,10.39-1.78,64.28-.12,74.49L344.62,556.2c-39.73-14.94-83.91-37.13-124.53-49.31Q239.07,470.8,259.4,430.58Z"/></g><g class="cls-2"><g class="cls-2"><g class="cls-86"><g class="cls-2"><path class="cls-7" d="M225.12,430.32l.31,4.8c-22,19-71.49,56.09-91.94,72.93l-.32-4.8c20.45-16.85,70-53.9,92-72.93"/></g></g></g><g class="cls-2"><g class="cls-87"><g class="cls-2"><path class="cls-76" d="M133.17,503.25l.32,4.8A1068.07,1068.07,0,0,0-4.57,433.78L-4.89,429a1068.14,1068.14,0,0,1,138.06,74.28"/></g></g></g><path class="cls-8" d="M13.34,348.78a1961,1961,0,0,1,211.78,81.54c-22,19-71.5,56.08-92,72.93A1068.14,1068.14,0,0,0-4.89,429L0,351.77C4.54,350.66,9,349.65,13.34,348.78Z"/></g><g class="cls-2"><g class="cls-2"><g class="cls-88"><g class="cls-2"><path class="cls-89" d="M116.89,520.44l.32,4.81c-24.74,16-79.48,46.1-102.33,60.09l-.31-4.81c22.84-14,77.58-44.14,102.32-60.09"/></g></g></g><g class="cls-2"><g class="cls-90"><g class="cls-2"><path class="cls-63" d="M14.57,580.53l.31,4.81a1030,1030,0,0,0-124.66-91.92l-.31-4.81A1032.67,1032.67,0,0,1,14.57,580.53"/></g></g></g><path class="cls-64" d="M-79.44,411.55A1894.82,1894.82,0,0,1,116.89,520.44c-24.74,15.95-79.48,46.11-102.32,60.09a1032.67,1032.67,0,0,0-124.66-91.92l17-75.86C-88.43,412.24-83.88,411.83-79.44,411.55Z"/></g><g class="cls-2"><g class="cls-2"><g class="cls-91"><g class="cls-2"><path class="cls-22" d="M27.58,319.62l-.91,6.52A1324.71,1324.71,0,0,0-18.22,65.27l.91-6.52A1326.18,1326.18,0,0,1,27.58,319.62"/></g></g></g><polygon class="cls-25" points="38.95 332.98 38.04 339.49 26.67 326.14 27.58 319.62 38.95 332.98"/><g class="cls-2"><g class="cls-92"><g class="cls-2"><path class="cls-29" d="M162,279.4l-.91,6.52Q96.26,313,38,339.49L39,333q58.22-26.45,123-53.57"/></g></g></g><path class="cls-23" d="M-17.31,58.75q55.67,23.7,116.5,46.88A1578.19,1578.19,0,0,1,162,279.4Q97.17,306.51,39,333L27.58,319.62A1326.18,1326.18,0,0,0-17.31,58.75Z"/></g><g class="cls-2"><g class="cls-2"><g class="cls-93"><g class="cls-2"><path class="cls-63" d="M171.77,271.62l-.91,6.52A829.44,829.44,0,0,0,116.18,126l.9-6.52a828.75,828.75,0,0,1,54.69,152.12"/></g></g></g><polygon class="cls-94" points="179.94 278.61 179.03 285.13 170.86 278.14 171.77 271.62 179.94 278.61"/><g class="cls-2"><g class="cls-95"><g class="cls-2"><path class="cls-89" d="M247.06,235.78l-.91,6.52Q210.69,264.2,179,285.13l.91-6.52q31.65-20.92,67.12-42.83"/></g></g></g><path class="cls-96" d="M117.08,119.5q35.55,9.3,74.08,17.83a995.24,995.24,0,0,1,55.9,98.45q-35.48,21.9-67.12,42.83l-8.17-7A828.75,828.75,0,0,0,117.08,119.5Z"/></g><g class="cls-2"><g class="cls-2"><g class="cls-97"><g class="cls-2"><path class="cls-22" d="M124.54,175l.32,4.81A1455.5,1455.5,0,0,0,90,30.18l-.32-4.8A1452.71,1452.71,0,0,1,124.54,175"/></g></g></g><g class="cls-2"><g class="cls-98"><g class="cls-2"><path class="cls-22" d="M138.93,180l.32,4.81c-5.8-2-8.68-3-14.39-5l-.32-4.81c5.72,2,8.59,3,14.39,5"/></g></g></g><path class="cls-31" d="M89.64,25.38c5.92,5.29,8.88,7.94,14.82,13.23Q125.37,109.23,138.93,180c-5.8-2-8.67-3-14.39-5A1452.71,1452.71,0,0,0,89.64,25.38Z"/></g><g class="cls-5"><g class="cls-2"><g class="cls-2"><g class="cls-99"><g class="cls-2"><path class="cls-76" d="M261.67,214.21,262,219q-35.33-48.18-71.6-96.34l-.32-4.8q36.28,48.16,71.61,96.34"/></g></g></g><g class="cls-2"><g class="cls-100"><g class="cls-2"><path class="cls-76" d="M293.7,219.17,294,224c-12.9-2-19.3-3-32-5l-.31-4.8c12.73,2,19.13,3,32,5"/></g></g></g><path class="cls-8" d="M190.06,117.87c11,8.14,16.49,12.2,27.53,20.33q38.13,40.47,76.11,81c-12.9-2-19.3-3-32-5Q226.33,166,190.06,117.87Z"/></g></g><g class="cls-5"><g class="cls-2"><g class="cls-2"><g class="cls-101"><g class="cls-2"><path class="cls-76" d="M303,218.77l.32,4.8q-29-34.09-58.81-68.14l-.32-4.8q29.76,34,58.81,68.14"/></g></g></g><g class="cls-2"><g class="cls-102"><g class="cls-2"><path class="cls-76" d="M327.17,220.92l.32,4.8c-9.71-.86-14.54-1.28-24.13-2.15l-.32-4.8,24.13,2.15"/></g></g></g><path class="cls-8" d="M244.23,150.63l21.66,13.77q30.71,28.24,61.28,56.52L303,218.77Q274,184.66,244.23,150.63Z"/></g></g><g class="cls-2"><g class="cls-2"><g class="cls-103"><g class="cls-2"><path class="cls-22" d="M194.71,186.41l.32,4.8q-18.72-42.42-39.46-84.79l-.31-4.8Q176,144,194.71,186.41"/></g></g></g><g class="cls-2"><g class="cls-104"><g class="cls-2"><path class="cls-22" d="M252.16,189.42l.32,4.8q-29.32-1.49-57.45-3l-.32-4.8q28.13,1.5,57.45,3"/></g></g></g><path class="cls-31" d="M155.26,101.62Q179.67,116.8,204.67,132q23.94,28.72,47.49,57.46-29.32-1.5-57.45-3Q176,144,155.26,101.62Z"/></g><g class="cls-2"><g class="cls-2"><g class="cls-105"><g class="cls-2"><path class="cls-106" d="M214.65,274.15l.78,5.21-4.37,1.94-.78-5.21c1.44-.65,2.9-1.29,4.37-1.94"/><path class="cls-107" d="M210.28,276.09l.78,5.21c-25.72,11.38-48.27,21.52-72.8,32.74l-.78-5.21c24.53-11.23,47.08-21.36,72.8-32.74"/></g></g></g><g class="cls-2"><g class="cls-108"><g class="cls-2"><path class="cls-14" d="M137.48,308.83l.78,5.21c-7.09-17.41-19.06-31.67-24.48-49.8L113,259c5.42,18.14,17.38,32.4,24.48,49.81"/></g></g></g><path class="cls-43" d="M193.76,235.78q11,19.07,20.89,38.37c-27.56,12.18-51.26,22.82-77.17,34.68-7.1-17.41-19.06-31.67-24.48-49.81C136.62,252.66,168.48,242.47,193.76,235.78Z"/></g><g class="cls-2"><g class="cls-2"><g class="cls-109"><g class="cls-2"><path class="cls-110" d="M116.37,315.63l.79,5.21q-51.59,19.23-100,38.1l-.79-5.22q48.47-18.86,100-38.09"/></g></g></g><g class="cls-2"><g class="cls-111"><g class="cls-2"><path class="cls-82" d="M16.34,353.72l.79,5.22Q9.38,322.61-1.1,286.61l-.79-5.22q10.49,36,18.23,72.33"/></g></g></g><path class="cls-112" d="M89.79,263.85q14,25.8,26.58,51.78-51.57,19.23-100,38.09Q8.6,317.4-1.89,281.39,42.38,272.8,89.79,263.85Z"/></g><g class="cls-2"><g class="cls-2"><g class="cls-113"><g class="cls-2"><path class="cls-27" d="M608,429l-.91,6.52q-38.77,31.26-75.54,64.73l.91-6.52Q569.23,460.29,608,429"/></g></g></g><g class="cls-2"><g class="cls-114"><g class="cls-2"><path class="cls-22" d="M532.48,493.76l-.91,6.52Q522,439.44,508.65,374.5l.91-6.52q13.34,64.93,22.92,125.78"/></g></g></g><path class="cls-23" d="M652.86,216.56q68.49,40,132.21,74.77l-7,17.23a1673.27,1673.27,0,0,0-245.64,185.2q-9.6-60.84-22.92-125.78A1822.42,1822.42,0,0,1,652.86,216.56Z"/></g><g class="cls-2"><g class="cls-2"><g class="cls-115"><g class="cls-2"><path class="cls-116" d="M641.33,201.26l-.91,6.52A960.65,960.65,0,0,0,514.81,340.11l.91-6.52A959.45,959.45,0,0,1,641.33,201.26"/></g></g></g><g class="cls-2"><g class="cls-117"><g class="cls-2"><path class="cls-18" d="M515.72,333.59l-.91,6.52q-12.22-35.57-27.12-73.24l.9-6.52q14.9,37.68,27.13,73.24"/></g></g></g><path class="cls-19" d="M557.2,157.21q44.89,17.94,86.39,33.14l-2.26,10.91A959.45,959.45,0,0,0,515.72,333.59Q503.5,298,488.59,260.35A1052.46,1052.46,0,0,1,557.2,157.21Z"/></g><g class="cls-2"><g class="cls-2"><g class="cls-118"><g class="cls-2"><path class="cls-119" d="M542.12,226.54l.32,4.81q-32.9,41.73-64.56,85.2l-.32-4.8q31.67-43.49,64.56-85.21"/></g></g></g><path class="cls-31" d="M521,182.89c10.31,17.53,11.26,26.8,21.1,43.65q-32.88,41.75-64.56,85.21,1.51-30.28,2.63-61.08C490.69,225.33,510.37,208,521,182.89Z"/></g><g class="cls-2"><g class="cls-2"><g class="cls-120"><g class="cls-2"><path class="cls-119" d="M513.59,189.66l.32,4.81q-17.4,22.07-34.14,45.07l-.32-4.81q16.74-23,34.14-45.07"/></g></g></g><path class="cls-31" d="M502.43,166.57c5.46,9.28,6,14.18,11.16,23.09q-17.4,22.07-34.14,45.07.8-16,1.38-32.3C486.39,189,496.8,179.87,502.43,166.57Z"/></g><g class="cls-5"><g class="cls-2"><g class="cls-2"><g class="cls-121"><g class="cls-2"><path class="cls-61" d="M613.55,322l.32,4.81Q538.17,384.53,468,450.13l-.32-4.8Q537.86,379.72,613.55,322"/></g></g></g><path class="cls-64" d="M559.69,237.46q28.17,44,53.86,84.49-75.7,57.78-145.89,123.38,6.12-53.71,11.06-109.06Q518.25,285.51,559.69,237.46Z"/></g></g><g class="cls-2"><g class="cls-2"><g class="cls-122"><g class="cls-2"><path class="cls-27" d="M577.45,414.69l.32,4.81q-69.54,56.6-134.1,120.29l-.31-4.8q64.54-63.71,134.09-120.3"/></g></g></g><path class="cls-31" d="M574.22,399.24c1.32,6.22,2,9.3,3.23,15.45Q507.91,471.3,443.36,535c2-8.32,3-12.48,5.06-20.81Q509.11,453.57,574.22,399.24Z"/></g><g class="cls-2"><g class="cls-2"><g class="cls-123"><g class="cls-2"><path class="cls-11" d="M583.45,379.14l.32,4.8q-69.54,56.61-134.1,120.31l-.32-4.81q64.54-63.7,134.1-120.3"/></g></g></g><path class="cls-57" d="M580.23,363.69c1.32,6.21,2,9.29,3.22,15.45q-69.54,56.61-134.1,120.3c2-8.31,3-12.47,5.06-20.8Q515.1,418,580.23,363.69Z"/></g><g class="cls-2"><g class="cls-2"><g class="cls-124"><g class="cls-2"><path class="cls-16" d="M642.08,522.64l.32,4.81a1108.51,1108.51,0,0,0-99.33,62.31l-.31-4.81a1111.45,1111.45,0,0,1,99.32-62.31"/></g></g></g><path class="cls-72" d="M607.84,416.75c9.77,26,26,82.1,34.24,105.89a1081.89,1081.89,0,0,0-131.69,86.12L435.52,574c.78-4.22,1.63-8.34,2.59-12.34A1863.78,1863.78,0,0,1,607.84,416.75Z"/></g><g class="cls-2"><g class="cls-2"><g class="cls-125"><g class="cls-2"><path class="cls-14" d="M178.19,162.7l.31,4.8Q156.8,118,132.26,68.64l-.32-4.81q24.56,49.41,46.25,98.87"/></g></g></g><g class="cls-2"><g class="cls-126"><g class="cls-2"><path class="cls-14" d="M204.89,167.69l.32,4.8c-10.78-2-16.12-3-26.71-5l-.31-4.8c10.58,2,15.92,3,26.7,5"/></g></g></g><path class="cls-57" d="M131.94,63.83C141.32,72,146,76,155.46,84.13q25.54,41.76,49.43,83.56c-10.78-2-16.12-3-26.7-5Q156.47,113.23,131.94,63.83Z"/></g><g class="cls-5"><g class="cls-2"><g class="cls-2"><g class="cls-127"><g class="cls-2"><path class="cls-76" d="M87.13,191.85l.32,4.81A1460.32,1460.32,0,0,0,55.72,37.35l-.31-4.81A1463.12,1463.12,0,0,1,87.13,191.85"/></g></g></g><g class="cls-2"><g class="cls-128"><g class="cls-2"><path class="cls-76" d="M183.35,193.73l.32,4.8q-50.17-.9-96.22-1.87l-.32-4.81q46.05,1,96.22,1.88"/></g></g></g><path class="cls-8" d="M55.41,32.54Q97,61.87,140.56,91.14q23,51.27,42.79,102.59-50.16-.9-96.22-1.88A1463.12,1463.12,0,0,0,55.41,32.54Z"/></g></g><g class="cls-2"><g class="cls-2"><g class="cls-129"><g class="cls-2"><path class="cls-63" d="M93.21,126.81l-.59.8q-19.23-8-37.77-16l.6-.8q18.54,8,37.76,16"/></g></g></g><g class="cls-2"><g class="cls-130"><g class="cls-2"><path class="cls-63" d="M55.45,110.83l-.6.8q-13.29-76-33.62-152.12l.59-.79Q42.18,34.78,55.45,110.83"/></g></g></g><path class="cls-131" d="M21.82-41.28Q40.6-21.85,59.5-2.42,78.81,62.2,93.21,126.81q-19.21-8-37.76-16Q42.16,34.78,21.82-41.28Z"/></g><g class="cls-2"><g class="cls-2"><g class="cls-132"><g class="cls-2"><path class="cls-14" d="M43.62,126.56l.32,4.8A1452.83,1452.83,0,0,0,9.05-18.31l-.32-4.81A1451,1451,0,0,1,43.62,126.56"/></g></g></g><g class="cls-2"><g class="cls-133"><g class="cls-2"><path class="cls-14" d="M58,131.51l.31,4.81c-5.79-2-8.67-3-14.39-5l-.32-4.8c5.72,2,8.6,3,14.4,4.95"/></g></g></g><path class="cls-57" d="M8.73-23.12c5.92,5.3,8.88,8,14.82,13.24Q44.47,60.74,58,131.51c-5.8-2-8.68-3-14.4-4.95A1451,1451,0,0,0,8.73-23.12Z"/></g><path class="cls-134" d="M-23,275.45q27.21-5.82,56.56-11.78-4.19-79.16-16.2-157.76-36.51-13.38-69.89-27A1577.32,1577.32,0,0,1-41.77,247.53Z"/><g class="cls-2"><g class="cls-2"><g class="cls-135"><g class="cls-2"><path class="cls-18" d="M23.69,144.15,24,149c-26.29-5.31-80.74-20.19-104.48-25.55l-.32-4.81C-57,124-2.6,138.85,23.69,144.15"/></g></g></g><path class="cls-72" d="M-23.39-49.44c3.12,2.52,6.14,5,9,7.57a1425.19,1425.19,0,0,1,38.09,186C-2.6,138.85-57,124-80.79,118.6a799.27,799.27,0,0,0-7.69-132Z"/></g><g class="cls-2"><g class="cls-2"><g class="cls-136"><g class="cls-2"><path class="cls-51" d="M475.89,346.75l.32,4.81c-.16-2.36-.49-4.63-.65-7l-.31-4.81c.15,2.36.48,4.63.64,7"/></g></g></g><g class="cls-2"><g class="cls-137"><g class="cls-2"><path class="cls-49" d="M555.92,271.46l.31,4.81a456.3,456.3,0,0,0-34,34.86l-.31-4.8a454.47,454.47,0,0,1,34-34.87"/><path class="cls-138" d="M521.92,306.33l.31,4.8c-8,8.93-15.69,17.94-23.78,27l-.32-4.81c8.09-9.08,15.83-18.09,23.79-27"/><path class="cls-49" d="M498.13,333.34l.32,4.81c-7.59,8.5-15.49,17.07-24.16,25.68L474,359c8.68-8.6,16.57-17.17,24.16-25.68"/></g></g></g><path class="cls-52" d="M550.41,244.07c2.24,11.05,3.34,16.53,5.51,27.39-31,28.17-51.78,57.63-81.95,87.56,5.21-12.43-2-19.07,3.19-31.55Q513.42,285,550.41,244.07Z"/></g><g class="cls-2"><g class="cls-2"><g class="cls-139"><g class="cls-2"><path class="cls-82" d="M478.75,291.33l.32,4.81c-.19-2.79-.75-5.4-.93-8.19l-.32-4.8c.18,2.78.74,5.4.93,8.18"/></g></g></g><g class="cls-2"><g class="cls-140"><g class="cls-2"><path class="cls-141" d="M549,223.75l.32,4.81a361.53,361.53,0,0,0-27.07,27.68l-.32-4.81A365.21,365.21,0,0,1,549,223.75"/><path class="cls-142" d="M522,251.43l.32,4.81c-8.77,9.84-17.12,19.81-26.09,29.87l-.32-4.8c9-10.06,17.32-20,26.09-29.88"/><path class="cls-141" d="M495.88,281.31l.32,4.8c-5.88,6.59-12,13.23-18.74,19.88l-.32-4.8c6.71-6.66,12.86-13.29,18.74-19.88"/></g></g></g><path class="cls-85" d="M544.17,199.55c2,9.76,3,14.61,4.87,24.2-27.41,24.9-45.23,51-71.9,77.44,4.61-11-2.32-16.89,2.27-27.92Q511.46,235.73,544.17,199.55Z"/></g><g class="cls-2"><g class="cls-2"><g class="cls-143"><g class="cls-2"><path class="cls-144" d="M536.14,171l.32,4.81Q509.63,208.09,483.91,242l-.32-4.8q25.73-33.94,52.55-66.2"/></g></g></g><path class="cls-64" d="M529.62,153.19c2.65,7.18,4,10.75,6.52,17.82q-26.83,32.27-52.55,66.2c2.22-8.76,3.32-13.15,5.51-21.94Q509,183.74,529.62,153.19Z"/></g><g class="cls-2"><g class="cls-2"><g class="cls-145"><g class="cls-2"><path class="cls-45" d="M459.89,352.22l.78,5.21q-5.79,47.67-10.06,92.88l-.78-5.22q4.28-45.19,10.06-92.87"/></g></g></g><g class="cls-2"><g class="cls-146"><g class="cls-2"><path class="cls-35" d="M449.83,445.09l.78,5.22q-37.17-8.35-74.89-15.82l-.79-5.21q37.72,7.47,74.9,15.81"/><path class="cls-47" d="M374.93,429.28l.79,5.21q-21.71-4.31-43.6-8.31l-.78-5.21q21.89,4,43.59,8.31"/></g></g></g><path class="cls-39" d="M366.12,344.85q47.2,3.15,93.77,7.37-5.79,47.67-10.06,92.87Q391.26,432,331.34,421,348,384.15,366.12,344.85Z"/></g><g class="cls-5"><g class="cls-2"><g class="cls-2"><g class="cls-147"><g class="cls-2"><path class="cls-144" d="M369.49,316.3l.31,4.81q-32.67,42-62.82,80.41l-.32-4.81q30.15-38.41,62.83-80.41"/></g></g></g><g class="cls-2"><g class="cls-148"><g class="cls-2"><path class="cls-63" d="M306.66,396.71l.32,4.81q-87.59-39.24-180.79-70.59l-.32-4.8q93.21,31.35,180.79,70.58"/></g></g></g><path class="cls-64" d="M238.91,289.8q66.25,11.9,130.58,26.5-32.69,42-62.83,80.41-87.59-39.24-180.79-70.58Q181.81,308.8,238.91,289.8Z"/></g></g><rect class="cls-1" width="552.83" height="553.07"/><rect class="cls-1" width="552.83" height="553.07"/></g></g></g></svg>