<svg height="104.5" width="250" id="Layer_1" data-name="Layer 1" xmlns="http://www.w3.org/2000/svg" viewBox="0 0 1000 418.1"><defs><style>.cls-1{fill:#fff;stroke:#000;stroke-miterlimit:10;}.cls-2{fill:#fefefe;}.cls-3{fill:#1aabce;}.cls-4{fill:#009ac7;}.cls-5{fill:#231f20;}</style></defs><rect class="cls-1" width="1000" height="418.1"/><path class="cls-2" d="M434.8,350c-.5-1.1-.9-1.9-1.3-2.7-10-21.4-20.1-42.9-30.1-64.3a2.79,2.79,0,0,0-2.9-1.9c-5,.1-9.9.1-14.9,0-1.3,0-1.8.3-1.8,1.7v83.1c0,1.4.5,1.7,1.8,1.7,3.9-.1,7.7-.1,11.6,0,1.9.1,2.4-.5,2.4-2.4-.1-17,0-34,0-51.1a3.49,3.49,0,0,1,.3-2.2c.2.3.3.4.3.5q12.9,26.55,25.6,53.2a2.76,2.76,0,0,0,2.9,1.9q6-.15,12,0a2.63,2.63,0,0,0,2.8-1.8c6.2-13,12.5-25.9,18.8-38.8,2.4-5,4.8-10,7.3-14.9.1,0,.3.1.4.1v53.4c0,1.6.4,2.1,2,2.1,3.9-.1,7.9-.1,11.8,0,1.4,0,1.9-.3,1.9-1.8V282.9c0-1.5-.6-1.8-1.9-1.8-5,.1-9.9.1-14.9,0a2.17,2.17,0,0,0-2.3,1.5c-8,17.1-16,34.1-24,51.2C440,339.1,437.5,344.4,434.8,350Z"/><path class="cls-2" d="M207,350c-.6-1.1-1-1.9-1.3-2.6-10-21.4-20.1-42.9-30.1-64.3a2.75,2.75,0,0,0-3.1-1.9c-4.8.1-9.6.1-14.5,0-1.6,0-2.1.4-2.1,2,.1,10.3,0,20.5,0,30.8v51.7c0,1.5.3,2,1.9,2,3.9-.1,7.7-.2,11.6,0,1.9.1,2.2-.6,2.2-2.3-.1-17,0-34,0-51.1,0-.7.1-1.4.1-2.5a6.66,6.66,0,0,1,.6,1.1q12.9,26.55,25.6,53.2a2.38,2.38,0,0,0,2.5,1.6c4.1-.1,8.3-.1,12.4,0a2.43,2.43,0,0,0,2.6-1.7c7.4-15.4,14.8-30.7,22.3-46.1,1.3-2.6,2.6-5.2,3.8-7.8.1,0,.2.1.3.1v53.4c0,1.2-.1,2.2,1.7,2.1,4.1-.1,8.3-.1,12.4,0,1.4,0,1.6-.6,1.6-1.7V282.9c0-1.3-.4-1.7-1.6-1.6q-7.65.15-15.3,0a1.9,1.9,0,0,0-2.1,1.4c-5.9,12.6-11.8,25.2-17.7,37.7C216.3,330.1,211.7,339.9,207,350Z"/><path class="cls-2" d="M624.1,324.3V365c0,3-.4,2.6,2.7,2.6h78.3c1.8,0,2.2-.5,2.1-2.2-.1-4.1-.2-8.3,0-12.4.1-2-.4-2.5-2.5-2.5-20.5.1-41.1,0-61.6.1-1.7,0-2.2-.4-2.2-2.2.1-4.8,0-9.5,0-14.3,0-3,0-3,2.9-3h59.3c1.7,0,2.3-.4,2.2-2.2-.1-3,0-6.1,0-9.1,0-2.8,0-2.8-2.8-2.8H643c-1.6,0-2.1-.3-2.1-2,.1-4.6,0-9.2,0-13.8,0-3.4-.5-2.9,3-2.9h60.6c2,0,2.8-.3,2.7-2.5-.2-4.2-.1-8.4,0-12.6,0-1.7-.4-2.2-2.1-2.2q-39.45.15-79,0c-1.8,0-2.1.6-2.1,2.2C624.1,297,624.1,310.7,624.1,324.3Z"/><path class="cls-2" d="M279.6,324.3c0,13.6.1,27.3-.1,40.9,0,2.1.6,2.4,2.5,2.4,14.1-.1,28.1,0,42.2,0h36.4c1.8,0,2.2-.5,2.1-2.2-.1-4.1-.2-8.3,0-12.4.1-2-.4-2.5-2.5-2.5-20.5.1-41.1,0-61.6.1-1.7,0-2.2-.4-2.2-2.2.1-4.9,0-9.8,0-14.7,0-3-.4-2.6,2.7-2.6h59.5c1.7,0,2.3-.4,2.2-2.1-.1-3.1-.2-6.2,0-9.3.1-2.1-.5-2.7-2.6-2.7-19.8.1-39.7,0-59.5.1-1.7,0-2.4-.3-2.3-2.2.2-4.6,0-9.2.1-13.8,0-3.1-.4-2.7,2.8-2.7h61c2,0,2.5-.6,2.5-2.5-.2-4.2-.1-8.4,0-12.6,0-1.7-.4-2.2-2.1-2.2q-39.45.15-79,0c-1.8,0-2.1.6-2.1,2.2C279.7,297,279.6,310.6,279.6,324.3Z"/><path class="cls-3" d="M591,322.7a8,8,0,0,0,1.1.5c6.9,1.7,10.6,6.3,11.2,13.1a62.2,62.2,0,0,1-.5,16.1c-1.4,8.2-6.5,12.8-14.5,14.3a45.79,45.79,0,0,1-9,.9h-69c-1.7,0-2.3-.2-2.3-2.2.1-27.3.1-54.7,0-82,0-1.9.5-2.2,2.3-2.2,23,.1,46,0,69,0a44.88,44.88,0,0,1,9.6,1.1c6.5,1.5,10.4,5.5,11.8,12,1.2,5.7,1,11.5.6,17.3S597.3,321.3,591,322.7Zm-38.2,8.1h-26c-1.6,0-2,.4-1.9,2,.1,5.2.1,10.5,0,15.7-.1,1.9.6,2.2,2.3,2.2,16.5-.1,32.9,0,49.4,0a22.82,22.82,0,0,0,4.5-.4c2.9-.5,4.4-2,5.1-4.9a18.6,18.6,0,0,0,.3-4.7c0-7.9-1.9-9.8-9.7-9.8C568.8,330.8,560.8,330.8,552.8,330.8Zm-.5-13.9h5.4c7,0,13.9,0,20.9-.1,3.3-.1,4.9-1.5,5.6-4.7a32.85,32.85,0,0,0,.3-7c-.1-4.8-1.9-6.6-6.7-6.6h-51c-1.4,0-1.9.3-1.9,1.8q.15,7.35,0,14.7c0,1.7.6,2,2.1,2C535.4,316.8,543.9,316.9,552.3,316.9Z"/><path class="cls-3" d="M434.8,350c2.7-5.6,5.2-10.9,7.6-16.2,8-17.1,16-34.1,24-51.2a2.17,2.17,0,0,1,2.3-1.5c5,.1,9.9.1,14.9,0,1.4,0,1.9.2,1.9,1.8v82.9c0,1.5-.5,1.8-1.9,1.8-3.9-.1-7.9-.1-11.8,0-1.7.1-2-.5-2-2.1.1-17.1,0-34.2,0-51.3v-2.1c-.1,0-.3-.1-.4-.1-2.4,5-4.8,10-7.3,14.9-6.3,12.9-12.6,25.9-18.8,38.8a2.63,2.63,0,0,1-2.8,1.8q-6-.15-12,0a2.56,2.56,0,0,1-2.9-1.9c-8.5-17.7-17.1-35.5-25.6-53.2-.1-.1-.1-.2-.3-.5a4.35,4.35,0,0,0-.3,2.2v51.1c0,1.9-.5,2.5-2.4,2.4-3.9-.2-7.7-.1-11.6,0-1.3,0-1.8-.3-1.8-1.7V282.8c0-1.4.5-1.7,1.8-1.7,5,.1,9.9.1,14.9,0a2.72,2.72,0,0,1,2.9,1.9q15,32.25,30.1,64.3A13.65,13.65,0,0,1,434.8,350Z"/><path class="cls-3" d="M207,350c4.8-10.1,9.4-19.9,13.9-29.7,5.9-12.6,11.8-25.1,17.7-37.7a2,2,0,0,1,2.1-1.4q7.65.15,15.3,0c1.3,0,1.6.4,1.6,1.6v83.1c0,1.2-.2,1.7-1.6,1.7-4.1-.1-8.3-.1-12.4,0-1.9.1-1.7-.9-1.7-2.1V312.1c-.1,0-.2-.1-.3-.1-1.3,2.6-2.6,5.2-3.8,7.8-7.4,15.4-14.9,30.7-22.3,46.1-.6,1.2-1.2,1.8-2.6,1.7-4.1-.1-8.3-.1-12.4,0A2.38,2.38,0,0,1,198,366c-8.5-17.7-17.1-35.5-25.6-53.2-.1-.2-.3-.5-.6-1.1,0,1.1-.1,1.8-.1,2.5v51.1c0,1.8-.3,2.4-2.2,2.3-3.9-.2-7.7-.1-11.6,0-1.6.1-1.9-.5-1.9-2,.1-17.2,0-34.4,0-51.7V283.1c0-1.7.5-2.1,2.1-2,4.8.1,9.6.1,14.5,0a2.85,2.85,0,0,1,3.1,1.9q15,32.25,30.1,64.3A11.84,11.84,0,0,0,207,350Z"/><path class="cls-3" d="M794.6,339.5c10.4,9.2,20.7,18.5,31.1,27.7-.4.7-1,.4-1.5.4H803.7a4,4,0,0,1-2.9-1.2l-27.3-25.8a4.06,4.06,0,0,0-3.1-1.2c-7.8,0-15.6.1-23.4,0-1.7,0-2.2.4-2.2,2.1.1,7.9,0,15.8.1,23.8,0,2-.6,2.4-2.4,2.3-4.3-.1-8.7-.1-13,0-1.3,0-1.6-.3-1.6-1.6V282.7c0-1.3.4-1.6,1.6-1.6,24.2.1,48.4,0,72.5.1a24.67,24.67,0,0,1,12.1,3,16.05,16.05,0,0,1,7.9,11.1,72,72,0,0,1,.3,28.5c-1.6,8.6-6.7,12.9-15.7,14.4A110.21,110.21,0,0,1,794.6,339.5Zm-21.5-41H746.9c-1.5,0-2,.4-2,2q.15,11.25,0,22.5c0,1.8.5,2.2,2.2,2.2,13.6-.1,27.1,0,40.7,0,3.8,0,7.6,0,11.4-.1,4.1-.1,6.3-2.2,7-6.2a44.29,44.29,0,0,0,.2-11.5c-.7-7.3-2.4-8.7-9.9-8.7C788.7,298.5,780.9,298.5,773.1,298.5Z"/><path class="cls-3" d="M624.1,324.3V283.4c0-1.6.3-2.2,2.1-2.2q39.45.15,79,0c1.8,0,2.2.5,2.1,2.2-.1,4.2-.2,8.4,0,12.6.1,2.2-.7,2.5-2.7,2.5-20.2-.1-40.4,0-60.6,0-3.4,0-3-.4-3,2.9,0,4.6.1,9.2,0,13.8,0,1.7.5,2,2.1,2h59.5c2.8,0,2.8,0,2.8,2.8,0,3-.1,6.1,0,9.1.1,1.8-.5,2.2-2.2,2.2-19.8-.1-39.6,0-59.3,0-2.9,0-2.9,0-2.9,3,0,4.8.1,9.5,0,14.3,0,1.7.5,2.2,2.2,2.2,20.5-.1,41.1,0,61.6-.1,2,0,2.6.5,2.5,2.5-.2,4.1-.1,8.3,0,12.4,0,1.7-.4,2.2-2.1,2.2-11.3-.1-22.6,0-33.9,0H626.9c-3.1,0-2.7.4-2.7-2.6C624.1,351.4,624.1,337.9,624.1,324.3Z"/><path class="cls-3" d="M279.6,324.3V283.4c0-1.6.3-2.2,2.1-2.2q39.45.15,79,0c1.8,0,2.2.5,2.1,2.2q-.15,6.3,0,12.6c.1,2-.4,2.5-2.5,2.5-20.3-.1-40.7-.1-61,0-3.1,0-2.7-.3-2.8,2.7,0,4.6.1,9.2-.1,13.8-.1,1.9.6,2.2,2.3,2.2,19.8-.1,39.7,0,59.5-.1,2.1,0,2.7.6,2.6,2.7-.2,3.1-.1,6.2,0,9.3.1,1.8-.5,2.2-2.2,2.1-19.8-.1-39.7,0-59.5,0-3.1,0-2.7-.4-2.7,2.6,0,4.9.1,9.8,0,14.7,0,1.7.5,2.2,2.2,2.2,20.5-.1,41.1,0,61.6-.1,2,0,2.5.5,2.5,2.5-.2,4.1-.1,8.3,0,12.4.1,1.7-.4,2.2-2.1,2.2-12.1-.1-24.3,0-36.4,0H282c-1.9,0-2.5-.4-2.5-2.4C279.7,351.6,279.6,337.9,279.6,324.3Z"/><path class="cls-4" d="M783,130.7c5.2,5.7,10.6,11.5,16.3,17.4,7.1-.2,14-.3,20.7-.5.2-5.2.4-10.6.5-16.2C808.7,131.3,796.1,131,783,130.7Z"/><path class="cls-4" d="M826.9,131.7c-.1,5.3-.3,10.6-.4,15.8,81.5-2.1,131.4-4.8,131.4-7.9S908.2,133.8,826.9,131.7Z"/><path class="cls-4" d="M188.1,148.6C80.6,146.5,30,143.3,30,139.7s54.7-7.1,165.4-9.2Z"/><path class="cls-4" d="M374,139.3l-.1-10.8c-59.5.3-123.9,1-172.2,1.9l-6.1,18.4c49.6,1,140.8.9,178.4,1.2Z"/><path class="cls-4" d="M435.3,129.8c0,.8,4.3,9.1,12.6,21.2h40.8c99.7,0,204.6-1.4,280.2-2.7l-15.5-17.5c-72.1-1.1-172.6-2.6-264.7-2.6-17.6,0-34.8,0-51.7.1C436.1,128.6,435.3,129.1,435.3,129.8Z"/><path class="cls-5" d="M179.9,257.2h-5.4l-2.1-6.2h-10l-2,6.2H155l9.6-27.6h5.3Zm-9.2-10.9-3.4-10.2-3.4,10.2Z"/><path class="cls-5" d="M182.6,237.2H187v2.7c1.6-2.1,3.4-3.2,5.6-3.2a5.57,5.57,0,0,1,3,.8,6.28,6.28,0,0,1,2.1,2.4,7.33,7.33,0,0,1,2.6-2.4,6,6,0,0,1,2.9-.8,6.16,6.16,0,0,1,3.4.9,6.07,6.07,0,0,1,2.1,2.6,13.25,13.25,0,0,1,.5,4.1v12.8h-4.8V245.6a9.24,9.24,0,0,0-.5-3.8,2,2,0,0,0-2-1.1,2.81,2.81,0,0,0-1.9.7,4.12,4.12,0,0,0-1.3,2,14.37,14.37,0,0,0-.4,4.1v9.6h-4.8v-11a14.56,14.56,0,0,0-.3-3.8,2.42,2.42,0,0,0-.8-1.3,2.24,2.24,0,0,0-1.5-.4,3.06,3.06,0,0,0-2,.7,3.81,3.81,0,0,0-1.3,1.9,13.51,13.51,0,0,0-.4,4.1V257h-4.8V237.2Z"/><path class="cls-5" d="M224.5,250.9l4.8.9a8.75,8.75,0,0,1-2.9,4.4,8,8,0,0,1-5,1.5c-3.1,0-5.4-1.1-6.9-3.4a14.26,14.26,0,0,1,.5-14.7,7.29,7.29,0,0,1,5.9-2.8,7.42,7.42,0,0,1,6.3,3c1.5,2,2.3,5,2.2,9.1H217.5a5.31,5.31,0,0,0,1.2,3.7,3.23,3.23,0,0,0,2.7,1.3,2.64,2.64,0,0,0,1.9-.7A5,5,0,0,0,224.5,250.9Zm.3-5.4a5.52,5.52,0,0,0-1.1-3.6,3.23,3.23,0,0,0-5.1.1,5.4,5.4,0,0,0-1,3.5Z"/><path class="cls-5" d="M238.3,257.2h-4.8v-20h4.4V240a9.35,9.35,0,0,1,2-2.7,3.77,3.77,0,0,1,2.1-.7,5.2,5.2,0,0,1,3.1,1l-1.5,4.6a3.7,3.7,0,0,0-2.2-.9,2.52,2.52,0,0,0-1.7.6,4.09,4.09,0,0,0-1.1,2.2,32.26,32.26,0,0,0-.4,6.7v6.4Z"/><path class="cls-5" d="M247.6,234.5v-4.9h4.8v4.9Zm0,22.7v-20h4.8v20Z"/><path class="cls-5" d="M273.3,243.1l-4.7.9a3.84,3.84,0,0,0-1.1-2.3,3.29,3.29,0,0,0-2.2-.8,3.37,3.37,0,0,0-2.8,1.4,7.55,7.55,0,0,0-1.1,4.6,9.17,9.17,0,0,0,1.1,5.1,3.39,3.39,0,0,0,2.9,1.5,2.94,2.94,0,0,0,2.2-.9,5.24,5.24,0,0,0,1.2-3l4.7.9a9.32,9.32,0,0,1-2.8,5.4,8.1,8.1,0,0,1-5.5,1.8,7.8,7.8,0,0,1-6.3-2.8c-1.6-1.9-2.3-4.4-2.3-7.7s.8-5.9,2.4-7.7a8.17,8.17,0,0,1,6.4-2.8,7.71,7.71,0,0,1,5.2,1.6A9.22,9.22,0,0,1,273.3,243.1Z"/><path class="cls-5" d="M280.7,243.3l-4.3-.9a7.61,7.61,0,0,1,2.5-4.3,8.6,8.6,0,0,1,5.3-1.4,11,11,0,0,1,4.7.8,5.59,5.59,0,0,1,2.2,2.1,12.57,12.57,0,0,1,.6,4.7l-.1,6.2a32.45,32.45,0,0,0,.2,3.9,12.17,12.17,0,0,0,.9,2.7H288a10.2,10.2,0,0,1-.4-1.5c-.1-.3-.1-.5-.2-.6a9.55,9.55,0,0,1-2.6,2,7.35,7.35,0,0,1-3,.7,5.87,5.87,0,0,1-4.4-1.7,5.65,5.65,0,0,1-1.6-4.2,6,6,0,0,1,.7-3,4.81,4.81,0,0,1,2-2,12.13,12.13,0,0,1,3.8-1.2,25.58,25.58,0,0,0,4.6-1.3v-.5a2.78,2.78,0,0,0-.7-2.2,4,4,0,0,0-2.6-.7,3.17,3.17,0,0,0-2,.6A4.69,4.69,0,0,0,280.7,243.3Zm6.4,4.3a24.93,24.93,0,0,1-2.9.8,8.17,8.17,0,0,0-2.6.9,2.32,2.32,0,0,0-.9,1.9,2.64,2.64,0,0,0,.7,1.9,2.56,2.56,0,0,0,1.9.8,3.58,3.58,0,0,0,2.4-.9,3.41,3.41,0,0,0,1.1-1.8,13.38,13.38,0,0,0,.2-2.6v-1Z"/><path class="cls-5" d="M313.3,257.2h-4.8V247a17.43,17.43,0,0,0-.3-4.2,3.07,3.07,0,0,0-1-1.5,2.35,2.35,0,0,0-1.6-.5,3,3,0,0,0-2.2.8,3.36,3.36,0,0,0-1.3,2,21.13,21.13,0,0,0-.4,4.6v9.1h-4.8v-20h4.4v2.9c1.6-2.3,3.5-3.4,5.9-3.4a6.84,6.84,0,0,1,2.9.6,5.45,5.45,0,0,1,2,1.6,6,6,0,0,1,.9,2.2,16,16,0,0,1,.3,3.6Z"/><path class="cls-5" d="M328.5,257.2V229.6H339a16.4,16.4,0,0,1,5.8.7,6.07,6.07,0,0,1,2.9,2.6,9,9,0,0,1,1.1,4.4,7.17,7.17,0,0,1-6.5,7.7,12.53,12.53,0,0,1,2.7,2.3,28.52,28.52,0,0,1,2.8,4.5l3,5.4h-5.9l-3.6-6c-1.3-2.1-2.2-3.5-2.6-4a3.6,3.6,0,0,0-1.5-1.1,7.65,7.65,0,0,0-2.5-.3h-1v11.5h-5.2Zm5.1-15.9h3.7a19.44,19.44,0,0,0,4.5-.3,2.36,2.36,0,0,0,1.4-1.2,4.65,4.65,0,0,0,.5-2.1,3.51,3.51,0,0,0-.7-2.3,3,3,0,0,0-1.9-1.1,26.67,26.67,0,0,0-3.6-.1h-3.9Z"/><path class="cls-5" d="M364.2,250.9l4.8.9a8.75,8.75,0,0,1-2.9,4.4,8,8,0,0,1-5,1.5c-3.1,0-5.4-1.1-6.9-3.4a14.26,14.26,0,0,1,.5-14.7,7.29,7.29,0,0,1,5.9-2.8,7.42,7.42,0,0,1,6.3,3c1.5,2,2.3,5,2.2,9.1H357.2a5.31,5.31,0,0,0,1.2,3.7,3.23,3.23,0,0,0,2.7,1.3,2.64,2.64,0,0,0,1.9-.7A4.25,4.25,0,0,0,364.2,250.9Zm.4-5.4a5.52,5.52,0,0,0-1.1-3.6,3.23,3.23,0,0,0-5.1.1,5.4,5.4,0,0,0-1,3.5Z"/><path class="cls-5" d="M373,258.5l5.4.7a2.34,2.34,0,0,0,.6,1.5,3.28,3.28,0,0,0,2.1.6,5.3,5.3,0,0,0,2.8-.6,3.45,3.45,0,0,0,1-1.3,7.22,7.22,0,0,0,.2-2.4v-2.9a6.32,6.32,0,0,1-11.1-.2,12.56,12.56,0,0,1-1.7-6.7c0-3.4.7-5.9,2.2-7.7a6.68,6.68,0,0,1,5.4-2.7,6.38,6.38,0,0,1,5.5,3.3v-2.8h4.4v18a22.42,22.42,0,0,1-.5,5.3,5.8,5.8,0,0,1-1.5,2.8,6.35,6.35,0,0,1-2.5,1.6,11.62,11.62,0,0,1-4,.6c-3.1,0-5.2-.6-6.5-1.8a5.62,5.62,0,0,1-1.9-4.4A3.08,3.08,0,0,0,373,258.5Zm4.3-11.7a8.35,8.35,0,0,0,1.1,4.7,3.17,3.17,0,0,0,2.7,1.5,3.65,3.65,0,0,0,2.9-1.5,7.11,7.11,0,0,0,1.2-4.5,8,8,0,0,0-1.1-4.6,3.51,3.51,0,0,0-2.9-1.5,3.34,3.34,0,0,0-2.8,1.5C377.7,243.2,377.3,244.7,377.3,246.8Z"/><path class="cls-5" d="M395,234.5v-4.9h4.8v4.9Zm0,22.7v-20h4.8v20Z"/><path class="cls-5" d="M403.4,251.5l4.8-.8a3.92,3.92,0,0,0,1.2,2.3,4,4,0,0,0,2.6.8,4.65,4.65,0,0,0,2.8-.8,1.82,1.82,0,0,0,.6-1.4,1.69,1.69,0,0,0-.3-1,3,3,0,0,0-1.6-.7c-3.8-.9-6.3-1.8-7.3-2.6a5.41,5.41,0,0,1-2.1-4.5,6,6,0,0,1,1.8-4.4q1.8-1.8,5.7-1.8c2.5,0,4.3.4,5.5,1.3a7.18,7.18,0,0,1,2.5,3.9l-4.5.9a3.27,3.27,0,0,0-1.1-1.8,3.71,3.71,0,0,0-2.3-.6,4.47,4.47,0,0,0-2.7.6,1.17,1.17,0,0,0-.5,1.1,1.39,1.39,0,0,0,.5,1c.4.4,1.9.9,4.4,1.5a11.39,11.39,0,0,1,5.3,2.4,5.2,5.2,0,0,1,1.5,4,6.61,6.61,0,0,1-2.1,4.8,8.61,8.61,0,0,1-6.1,2,9.1,9.1,0,0,1-5.8-1.7A7.16,7.16,0,0,1,403.4,251.5Z"/><path class="cls-5" d="M432.9,237.2v4.2h-3.2v8.1a17.25,17.25,0,0,0,.1,2.9,1.61,1.61,0,0,0,.4.7,1.14,1.14,0,0,0,.8.3,6.66,6.66,0,0,0,1.9-.5l.4,4.1a8.74,8.74,0,0,1-3.7.8,5.93,5.93,0,0,1-2.3-.5,3.09,3.09,0,0,1-1.5-1.2,7.32,7.32,0,0,1-.7-2.1,26.21,26.21,0,0,1-.2-3.7v-8.7h-2.2v-4.2h2.2v-4l4.8-3.1v7.1h3.2Z"/><path class="cls-5" d="M441.2,257.2h-4.8v-20h4.4V240a9.35,9.35,0,0,1,2-2.7,3.77,3.77,0,0,1,2.1-.7,5.2,5.2,0,0,1,3.1,1l-1.5,4.6a3.7,3.7,0,0,0-2.2-.9,2.52,2.52,0,0,0-1.7.6,4.09,4.09,0,0,0-1.1,2.2,32.26,32.26,0,0,0-.4,6.7v6.4Z"/><path class="cls-5" d="M448.2,237.2h5.1l4.3,14.2,4.2-14.2h4.9l-6.3,19.3-1.2,3.5a11.76,11.76,0,0,1-1.2,2.7,6.39,6.39,0,0,1-1.3,1.5,5.08,5.08,0,0,1-1.8.9,8.75,8.75,0,0,1-2.4.3,12.41,12.41,0,0,1-2.7-.3l-.4-4.1a7.5,7.5,0,0,0,2,.2,3.1,3.1,0,0,0,2.5-1.1,9.08,9.08,0,0,0,1.2-2.8Z"/><path class="cls-5" d="M478,237.2h2.6v-1.5a11.56,11.56,0,0,1,.5-3.8,3.84,3.84,0,0,1,1.8-2,6.71,6.71,0,0,1,3.3-.8,10.88,10.88,0,0,1,4,.7l-.6,3.7a8.92,8.92,0,0,0-2.2-.3,2.07,2.07,0,0,0-1.5.5,3.58,3.58,0,0,0-.5,2.1v1.4H489v4.2h-3.6v15.8h-4.8V241.4H478Z"/><path class="cls-5" d="M490.8,246.9a11.25,11.25,0,0,1,1.2-5.1,8.81,8.81,0,0,1,3.3-3.8,8.65,8.65,0,0,1,4.8-1.3,8.46,8.46,0,0,1,6.7,3,11.21,11.21,0,0,1,2.6,7.5,11.48,11.48,0,0,1-2.6,7.6,8.6,8.6,0,0,1-6.7,3,9.67,9.67,0,0,1-4.7-1.2,8.16,8.16,0,0,1-3.4-3.7A14,14,0,0,1,490.8,246.9Zm4.9.3a7,7,0,0,0,1.3,4.6,3.88,3.88,0,0,0,3.2,1.6,4,4,0,0,0,3.2-1.6,7,7,0,0,0,1.3-4.6,6.54,6.54,0,0,0-1.3-4.5,4,4,0,0,0-6.4,0A6.54,6.54,0,0,0,495.7,247.2Z"/><path class="cls-5" d="M518.1,257.2h-4.8v-20h4.4V240a9.35,9.35,0,0,1,2-2.7,3.77,3.77,0,0,1,2.1-.7,5.2,5.2,0,0,1,3.1,1l-1.5,4.6a3.7,3.7,0,0,0-2.2-.9,2.52,2.52,0,0,0-1.7.6,4.09,4.09,0,0,0-1.1,2.2,32.26,32.26,0,0,0-.4,6.7v6.4Z"/><path class="cls-5" d="M537.2,257.2V229.6h5v27.6Z"/><path class="cls-5" d="M563.7,257.2H559V247a17.43,17.43,0,0,0-.3-4.2,3.07,3.07,0,0,0-1-1.5,2.35,2.35,0,0,0-1.6-.5,3,3,0,0,0-2.2.8,3.36,3.36,0,0,0-1.3,2,21.13,21.13,0,0,0-.4,4.6v9.1h-4.8v-20h4.4v2.9c1.6-2.3,3.5-3.4,5.9-3.4a6.84,6.84,0,0,1,2.9.6,5.45,5.45,0,0,1,2,1.6,6,6,0,0,1,.9,2.2,16,16,0,0,1,.3,3.6v12.4Z"/><path class="cls-5" d="M577.2,237.2v4.2H574v8.1a17.25,17.25,0,0,0,.1,2.9,1.61,1.61,0,0,0,.4.7,1.14,1.14,0,0,0,.8.3,6.66,6.66,0,0,0,1.9-.5l.4,4.1a8.74,8.74,0,0,1-3.7.8,5.93,5.93,0,0,1-2.3-.5,3.09,3.09,0,0,1-1.5-1.2,7.32,7.32,0,0,1-.7-2.1,26.21,26.21,0,0,1-.2-3.7v-8.7H567v-4.2h2.2v-4l4.8-3.1v7.1h3.2Z"/><path class="cls-5" d="M591.2,250.9l4.8.9a8.75,8.75,0,0,1-2.9,4.4,8,8,0,0,1-5,1.5c-3.1,0-5.4-1.1-6.9-3.4a14.26,14.26,0,0,1,.5-14.7,7.29,7.29,0,0,1,5.9-2.8,7.42,7.42,0,0,1,6.3,3c1.5,2,2.3,5,2.2,9.1H584.2a5.31,5.31,0,0,0,1.2,3.7,3.23,3.23,0,0,0,2.7,1.3,2.64,2.64,0,0,0,1.9-.7A4.25,4.25,0,0,0,591.2,250.9Zm.3-5.4a5.52,5.52,0,0,0-1.1-3.6,3.23,3.23,0,0,0-5.1.1,5.4,5.4,0,0,0-1,3.5Z"/><path class="cls-5" d="M605,257.2h-4.8v-20h4.4V240a9.35,9.35,0,0,1,2-2.7,3.77,3.77,0,0,1,2.1-.7,5.2,5.2,0,0,1,3.1,1l-1.5,4.6a3.7,3.7,0,0,0-2.2-.9,2.52,2.52,0,0,0-1.7.6,4.09,4.09,0,0,0-1.1,2.2,32.26,32.26,0,0,0-.4,6.7v6.4Z"/><path class="cls-5" d="M630.7,257.2h-4.8V247a17.43,17.43,0,0,0-.3-4.2,3.07,3.07,0,0,0-1-1.5,2.35,2.35,0,0,0-1.6-.5,3,3,0,0,0-2.2.8,3.36,3.36,0,0,0-1.3,2,21.13,21.13,0,0,0-.4,4.6v9.1h-4.8v-20h4.4v2.9c1.6-2.3,3.5-3.4,5.9-3.4a6.84,6.84,0,0,1,2.9.6,5.45,5.45,0,0,1,2,1.6,6,6,0,0,1,.9,2.2,16,16,0,0,1,.3,3.6v12.4Z"/><path class="cls-5" d="M646.3,250.9l4.8.9a8.75,8.75,0,0,1-2.9,4.4,8,8,0,0,1-5,1.5c-3.1,0-5.4-1.1-6.9-3.4a14.26,14.26,0,0,1,.5-14.7,7.29,7.29,0,0,1,5.9-2.8,7.42,7.42,0,0,1,6.3,3c1.5,2,2.3,5,2.2,9.1H639.3a5.31,5.31,0,0,0,1.2,3.7,3.23,3.23,0,0,0,2.7,1.3,2.64,2.64,0,0,0,1.9-.7A6.22,6.22,0,0,0,646.3,250.9Zm.3-5.4a5.52,5.52,0,0,0-1.1-3.6,3.23,3.23,0,0,0-5.1.1,5.4,5.4,0,0,0-1,3.5Z"/><path class="cls-5" d="M663.8,237.2v4.2h-3.2v8.1a17.25,17.25,0,0,0,.1,2.9,1.61,1.61,0,0,0,.4.7,1.14,1.14,0,0,0,.8.3,6.66,6.66,0,0,0,1.9-.5l.4,4.1a8.74,8.74,0,0,1-3.7.8,5.93,5.93,0,0,1-2.3-.5,3.09,3.09,0,0,1-1.5-1.2,7.32,7.32,0,0,1-.7-2.1,26.21,26.21,0,0,1-.2-3.7v-8.7h-2.2v-4.2h2.2v-4l4.8-3.1v7.1h3.2Z"/><path class="cls-5" d="M677.5,257.2V229.6h4.9L692.6,248V229.6h4.7v27.6h-5l-10.1-18.1v18.1Z"/><path class="cls-5" d="M714.7,257.2v-3a7.1,7.1,0,0,1-6,3.4,6.29,6.29,0,0,1-3.3-.9,4.7,4.7,0,0,1-2.1-2.5,12.62,12.62,0,0,1-.7-4.4V237.1h4.8v9.2a25.74,25.74,0,0,0,.3,5.2,3.07,3.07,0,0,0,1,1.5,2.79,2.79,0,0,0,1.8.6,3.6,3.6,0,0,0,2.2-.7,3.24,3.24,0,0,0,1.3-1.8,24.62,24.62,0,0,0,.4-5.4v-8.4h4.8v20h-4.5Z"/><path class="cls-5" d="M724,237.2h4.4v2.7c1.6-2.1,3.4-3.2,5.6-3.2a5.57,5.57,0,0,1,3,.8,6.28,6.28,0,0,1,2.1,2.4,7.33,7.33,0,0,1,2.6-2.4,6.34,6.34,0,0,1,2.9-.8,6.16,6.16,0,0,1,3.4.9,6.07,6.07,0,0,1,2.1,2.6,13.25,13.25,0,0,1,.5,4.1v12.8h-4.8V245.6a9.24,9.24,0,0,0-.5-3.8,2,2,0,0,0-2-1.1,2.81,2.81,0,0,0-1.9.7,4.12,4.12,0,0,0-1.3,2,14.37,14.37,0,0,0-.4,4.1v9.6h-4.8v-11a14.56,14.56,0,0,0-.3-3.8,2.42,2.42,0,0,0-.8-1.3,2.24,2.24,0,0,0-1.5-.4,3.06,3.06,0,0,0-2,.7,3.81,3.81,0,0,0-1.3,1.9,13.51,13.51,0,0,0-.4,4.1V257H724Z"/><path class="cls-5" d="M755.4,257.2V229.6h4.8v9.9a6.43,6.43,0,0,1,5.2-2.8,6.54,6.54,0,0,1,5.4,2.7A12.06,12.06,0,0,1,773,247c0,3.4-.7,6.1-2.2,7.9a6.74,6.74,0,0,1-5.3,2.8,6.41,6.41,0,0,1-3.1-.9,7.19,7.19,0,0,1-2.6-2.6v2.9h-4.4Zm4.7-10.4a9.09,9.09,0,0,0,.9,4.6,3.67,3.67,0,0,0,3.3,2.1A3.17,3.17,0,0,0,767,252a8.49,8.49,0,0,0,1.1-4.8,9,9,0,0,0-1.1-5,3.39,3.39,0,0,0-2.9-1.5,3.65,3.65,0,0,0-2.9,1.5A8,8,0,0,0,760.1,246.8Z"/><path class="cls-5" d="M787.5,250.9l4.8.9a8.75,8.75,0,0,1-2.9,4.4,8,8,0,0,1-5,1.5c-3.1,0-5.4-1.1-6.9-3.4a14.26,14.26,0,0,1,.5-14.7,7.29,7.29,0,0,1,5.9-2.8,7.42,7.42,0,0,1,6.3,3c1.5,2,2.3,5,2.2,9.1H780.5a5.31,5.31,0,0,0,1.2,3.7,3.23,3.23,0,0,0,2.7,1.3,2.64,2.64,0,0,0,1.9-.7A4.25,4.25,0,0,0,787.5,250.9Zm.3-5.4a5.52,5.52,0,0,0-1.1-3.6,3.23,3.23,0,0,0-5.1.1,5.4,5.4,0,0,0-1,3.5Z"/><path class="cls-5" d="M801.4,257.2h-4.8v-20H801V240a9.35,9.35,0,0,1,2-2.7,3.77,3.77,0,0,1,2.1-.7,5.2,5.2,0,0,1,3.1,1l-1.5,4.6a3.7,3.7,0,0,0-2.2-.9,2.52,2.52,0,0,0-1.7.6,4.09,4.09,0,0,0-1.1,2.2,32.26,32.26,0,0,0-.4,6.7v6.4Z"/><path class="cls-5" d="M809,251.5l4.8-.8A3.92,3.92,0,0,0,815,253a4,4,0,0,0,2.6.8,4.65,4.65,0,0,0,2.8-.8,1.82,1.82,0,0,0,.6-1.4,1.69,1.69,0,0,0-.3-1,3,3,0,0,0-1.6-.7c-3.8-.9-6.3-1.8-7.3-2.6a5.41,5.41,0,0,1-2.1-4.5,6,6,0,0,1,1.8-4.4q1.8-1.8,5.7-1.8c2.5,0,4.3.4,5.5,1.3a7.18,7.18,0,0,1,2.5,3.9l-4.5.9a3.27,3.27,0,0,0-1.1-1.8,3.71,3.71,0,0,0-2.3-.6,4.47,4.47,0,0,0-2.7.6,1.17,1.17,0,0,0-.5,1.1,1.39,1.39,0,0,0,.5,1c.4.4,1.9.9,4.4,1.5a11.39,11.39,0,0,1,5.3,2.4,5.2,5.2,0,0,1,1.5,4,6.61,6.61,0,0,1-2.1,4.8,8.61,8.61,0,0,1-6.1,2,9.1,9.1,0,0,1-5.8-1.7A7.16,7.16,0,0,1,809,251.5Z"/><path class="cls-5" d="M194.2,196.8c-11.4,0-11.4-5-11.4-7.9,0-3.7,2.8-13.8,12-37.8a13.82,13.82,0,0,1,1.1-2.4h-.3l6.1-18.4h.2c5.1-16,19.2-55,20.4-55h.4l19.6,54.3,22.8-.3c-14.7-38.6-29.7-79.4-30.6-81.8-1.1-2.6-1.7-2.6-3.7-2.6-2.6,0-3.5,0-4.2,2-21.2,52.9-38,100-51.3,138.7-2.8,8.5-7,11.1-11.1,11.1-5.9,0-8.1,1.1-8.1,2.8,0,2.6.4,3.7,1.5,3.7,1.7,0,3.9-.4,17.3-.4,26,0,28.8.4,30.6.4,2.2,0,2.6-.9,2.6-3.5C208.1,197.7,207.3,196.8,194.2,196.8Z"/><path class="cls-5" d="M304.5,196.8c-8.5,0-13.1-2.4-16.6-10.5-3.9-8.8-9.1-21.8-14.8-36.4l-23.1-.3c4.6,11.6,15.4,37.6,15.4,42.3,0,3.7-2.8,4.8-11.6,4.8-4.4,0-9.2.4-9.2,2.6s.2,3.9,1.1,3.9c1.5,0,3.1-.4,32.5-.4,26.4,0,28.2.4,30.4.4,2,0,2.4-2.6,2.4-4.1S306.4,196.8,304.5,196.8Z"/><path class="cls-5" d="M395.5,127.1V69.3c0-14.4,3.1-15.5,16.4-15.5,25.1,0,37.3,16.2,37.3,36.3,0,19.9-9.6,37.1-35.8,37.1H395.5Zm-22.2,60.1c-.2,5.9-1.5,9.6-15.5,9.6-6.1,0-6.1,1.3-6.1,3.7,0,2,0,2.8,1.7,2.8,1.5,0,2.4-.4,31.2-.4,32.3,0,33.2.4,34.7.4,1.7,0,1.7-.9,1.7-2.8,0-2.4,0-3.7-6.1-3.7-17.3,0-18.6-3.7-18.8-9.6-.4-10.9-.7-53.5-.7-53.5,9-.2,14-.2,22.9,8.7,7.9,7.9,22.3,35.6,40.4,59.2,1.3,1.7,2,1.7,3.9,1.7,1.1,0,2.2-.4,15.5-.4,15.9,0,16.8.4,17.9.4,2,0,2.6-.9,2.6-3.3,0-1.3,0-2.6-1.5-2.6-13.1-.2-15.1-2.8-30.8-21.8-20.3-24.5-31.2-44.6-31.2-45.9,0-.9,1.3-1.3,2.4-1.7,24-9.6,35.2-19.9,35.2-40.9,0-31.5-31-40-56.4-40-12.9,0-26.2.9-31.9.9-13.8,0-29.5-.9-31.2-.9-1.5,0-2,1.5-2,2.8,0,2,0,3.7,2.4,3.7,15.7,0,19.4,1.7,19.7,14.6C373.7,78.4,373.7,176.3,373.3,187.2Z"/><path class="cls-5" d="M546.9,53.8c19,0,22.7,1.7,22.9,14.6.2,10.1.4,60,.4,60,7.3,0,14.5.1,21.6.1,0,0,.2-50.1.4-60.1.2-12.9,3.9-14.6,22.9-14.6,2.4,0,2.4-1.7,2.4-3.7,0-1.3-.4-2.8-2-2.8s-20.8.9-34.7.9-32.8-.9-34.5-.9c-1.5,0-2,1.5-2,2.8C544.5,52,544.5,53.8,546.9,53.8Z"/><path class="cls-5" d="M611.4,196.8c-17.3,0-18.6-3.7-18.8-9.6-.4-10.9-.7-25.1-.7-34.5v-2c-7.1,0-14.4.1-21.6.1v1.9c0,9.4-.2,23.6-.7,34.5-.2,5.9-1.5,9.6-18.8,9.6-6.1,0-6.1,1.3-6.1,3.7,0,2,0,2.8,1.8,2.8,1.5,0,2.4-.4,34.5-.4,32.3,0,33.2.4,34.7.4,1.7,0,1.7-.9,1.7-2.8C617.5,198.1,617.5,196.8,611.4,196.8Z"/><path class="cls-5" d="M718.2,196.8c-12,0-17-3.5-17-10.7,0-3.6-.6-16.1-.8-36.7-2.4,0-4.7.1-7.2.1-.7,21.8-1.5,35.4-1.6,37.6-.9,8.5-9.6,9.6-14.9,9.6-2.6,0-9.8.4-9.8,2.4,0,2.6,0,4.1,2.2,4.1,1.5,0,3.5-.4,28.2-.4,26.9,0,28.2.4,29.9.4s2.2-.7,2.2-3.3C729.3,197.9,729.3,196.8,718.2,196.8Z"/><path class="cls-5" d="M853.8,47.2c-1.3,0-23.8.9-28.6.9-6.1,0-28.2-.9-31.7-.9-1.7,0-2.4,1.3-2.4,3.5,0,1.8.4,3.1,2.8,3.1,19,0,27.3,1.3,27.3,34.7,0,21.4-1.1,60.1-2.2,80.4-48.9-50.2-83.4-91.5-109-120.4-.7-.7-1.1-1.3-1.7-1.3-3.5,0-16.2.9-19.4.9-3.9,0-19.4-.9-20.7-.9-1.8,0-2.4.4-2.4,3.1,0,2.2,0,3.5,2,3.5h8.1c4.6,0,16.4,11.4,17.9,15.3.4,1.1.4,5.5.4,9.4,0,19.1-.2,36.7-.6,51.4,2.2,0,4.5.2,6.7.2,0-18.4.4-37.4.6-55.8C801.8,182.8,820.2,206,822.2,206c2.2,0,3.3-.2,3.3-3.1,0-20.8,2.6-123.4,3.9-131.1,2.8-15.9,6.6-18.1,24.3-18.1,1.1,0,2-.7,2-3.7C855.6,48.7,855.2,47.2,853.8,47.2Z"/></svg>