<?xml version="1.0" encoding="utf-8"?>
<!-- Generator: Adobe Illustrator 24.0.0, SVG Export Plug-In . SVG Version: 6.00 Build 0)  -->
<svg version="1.1" id="Layer_1" xmlns="http://www.w3.org/2000/svg" xmlns:xlink="http://www.w3.org/1999/xlink" x="0px" y="0px"
	 viewBox="0 0 1000 418.1" style="enable-background:new 0 0 1000 418.1;" xml:space="preserve">
<style type="text/css">
	.st0{fill:#FEFEFE;}
	.st1{fill:#1AABCE;}
	.st2{fill:#009AC7;}
	.st3{fill:#231F20;}
</style>
<g>
	<path class="st0" d="M434.8,350c-0.5-1.1-0.9-1.9-1.3-2.7c-10-21.4-20.1-42.9-30.1-64.3c-0.7-1.4-1.4-1.9-2.9-1.9
		c-5,0.1-9.9,0.1-14.9,0c-1.3,0-1.8,0.3-1.8,1.7c0,27.7,0,55.4,0,83.1c0,1.4,0.5,1.7,1.8,1.7c3.9-0.1,7.7-0.1,11.6,0
		c1.9,0.1,2.4-0.5,2.4-2.4c-0.1-17,0-34,0-51.1c0-0.7-0.2-1.4,0.3-2.2c0.2,0.3,0.3,0.4,0.3,0.5c8.6,17.7,17.1,35.4,25.6,53.2
		c0.6,1.3,1.3,1.9,2.9,1.9c4-0.1,8-0.1,12,0c1.5,0,2.2-0.5,2.8-1.8c6.2-13,12.5-25.9,18.8-38.8c2.4-5,4.8-10,7.3-14.9
		c0.1,0,0.3,0.1,0.4,0.1c0,0.7,0,1.4,0,2.1c0,17.1,0,34.2,0,51.3c0,1.6,0.4,2.1,2,2.1c3.9-0.1,7.9-0.1,11.8,0c1.4,0,1.9-0.3,1.9-1.8
		c0-27.6,0-55.3,0-82.9c0-1.5-0.6-1.8-1.9-1.8c-5,0.1-9.9,0.1-14.9,0c-1.2,0-1.8,0.4-2.3,1.5c-8,17.1-16,34.1-24,51.2
		C440,339.1,437.5,344.4,434.8,350z"/>
	<path class="st0" d="M207,350c-0.6-1.1-1-1.9-1.3-2.6c-10-21.4-20.1-42.9-30.1-64.3c-0.7-1.5-1.5-2-3.1-1.9
		c-4.8,0.1-9.6,0.1-14.5,0c-1.6,0-2.1,0.4-2.1,2c0.1,10.3,0,20.5,0,30.8c0,17.2,0,34.4,0,51.7c0,1.5,0.3,2,1.9,2
		c3.9-0.1,7.7-0.2,11.6,0c1.9,0.1,2.2-0.6,2.2-2.3c-0.1-17,0-34,0-51.1c0-0.7,0.1-1.4,0.1-2.5c0.4,0.6,0.5,0.9,0.6,1.1
		c8.6,17.7,17.1,35.4,25.6,53.2c0.6,1.2,1.2,1.6,2.5,1.6c4.1-0.1,8.3-0.1,12.4,0c1.4,0,2.1-0.5,2.6-1.7
		c7.4-15.4,14.8-30.7,22.3-46.1c1.3-2.6,2.6-5.2,3.8-7.8c0.1,0,0.2,0.1,0.3,0.1c0,0.8,0,1.5,0,2.3c0,17,0,34,0,51.1
		c0,1.2-0.1,2.2,1.7,2.1c4.1-0.1,8.3-0.1,12.4,0c1.4,0,1.6-0.6,1.6-1.7c0-27.7,0-55.4,0-83.1c0-1.3-0.4-1.7-1.6-1.6
		c-5.1,0.1-10.2,0.1-15.3,0c-1.2,0-1.7,0.4-2.1,1.4c-5.9,12.6-11.8,25.2-17.7,37.7C216.3,330.1,211.7,339.9,207,350z"/>
	<path class="st0" d="M624.1,324.3c0,13.6,0,27.1,0,40.7c0,3-0.4,2.6,2.7,2.6c14.8,0,29.6,0,44.4,0c11.3,0,22.6,0,33.9,0
		c1.8,0,2.2-0.5,2.1-2.2c-0.1-4.1-0.2-8.3,0-12.4c0.1-2-0.4-2.5-2.5-2.5c-20.5,0.1-41.1,0-61.6,0.1c-1.7,0-2.2-0.4-2.2-2.2
		c0.1-4.8,0-9.5,0-14.3c0-3,0-3,2.9-3c19.8,0,39.6,0,59.3,0c1.7,0,2.3-0.4,2.2-2.2c-0.1-3,0-6.1,0-9.1c0-2.8,0-2.8-2.8-2.8
		c-19.8,0-39.7,0-59.5,0c-1.6,0-2.1-0.3-2.1-2c0.1-4.6,0-9.2,0-13.8c0-3.4-0.5-2.9,3-2.9c20.2,0,40.4,0,60.6,0c2,0,2.8-0.3,2.7-2.5
		c-0.2-4.2-0.1-8.4,0-12.6c0-1.7-0.4-2.2-2.1-2.2c-26.3,0.1-52.6,0.1-79,0c-1.8,0-2.1,0.6-2.1,2.2
		C624.1,297,624.1,310.7,624.1,324.3z"/>
	<path class="st0" d="M279.6,324.3c0,13.6,0.1,27.3-0.1,40.9c0,2.1,0.6,2.4,2.5,2.4c14.1-0.1,28.1,0,42.2,0c12.1,0,24.3,0,36.4,0
		c1.8,0,2.2-0.5,2.1-2.2c-0.1-4.1-0.2-8.3,0-12.4c0.1-2-0.4-2.5-2.5-2.5c-20.5,0.1-41.1,0-61.6,0.1c-1.7,0-2.2-0.4-2.2-2.2
		c0.1-4.9,0-9.8,0-14.7c0-3-0.4-2.6,2.7-2.6c19.8,0,39.7,0,59.5,0c1.7,0,2.3-0.4,2.2-2.1c-0.1-3.1-0.2-6.2,0-9.3
		c0.1-2.1-0.5-2.7-2.6-2.7c-19.8,0.1-39.7,0-59.5,0.1c-1.7,0-2.4-0.3-2.3-2.2c0.2-4.6,0-9.2,0.1-13.8c0-3.1-0.4-2.7,2.8-2.7
		c20.3,0,40.7,0,61,0c2,0,2.5-0.6,2.5-2.5c-0.2-4.2-0.1-8.4,0-12.6c0-1.7-0.4-2.2-2.1-2.2c-26.3,0.1-52.6,0.1-79,0
		c-1.8,0-2.1,0.6-2.1,2.2C279.7,297,279.6,310.6,279.6,324.3z"/>
	<path class="st1" d="M591,322.7c0.6,0.3,0.8,0.4,1.1,0.5c6.9,1.7,10.6,6.3,11.2,13.1c0.4,5.3,0.5,10.7-0.5,16.1
		c-1.4,8.2-6.5,12.8-14.5,14.3c-3,0.6-6,0.9-9,0.9c-23,0-46,0-69,0c-1.7,0-2.3-0.2-2.3-2.2c0.1-27.3,0.1-54.7,0-82
		c0-1.9,0.5-2.2,2.3-2.2c23,0.1,46,0,69,0c3.2,0,6.4,0.4,9.6,1.1c6.5,1.5,10.4,5.5,11.8,12c1.2,5.7,1,11.5,0.6,17.3
		C600.8,317.5,597.3,321.3,591,322.7z M552.8,330.8c-8.7,0-17.4,0-26,0c-1.6,0-2,0.4-1.9,2c0.1,5.2,0.1,10.5,0,15.7
		c-0.1,1.9,0.6,2.2,2.3,2.2c16.5-0.1,32.9,0,49.4,0c1.5,0,3-0.1,4.5-0.4c2.9-0.5,4.4-2,5.1-4.9c0.4-1.6,0.3-3.1,0.3-4.7
		c0-7.9-1.9-9.8-9.7-9.8C568.8,330.8,560.8,330.8,552.8,330.8z M552.3,316.9c1.8,0,3.6,0,5.4,0c7,0,13.9,0,20.9-0.1
		c3.3-0.1,4.9-1.5,5.6-4.7c0.5-2.3,0.3-4.7,0.3-7c-0.1-4.8-1.9-6.6-6.7-6.6c-17,0-34,0-51,0c-1.4,0-1.9,0.3-1.9,1.8
		c0.1,4.9,0.1,9.8,0,14.7c0,1.7,0.6,2,2.1,2C535.4,316.8,543.9,316.9,552.3,316.9z"/>
	<path class="st1" d="M434.8,350c2.7-5.6,5.2-10.9,7.6-16.2c8-17.1,16-34.1,24-51.2c0.5-1.1,1.1-1.5,2.3-1.5c5,0.1,9.9,0.1,14.9,0
		c1.4,0,1.9,0.2,1.9,1.8c0,27.6,0,55.3,0,82.9c0,1.5-0.5,1.8-1.9,1.8c-3.9-0.1-7.9-0.1-11.8,0c-1.7,0.1-2-0.5-2-2.1
		c0.1-17.1,0-34.2,0-51.3c0-0.7,0-1.4,0-2.1c-0.1,0-0.3-0.1-0.4-0.1c-2.4,5-4.8,10-7.3,14.9c-6.3,12.9-12.6,25.9-18.8,38.8
		c-0.6,1.3-1.3,1.8-2.8,1.8c-4-0.1-8-0.1-12,0c-1.6,0.1-2.3-0.5-2.9-1.9c-8.5-17.7-17.1-35.5-25.6-53.2c-0.1-0.1-0.1-0.2-0.3-0.5
		c-0.4,0.8-0.3,1.5-0.3,2.2c0,17,0,34,0,51.1c0,1.9-0.5,2.5-2.4,2.4c-3.9-0.2-7.7-0.1-11.6,0c-1.3,0-1.8-0.3-1.8-1.7
		c0-27.7,0-55.4,0-83.1c0-1.4,0.5-1.7,1.8-1.7c5,0.1,9.9,0.1,14.9,0c1.5,0,2.3,0.5,2.9,1.9c10,21.5,20,42.9,30.1,64.3
		C433.9,348.1,434.3,348.9,434.8,350z"/>
	<path class="st1" d="M207,350c4.8-10.1,9.4-19.9,13.9-29.7c5.9-12.6,11.8-25.1,17.7-37.7c0.5-1,1-1.4,2.1-1.4
		c5.1,0.1,10.2,0.1,15.3,0c1.3,0,1.6,0.4,1.6,1.6c0,27.7,0,55.4,0,83.1c0,1.2-0.2,1.7-1.6,1.7c-4.1-0.1-8.3-0.1-12.4,0
		c-1.9,0.1-1.7-0.9-1.7-2.1c0-17,0-34,0-51.1c0-0.8,0-1.5,0-2.3c-0.1,0-0.2-0.1-0.3-0.1c-1.3,2.6-2.6,5.2-3.8,7.8
		c-7.4,15.4-14.9,30.7-22.3,46.1c-0.6,1.2-1.2,1.8-2.6,1.7c-4.1-0.1-8.3-0.1-12.4,0c-1.3,0-1.9-0.4-2.5-1.6
		c-8.5-17.7-17.1-35.5-25.6-53.2c-0.1-0.2-0.3-0.5-0.6-1.1c0,1.1-0.1,1.8-0.1,2.5c0,17,0,34,0,51.1c0,1.8-0.3,2.4-2.2,2.3
		c-3.9-0.2-7.7-0.1-11.6,0c-1.6,0.1-1.9-0.5-1.9-2c0.1-17.2,0-34.4,0-51.7c0-10.3,0-20.5,0-30.8c0-1.7,0.5-2.1,2.1-2
		c4.8,0.1,9.6,0.1,14.5,0c1.6,0,2.4,0.4,3.1,1.9c10,21.5,20,42.9,30.1,64.3C206,348.1,206.4,348.9,207,350z"/>
	<path class="st1" d="M794.6,339.5c10.4,9.2,20.7,18.5,31.1,27.7c-0.4,0.7-1,0.4-1.5,0.4c-6.8,0-13.6,0-20.5,0c-1.2,0-2-0.4-2.9-1.2
		c-9.1-8.6-18.2-17.2-27.3-25.8c-0.9-0.9-1.9-1.2-3.1-1.2c-7.8,0-15.6,0.1-23.4,0c-1.7,0-2.2,0.4-2.2,2.1c0.1,7.9,0,15.8,0.1,23.8
		c0,2-0.6,2.4-2.4,2.3c-4.3-0.1-8.7-0.1-13,0c-1.3,0-1.6-0.3-1.6-1.6c0-27.8,0-55.5,0-83.3c0-1.3,0.4-1.6,1.6-1.6
		c24.2,0.1,48.4,0,72.5,0.1c4.2,0,8.3,0.9,12.1,3c4.4,2.5,6.9,6.4,7.9,11.1c2,9.5,2.1,19,0.3,28.5c-1.6,8.6-6.7,12.9-15.7,14.4
		C802.8,338.9,798.8,339.2,794.6,339.5z M773.1,298.5c-8.7,0-17.5,0-26.2,0c-1.5,0-2,0.4-2,2c0.1,7.5,0.1,15,0,22.5
		c0,1.8,0.5,2.2,2.2,2.2c13.6-0.1,27.1,0,40.7,0c3.8,0,7.6,0,11.4-0.1c4.1-0.1,6.3-2.2,7-6.2c0.6-3.8,0.6-7.7,0.2-11.5
		c-0.7-7.3-2.4-8.7-9.9-8.7C788.7,298.5,780.9,298.5,773.1,298.5z"/>
	<path class="st1" d="M624.1,324.3c0-13.6,0-27.3,0-40.9c0-1.6,0.3-2.2,2.1-2.2c26.3,0.1,52.6,0.1,79,0c1.8,0,2.2,0.5,2.1,2.2
		c-0.1,4.2-0.2,8.4,0,12.6c0.1,2.2-0.7,2.5-2.7,2.5c-20.2-0.1-40.4,0-60.6,0c-3.4,0-3-0.4-3,2.9c0,4.6,0.1,9.2,0,13.8
		c0,1.7,0.5,2,2.1,2c19.8,0,39.7,0,59.5,0c2.8,0,2.8,0,2.8,2.8c0,3-0.1,6.1,0,9.1c0.1,1.8-0.5,2.2-2.2,2.2c-19.8-0.1-39.6,0-59.3,0
		c-2.9,0-2.9,0-2.9,3c0,4.8,0.1,9.5,0,14.3c0,1.7,0.5,2.2,2.2,2.2c20.5-0.1,41.1,0,61.6-0.1c2,0,2.6,0.5,2.5,2.5
		c-0.2,4.1-0.1,8.3,0,12.4c0,1.7-0.4,2.2-2.1,2.2c-11.3-0.1-22.6,0-33.9,0c-14.8,0-29.6,0-44.4,0c-3.1,0-2.7,0.4-2.7-2.6
		C624.1,351.4,624.1,337.9,624.1,324.3z"/>
	<path class="st1" d="M279.6,324.3c0-13.6,0-27.3,0-40.9c0-1.6,0.3-2.2,2.1-2.2c26.3,0.1,52.6,0.1,79,0c1.8,0,2.2,0.5,2.1,2.2
		c-0.1,4.2-0.1,8.4,0,12.6c0.1,2-0.4,2.5-2.5,2.5c-20.3-0.1-40.7-0.1-61,0c-3.1,0-2.7-0.3-2.8,2.7c0,4.6,0.1,9.2-0.1,13.8
		c-0.1,1.9,0.6,2.2,2.3,2.2c19.8-0.1,39.7,0,59.5-0.1c2.1,0,2.7,0.6,2.6,2.7c-0.2,3.1-0.1,6.2,0,9.3c0.1,1.8-0.5,2.2-2.2,2.1
		c-19.8-0.1-39.7,0-59.5,0c-3.1,0-2.7-0.4-2.7,2.6c0,4.9,0.1,9.8,0,14.7c0,1.7,0.5,2.2,2.2,2.2c20.5-0.1,41.1,0,61.6-0.1
		c2,0,2.5,0.5,2.5,2.5c-0.2,4.1-0.1,8.3,0,12.4c0.1,1.7-0.4,2.2-2.1,2.2c-12.1-0.1-24.3,0-36.4,0c-14.1,0-28.1,0-42.2,0
		c-1.9,0-2.5-0.4-2.5-2.4C279.7,351.6,279.6,337.9,279.6,324.3z"/>
</g>
<g>
	<g>
		<path class="st2" d="M783,130.7c5.2,5.7,10.6,11.5,16.3,17.4c7.1-0.2,14-0.3,20.7-0.5c0.2-5.2,0.4-10.6,0.5-16.2
			C808.7,131.3,796.1,131,783,130.7z"/>
		<path class="st2" d="M826.9,131.7c-0.1,5.3-0.3,10.6-0.4,15.8c81.5-2.1,131.4-4.8,131.4-7.9S908.2,133.8,826.9,131.7z"/>
	</g>
	<path class="st2" d="M188.1,148.6c-107.5-2.1-158.1-5.3-158.1-8.9c0-3.6,54.7-7.1,165.4-9.2L188.1,148.6z"/>
	<path class="st2" d="M374,139.3l-0.1-10.8c-59.5,0.3-123.9,1-172.2,1.9l-6.1,18.4c49.6,1,140.8,0.9,178.4,1.2V139.3z"/>
	<path class="st2" d="M435.3,129.8c0,0.8,4.3,9.1,12.6,21.2c13.4,0,27,0,40.8,0c99.7,0,204.6-1.4,280.2-2.7l-15.5-17.5
		c-72.1-1.1-172.6-2.6-264.7-2.6c-17.6,0-34.8,0-51.7,0.1C436.1,128.6,435.3,129.1,435.3,129.8z"/>
	<g>
		<g>
			<path class="st3" d="M179.9,257.2h-5.4l-2.1-6.2h-10l-2,6.2H155l9.6-27.6h5.3L179.9,257.2z M170.7,246.3l-3.4-10.2l-3.4,10.2
				H170.7z"/>
			<path class="st3" d="M182.6,237.2h4.4v2.7c1.6-2.1,3.4-3.2,5.6-3.2c1.2,0,2.2,0.3,3,0.8s1.5,1.3,2.1,2.4c0.8-1.1,1.6-1.9,2.6-2.4
				c0.9-0.5,1.9-0.8,2.9-0.8c1.3,0,2.5,0.3,3.4,0.9c0.9,0.6,1.6,1.5,2.1,2.6c0.3,0.9,0.5,2.2,0.5,4.1v12.8h-4.8v-11.5
				c0-2-0.2-3.3-0.5-3.8c-0.4-0.8-1.1-1.1-2-1.1c-0.7,0-1.3,0.2-1.9,0.7c-0.6,0.5-1,1.1-1.3,2c-0.3,0.9-0.4,2.3-0.4,4.1v9.6h-4.8
				v-11c0-2-0.1-3.2-0.3-3.8c-0.2-0.6-0.4-1-0.8-1.3c-0.4-0.3-0.8-0.4-1.5-0.4c-0.7,0-1.4,0.2-2,0.7c-0.6,0.4-1,1.1-1.3,1.9
				c-0.3,0.8-0.4,2.2-0.4,4.1v9.7h-4.8V237.2z"/>
			<path class="st3" d="M224.5,250.9l4.8,0.9c-0.6,1.9-1.6,3.4-2.9,4.4c-1.3,1-3,1.5-5,1.5c-3.1,0-5.4-1.1-6.9-3.4
				c-1.2-1.8-1.8-4.1-1.8-6.9c0-3.3,0.8-5.9,2.3-7.8c1.6-1.9,3.5-2.8,5.9-2.8c2.7,0,4.8,1,6.3,3c1.5,2,2.3,5,2.2,9.1h-11.9
				c0,1.6,0.4,2.8,1.2,3.7c0.7,0.9,1.6,1.3,2.7,1.3c0.7,0,1.4-0.2,1.9-0.7C223.9,252.6,224.2,251.9,224.5,250.9z M224.8,245.5
				c0-1.6-0.4-2.7-1.1-3.6c-0.7-0.8-1.5-1.2-2.5-1.2c-1,0-1.9,0.4-2.6,1.3c-0.7,0.9-1,2-1,3.5H224.8z"/>
			<path class="st3" d="M238.3,257.2h-4.8v-20h4.4v2.8c0.7-1.3,1.4-2.2,2-2.7c0.6-0.4,1.3-0.7,2.1-0.7c1.1,0,2.1,0.3,3.1,1l-1.5,4.6
				c-0.8-0.6-1.5-0.9-2.2-0.9c-0.7,0-1.2,0.2-1.7,0.6c-0.5,0.4-0.8,1.1-1.1,2.2c-0.3,1.1-0.4,3.3-0.4,6.7V257.2z"/>
			<path class="st3" d="M247.6,234.5v-4.9h4.8v4.9H247.6z M247.6,257.2v-20h4.8v20H247.6z"/>
			<path class="st3" d="M273.3,243.1l-4.7,0.9c-0.2-1-0.5-1.8-1.1-2.3c-0.6-0.5-1.3-0.8-2.2-0.8c-1.2,0-2.1,0.5-2.8,1.4
				c-0.7,0.9-1.1,2.4-1.1,4.6c0,2.4,0.4,4.1,1.1,5.1c0.7,1,1.7,1.5,2.9,1.5c0.9,0,1.6-0.3,2.2-0.9c0.6-0.6,1-1.6,1.2-3l4.7,0.9
				c-0.5,2.4-1.4,4.2-2.8,5.4c-1.4,1.2-3.2,1.8-5.5,1.8c-2.6,0-4.7-0.9-6.3-2.8c-1.6-1.9-2.3-4.4-2.3-7.7c0-3.3,0.8-5.9,2.4-7.7
				c1.6-1.8,3.7-2.8,6.4-2.8c2.2,0,3.9,0.5,5.2,1.6C271.8,239.3,272.7,240.9,273.3,243.1z"/>
			<path class="st3" d="M280.7,243.3l-4.3-0.9c0.5-1.9,1.3-3.4,2.5-4.3c1.2-0.9,2.9-1.4,5.3-1.4c2.1,0,3.7,0.3,4.7,0.8
				c1,0.6,1.8,1.3,2.2,2.1c0.4,0.9,0.6,2.4,0.6,4.7l-0.1,6.2c0,1.8,0.1,3.1,0.2,3.9c0.2,0.8,0.4,1.7,0.9,2.7h-4.7
				c-0.1-0.3-0.3-0.9-0.4-1.5c-0.1-0.3-0.1-0.5-0.2-0.6c-0.8,0.9-1.7,1.5-2.6,2c-0.9,0.4-1.9,0.7-3,0.7c-1.9,0-3.3-0.6-4.4-1.7
				c-1.1-1.1-1.6-2.5-1.6-4.2c0-1.1,0.2-2.1,0.7-3c0.5-0.9,1.2-1.6,2-2c0.9-0.5,2.1-0.9,3.8-1.2c2.2-0.5,3.8-0.9,4.6-1.3v-0.5
				c0-1-0.2-1.8-0.7-2.2c-0.5-0.4-1.3-0.7-2.6-0.7c-0.8,0-1.5,0.2-2,0.6C281.4,241.7,281,242.3,280.7,243.3z M287.1,247.6
				c-0.6,0.2-1.5,0.5-2.9,0.8c-1.3,0.3-2.2,0.6-2.6,0.9c-0.6,0.5-0.9,1.1-0.9,1.9c0,0.7,0.2,1.4,0.7,1.9c0.5,0.5,1.1,0.8,1.9,0.8
				c0.9,0,1.7-0.3,2.4-0.9c0.6-0.5,0.9-1.1,1.1-1.8c0.1-0.5,0.2-1.3,0.2-2.6V247.6z"/>
			<path class="st3" d="M313.3,257.2h-4.8V247c0-2.2-0.1-3.6-0.3-4.2c-0.2-0.6-0.5-1.1-1-1.5c-0.5-0.4-1-0.5-1.6-0.5
				c-0.8,0-1.6,0.2-2.2,0.8c-0.7,0.5-1.1,1.2-1.3,2c-0.2,0.8-0.4,2.4-0.4,4.6v9.1h-4.8v-20h4.4v2.9c1.6-2.3,3.5-3.4,5.9-3.4
				c1.1,0,2,0.2,2.9,0.6c0.9,0.4,1.5,1,2,1.6c0.4,0.7,0.8,1.4,0.9,2.2c0.2,0.8,0.3,2,0.3,3.6V257.2z"/>
			<path class="st3" d="M328.5,257.2v-27.6H339c2.7,0,4.6,0.2,5.8,0.7c1.2,0.5,2.2,1.4,2.9,2.6c0.7,1.3,1.1,2.7,1.1,4.4
				c0,2.1-0.5,3.8-1.6,5.1c-1.1,1.4-2.7,2.2-4.9,2.6c1.1,0.7,2,1.5,2.7,2.3c0.7,0.8,1.6,2.3,2.8,4.5l3,5.4h-5.9l-3.6-6
				c-1.3-2.1-2.2-3.5-2.6-4c-0.5-0.6-1-0.9-1.5-1.1c-0.5-0.2-1.4-0.3-2.5-0.3h-1v11.5H328.5z M333.6,241.3h3.7
				c2.4,0,3.9-0.1,4.5-0.3c0.6-0.2,1.1-0.6,1.4-1.2c0.3-0.6,0.5-1.3,0.5-2.1c0-0.9-0.2-1.7-0.7-2.3c-0.4-0.6-1.1-0.9-1.9-1.1
				c-0.4-0.1-1.6-0.1-3.6-0.1h-3.9V241.3z"/>
			<path class="st3" d="M364.2,250.9l4.8,0.9c-0.6,1.9-1.6,3.4-2.9,4.4c-1.3,1-3,1.5-5,1.5c-3.1,0-5.4-1.1-6.9-3.4
				c-1.2-1.8-1.8-4.1-1.8-6.9c0-3.3,0.8-5.9,2.3-7.8c1.6-1.9,3.5-2.8,5.9-2.8c2.7,0,4.8,1,6.3,3c1.5,2,2.3,5,2.2,9.1h-11.9
				c0,1.6,0.4,2.8,1.2,3.7c0.7,0.9,1.6,1.3,2.7,1.3c0.7,0,1.4-0.2,1.9-0.7C363.6,252.6,364,251.9,364.2,250.9z M364.6,245.5
				c0-1.6-0.4-2.7-1.1-3.6c-0.7-0.8-1.5-1.2-2.5-1.2c-1,0-1.9,0.4-2.6,1.3c-0.7,0.9-1,2-1,3.5H364.6z"/>
			<path class="st3" d="M373,258.5l5.4,0.7c0.1,0.7,0.3,1.3,0.6,1.5c0.5,0.4,1.2,0.6,2.1,0.6c1.2,0,2.2-0.2,2.8-0.6
				c0.4-0.3,0.7-0.7,1-1.3c0.2-0.4,0.2-1.3,0.2-2.4l0-2.9c-1.4,2.1-3.2,3.2-5.4,3.2c-2.4,0-4.3-1.1-5.7-3.4c-1.1-1.8-1.7-4-1.7-6.7
				c0-3.4,0.7-5.9,2.2-7.7c1.4-1.8,3.3-2.7,5.4-2.7c2.2,0,4.1,1.1,5.5,3.3v-2.8h4.4v18c0,2.4-0.2,4.1-0.5,5.3
				c-0.3,1.2-0.8,2.1-1.5,2.8c-0.6,0.7-1.5,1.2-2.5,1.6c-1.1,0.4-2.4,0.6-4,0.6c-3.1,0-5.2-0.6-6.5-1.8c-1.3-1.2-1.9-2.6-1.9-4.4
				C373,259,373,258.8,373,258.5z M377.3,246.8c0,2.1,0.4,3.7,1.1,4.7c0.7,1,1.6,1.5,2.7,1.5c1.1,0,2.1-0.5,2.9-1.5
				c0.8-1,1.2-2.5,1.2-4.5c0-2.1-0.4-3.6-1.1-4.6c-0.8-1-1.7-1.5-2.9-1.5c-1.1,0-2.1,0.5-2.8,1.5
				C377.7,243.2,377.3,244.7,377.3,246.8z"/>
			<path class="st3" d="M395,234.5v-4.9h4.8v4.9H395z M395,257.2v-20h4.8v20H395z"/>
			<path class="st3" d="M403.4,251.5l4.8-0.8c0.2,1,0.6,1.8,1.2,2.3c0.6,0.5,1.5,0.8,2.6,0.8c1.2,0,2.1-0.3,2.8-0.8
				c0.4-0.4,0.6-0.8,0.6-1.4c0-0.4-0.1-0.7-0.3-1c-0.2-0.3-0.8-0.5-1.6-0.7c-3.8-0.9-6.3-1.8-7.3-2.6c-1.4-1.1-2.1-2.6-2.1-4.5
				c0-1.7,0.6-3.2,1.8-4.4c1.2-1.2,3.1-1.8,5.7-1.8c2.5,0,4.3,0.4,5.5,1.3c1.2,0.9,2,2.2,2.5,3.9l-4.5,0.9c-0.2-0.8-0.6-1.4-1.1-1.8
				c-0.5-0.4-1.3-0.6-2.3-0.6c-1.3,0-2.2,0.2-2.7,0.6c-0.4,0.3-0.5,0.6-0.5,1.1c0,0.4,0.2,0.7,0.5,1c0.4,0.4,1.9,0.9,4.4,1.5
				c2.5,0.6,4.3,1.4,5.3,2.4c1,0.9,1.5,2.3,1.5,4c0,1.8-0.7,3.4-2.1,4.8c-1.4,1.3-3.4,2-6.1,2c-2.5,0-4.4-0.6-5.8-1.7
				C404.7,254.9,403.8,253.4,403.4,251.5z"/>
			<path class="st3" d="M432.9,237.2v4.2h-3.2v8.1c0,1.6,0,2.6,0.1,2.9c0.1,0.3,0.2,0.5,0.4,0.7c0.2,0.2,0.5,0.3,0.8,0.3
				c0.4,0,1.1-0.2,1.9-0.5l0.4,4.1c-1.1,0.5-2.3,0.8-3.7,0.8c-0.8,0-1.6-0.2-2.3-0.5c-0.7-0.3-1.2-0.7-1.5-1.2
				c-0.3-0.5-0.5-1.2-0.7-2.1c-0.1-0.6-0.2-1.9-0.2-3.7v-8.7h-2.2v-4.2h2.2v-4l4.8-3.1v7.1H432.9z"/>
			<path class="st3" d="M441.2,257.2h-4.8v-20h4.4v2.8c0.7-1.3,1.4-2.2,2-2.7c0.6-0.4,1.3-0.7,2.1-0.7c1.1,0,2.1,0.3,3.1,1l-1.5,4.6
				c-0.8-0.6-1.5-0.9-2.2-0.9c-0.7,0-1.2,0.2-1.7,0.6c-0.5,0.4-0.8,1.1-1.1,2.2c-0.3,1.1-0.4,3.3-0.4,6.7V257.2z"/>
			<path class="st3" d="M448.2,237.2h5.1l4.3,14.2l4.2-14.2h4.9l-6.3,19.3l-1.2,3.5c-0.4,1.2-0.8,2.1-1.2,2.7
				c-0.4,0.6-0.8,1.1-1.3,1.5c-0.5,0.4-1.1,0.7-1.8,0.9c-0.7,0.2-1.5,0.3-2.4,0.3c-0.9,0-1.8-0.1-2.7-0.3l-0.4-4.1
				c0.8,0.2,1.4,0.2,2,0.2c1.1,0,1.9-0.4,2.5-1.1c0.5-0.7,0.9-1.7,1.2-2.8L448.2,237.2z"/>
			<path class="st3" d="M478,237.2h2.6v-1.5c0-1.7,0.2-3,0.5-3.8c0.3-0.8,0.9-1.5,1.8-2c0.9-0.5,2-0.8,3.3-0.8c1.4,0,2.7,0.2,4,0.7
				l-0.6,3.7c-0.8-0.2-1.5-0.3-2.2-0.3c-0.7,0-1.2,0.2-1.5,0.5c-0.3,0.4-0.5,1.1-0.5,2.1v1.4h3.6v4.2h-3.6v15.8h-4.8v-15.8H478
				V237.2z"/>
			<path class="st3" d="M490.8,246.9c0-1.8,0.4-3.5,1.2-5.1c0.8-1.7,1.9-2.9,3.3-3.8c1.4-0.9,3-1.3,4.8-1.3c2.7,0,5,1,6.7,3
				c1.7,2,2.6,4.5,2.6,7.5c0,3-0.9,5.6-2.6,7.6c-1.8,2-4,3-6.7,3c-1.7,0-3.2-0.4-4.7-1.2c-1.5-0.8-2.6-2.1-3.4-3.7
				C491.2,251.2,490.8,249.2,490.8,246.9z M495.7,247.2c0,2,0.4,3.5,1.3,4.6c0.9,1.1,1.9,1.6,3.2,1.6c1.2,0,2.3-0.5,3.2-1.6
				c0.9-1.1,1.3-2.6,1.3-4.6c0-2-0.4-3.5-1.3-4.5c-0.9-1.1-1.9-1.6-3.2-1.6c-1.3,0-2.3,0.5-3.2,1.6
				C496.1,243.7,495.7,245.2,495.7,247.2z"/>
			<path class="st3" d="M518.1,257.2h-4.8v-20h4.4v2.8c0.7-1.3,1.4-2.2,2-2.7c0.6-0.4,1.3-0.7,2.1-0.7c1.1,0,2.1,0.3,3.1,1l-1.5,4.6
				c-0.8-0.6-1.5-0.9-2.2-0.9c-0.7,0-1.2,0.2-1.7,0.6c-0.5,0.4-0.8,1.1-1.1,2.2c-0.3,1.1-0.4,3.3-0.4,6.7V257.2z"/>
			<path class="st3" d="M537.2,257.2v-27.6h5v27.6H537.2z"/>
			<path class="st3" d="M563.7,257.2H559V247c0-2.2-0.1-3.6-0.3-4.2c-0.2-0.6-0.5-1.1-1-1.5c-0.5-0.4-1-0.5-1.6-0.5
				c-0.8,0-1.6,0.2-2.2,0.8c-0.7,0.5-1.1,1.2-1.3,2c-0.2,0.8-0.4,2.4-0.4,4.6v9.1h-4.8v-20h4.4v2.9c1.6-2.3,3.5-3.4,5.9-3.4
				c1.1,0,2,0.2,2.9,0.6c0.9,0.4,1.5,1,2,1.6c0.4,0.7,0.8,1.4,0.9,2.2c0.2,0.8,0.3,2,0.3,3.6V257.2z"/>
			<path class="st3" d="M577.2,237.2v4.2h-3.2v8.1c0,1.6,0,2.6,0.1,2.9c0.1,0.3,0.2,0.5,0.4,0.7c0.2,0.2,0.5,0.3,0.8,0.3
				c0.4,0,1.1-0.2,1.9-0.5l0.4,4.1c-1.1,0.5-2.3,0.8-3.7,0.8c-0.8,0-1.6-0.2-2.3-0.5c-0.7-0.3-1.2-0.7-1.5-1.2
				c-0.3-0.5-0.5-1.2-0.7-2.1c-0.1-0.6-0.2-1.9-0.2-3.7v-8.7H567v-4.2h2.2v-4l4.8-3.1v7.1H577.2z"/>
			<path class="st3" d="M591.2,250.9l4.8,0.9c-0.6,1.9-1.6,3.4-2.9,4.4c-1.3,1-3,1.5-5,1.5c-3.1,0-5.4-1.1-6.9-3.4
				c-1.2-1.8-1.8-4.1-1.8-6.9c0-3.3,0.8-5.9,2.3-7.8c1.6-1.9,3.5-2.8,5.9-2.8c2.7,0,4.8,1,6.3,3c1.5,2,2.3,5,2.2,9.1h-11.9
				c0,1.6,0.4,2.8,1.2,3.7c0.7,0.9,1.6,1.3,2.7,1.3c0.7,0,1.4-0.2,1.9-0.7C590.6,252.6,591,251.9,591.2,250.9z M591.5,245.5
				c0-1.6-0.4-2.7-1.1-3.6c-0.7-0.8-1.5-1.2-2.5-1.2c-1,0-1.9,0.4-2.6,1.3c-0.7,0.9-1,2-1,3.5H591.5z"/>
			<path class="st3" d="M605,257.2h-4.8v-20h4.4v2.8c0.7-1.3,1.4-2.2,2-2.7c0.6-0.4,1.3-0.7,2.1-0.7c1.1,0,2.1,0.3,3.1,1l-1.5,4.6
				c-0.8-0.6-1.5-0.9-2.2-0.9c-0.7,0-1.2,0.2-1.7,0.6c-0.5,0.4-0.8,1.1-1.1,2.2c-0.3,1.1-0.4,3.3-0.4,6.7V257.2z"/>
			<path class="st3" d="M630.7,257.2h-4.8V247c0-2.2-0.1-3.6-0.3-4.2c-0.2-0.6-0.5-1.1-1-1.5c-0.5-0.4-1-0.5-1.6-0.5
				c-0.8,0-1.6,0.2-2.2,0.8c-0.7,0.5-1.1,1.2-1.3,2c-0.2,0.8-0.4,2.4-0.4,4.6v9.1h-4.8v-20h4.4v2.9c1.6-2.3,3.5-3.4,5.9-3.4
				c1.1,0,2,0.2,2.9,0.6c0.9,0.4,1.5,1,2,1.6c0.4,0.7,0.8,1.4,0.9,2.2c0.2,0.8,0.3,2,0.3,3.6V257.2z"/>
			<path class="st3" d="M646.3,250.9l4.8,0.9c-0.6,1.9-1.6,3.4-2.9,4.4c-1.3,1-3,1.5-5,1.5c-3.1,0-5.4-1.1-6.9-3.4
				c-1.2-1.8-1.8-4.1-1.8-6.9c0-3.3,0.8-5.9,2.3-7.8c1.6-1.9,3.5-2.8,5.9-2.8c2.7,0,4.8,1,6.3,3c1.5,2,2.3,5,2.2,9.1h-11.9
				c0,1.6,0.4,2.8,1.2,3.7c0.7,0.9,1.6,1.3,2.7,1.3c0.7,0,1.4-0.2,1.9-0.7C645.6,252.6,646,251.9,646.3,250.9z M646.6,245.5
				c0-1.6-0.4-2.7-1.1-3.6c-0.7-0.8-1.5-1.2-2.5-1.2c-1,0-1.9,0.4-2.6,1.3c-0.7,0.9-1,2-1,3.5H646.6z"/>
			<path class="st3" d="M663.8,237.2v4.2h-3.2v8.1c0,1.6,0,2.6,0.1,2.9c0.1,0.3,0.2,0.5,0.4,0.7c0.2,0.2,0.5,0.3,0.8,0.3
				c0.4,0,1.1-0.2,1.9-0.5l0.4,4.1c-1.1,0.5-2.3,0.8-3.7,0.8c-0.8,0-1.6-0.2-2.3-0.5c-0.7-0.3-1.2-0.7-1.5-1.2
				c-0.3-0.5-0.5-1.2-0.7-2.1c-0.1-0.6-0.2-1.9-0.2-3.7v-8.7h-2.2v-4.2h2.2v-4l4.8-3.1v7.1H663.8z"/>
			<path class="st3" d="M677.5,257.2v-27.6h4.9l10.2,18.4v-18.4h4.7v27.6h-5l-10.1-18.1v18.1H677.5z"/>
			<path class="st3" d="M714.7,257.2v-3c-0.7,1.1-1.5,1.9-2.6,2.5c-1.1,0.6-2.2,0.9-3.4,0.9c-1.2,0-2.3-0.3-3.3-0.9
				c-1-0.6-1.7-1.4-2.1-2.5c-0.4-1.1-0.7-2.5-0.7-4.4v-12.7h4.8v9.2c0,2.8,0.1,4.5,0.3,5.2c0.2,0.6,0.5,1.1,1,1.5
				c0.5,0.4,1.1,0.6,1.8,0.6c0.8,0,1.5-0.2,2.2-0.7c0.7-0.5,1.1-1.1,1.3-1.8c0.2-0.7,0.4-2.5,0.4-5.4v-8.4h4.8v20H714.7z"/>
			<path class="st3" d="M724,237.2h4.4v2.7c1.6-2.1,3.4-3.2,5.6-3.2c1.2,0,2.2,0.3,3,0.8c0.8,0.5,1.5,1.3,2.1,2.4
				c0.8-1.1,1.6-1.9,2.6-2.4s1.9-0.8,2.9-0.8c1.3,0,2.5,0.3,3.4,0.9c0.9,0.6,1.6,1.5,2.1,2.6c0.3,0.9,0.5,2.2,0.5,4.1v12.8h-4.8
				v-11.5c0-2-0.2-3.3-0.5-3.8c-0.4-0.8-1.1-1.1-2-1.1c-0.7,0-1.3,0.2-1.9,0.7c-0.6,0.5-1,1.1-1.3,2c-0.3,0.9-0.4,2.3-0.4,4.1v9.6
				h-4.8v-11c0-2-0.1-3.2-0.3-3.8c-0.2-0.6-0.4-1-0.8-1.3c-0.4-0.3-0.8-0.4-1.5-0.4c-0.7,0-1.4,0.2-2,0.7c-0.6,0.4-1,1.1-1.3,1.9
				c-0.3,0.8-0.4,2.2-0.4,4.1v9.7H724V237.2z"/>
			<path class="st3" d="M755.4,257.2v-27.6h4.8v9.9c1.5-1.9,3.2-2.8,5.2-2.8c2.2,0,4,0.9,5.4,2.7c1.4,1.8,2.2,4.3,2.2,7.6
				c0,3.4-0.7,6.1-2.2,7.9c-1.5,1.8-3.2,2.8-5.3,2.8c-1,0-2-0.3-3.1-0.9c-1-0.6-1.9-1.4-2.6-2.6v2.9H755.4z M760.1,246.8
				c0,2.1,0.3,3.6,0.9,4.6c0.8,1.4,1.9,2.1,3.3,2.1c1.1,0,2-0.5,2.7-1.5c0.7-1,1.1-2.6,1.1-4.8c0-2.3-0.4-4-1.1-5
				c-0.7-1-1.7-1.5-2.9-1.5c-1.1,0-2.1,0.5-2.9,1.5C760.5,243.2,760.1,244.7,760.1,246.8z"/>
			<path class="st3" d="M787.5,250.9l4.8,0.9c-0.6,1.9-1.6,3.4-2.9,4.4c-1.3,1-3,1.5-5,1.5c-3.1,0-5.4-1.1-6.9-3.4
				c-1.2-1.8-1.8-4.1-1.8-6.9c0-3.3,0.8-5.9,2.3-7.8c1.6-1.9,3.5-2.8,5.9-2.8c2.7,0,4.8,1,6.3,3c1.5,2,2.3,5,2.2,9.1h-11.9
				c0,1.6,0.4,2.8,1.2,3.7c0.7,0.9,1.6,1.3,2.7,1.3c0.7,0,1.4-0.2,1.9-0.7C786.9,252.6,787.3,251.9,787.5,250.9z M787.8,245.5
				c0-1.6-0.4-2.7-1.1-3.6c-0.7-0.8-1.5-1.2-2.5-1.2c-1,0-1.9,0.4-2.6,1.3c-0.7,0.9-1,2-1,3.5H787.8z"/>
			<path class="st3" d="M801.4,257.2h-4.8v-20h4.4v2.8c0.7-1.3,1.4-2.2,2-2.7c0.6-0.4,1.3-0.7,2.1-0.7c1.1,0,2.1,0.3,3.1,1l-1.5,4.6
				c-0.8-0.6-1.5-0.9-2.2-0.9c-0.7,0-1.2,0.2-1.7,0.6c-0.5,0.4-0.8,1.1-1.1,2.2c-0.3,1.1-0.4,3.3-0.4,6.7V257.2z"/>
			<path class="st3" d="M809,251.5l4.8-0.8c0.2,1,0.6,1.8,1.2,2.3c0.6,0.5,1.5,0.8,2.6,0.8c1.2,0,2.1-0.3,2.8-0.8
				c0.4-0.4,0.6-0.8,0.6-1.4c0-0.4-0.1-0.7-0.3-1c-0.2-0.3-0.8-0.5-1.6-0.7c-3.8-0.9-6.3-1.8-7.3-2.6c-1.4-1.1-2.1-2.6-2.1-4.5
				c0-1.7,0.6-3.2,1.8-4.4c1.2-1.2,3.1-1.8,5.7-1.8c2.5,0,4.3,0.4,5.5,1.3c1.2,0.9,2,2.2,2.5,3.9l-4.5,0.9c-0.2-0.8-0.6-1.4-1.1-1.8
				c-0.5-0.4-1.3-0.6-2.3-0.6c-1.3,0-2.2,0.2-2.7,0.6c-0.4,0.3-0.5,0.6-0.5,1.1c0,0.4,0.2,0.7,0.5,1c0.4,0.4,1.9,0.9,4.4,1.5
				c2.5,0.6,4.3,1.4,5.3,2.4c1,0.9,1.5,2.3,1.5,4c0,1.8-0.7,3.4-2.1,4.8c-1.4,1.3-3.4,2-6.1,2c-2.5,0-4.4-0.6-5.8-1.7
				C810.3,254.9,809.4,253.4,809,251.5z"/>
		</g>
		<g>
			<path class="st3" d="M194.2,196.8c-11.4,0-11.4-5-11.4-7.9c0-3.7,2.8-13.8,12-37.8c0.4-1,0.7-1.8,1.1-2.4c-0.1,0-0.2,0-0.3,0
				l6.1-18.4c0.1,0,0.1,0,0.2,0c5.1-16,19.2-55,20.4-55h0.4l19.6,54.3c7.5-0.1,15.1-0.2,22.8-0.3c-14.7-38.6-29.7-79.4-30.6-81.8
				c-1.1-2.6-1.7-2.6-3.7-2.6c-2.6,0-3.5,0-4.2,2c-21.2,52.9-38,100-51.3,138.7c-2.8,8.5-7,11.1-11.1,11.1c-5.9,0-8.1,1.1-8.1,2.8
				c0,2.6,0.4,3.7,1.5,3.7c1.7,0,3.9-0.4,17.3-0.4c26,0,28.8,0.4,30.6,0.4c2.2,0,2.6-0.9,2.6-3.5
				C208.1,197.7,207.3,196.8,194.2,196.8z"/>
			<path class="st3" d="M304.5,196.8c-8.5,0-13.1-2.4-16.6-10.5c-3.9-8.8-9.1-21.8-14.8-36.4c-7.8-0.1-15.5-0.2-23.1-0.3
				c4.6,11.6,15.4,37.6,15.4,42.3c0,3.7-2.8,4.8-11.6,4.8c-4.4,0-9.2,0.4-9.2,2.6c0,2.2,0.2,3.9,1.1,3.9c1.5,0,3.1-0.4,32.5-0.4
				c26.4,0,28.2,0.4,30.4,0.4c2,0,2.4-2.6,2.4-4.1C311,197.5,306.4,196.8,304.5,196.8z"/>
		</g>
		<path class="st3" d="M395.5,127.1V69.3c0-14.4,3.1-15.5,16.4-15.5c25.1,0,37.3,16.2,37.3,36.3c0,19.9-9.6,37.1-35.8,37.1H395.5z
			 M373.3,187.2c-0.2,5.9-1.5,9.6-15.5,9.6c-6.1,0-6.1,1.3-6.1,3.7c0,2,0,2.8,1.7,2.8c1.5,0,2.4-0.4,31.2-0.4
			c32.3,0,33.2,0.4,34.7,0.4c1.7,0,1.7-0.9,1.7-2.8c0-2.4,0-3.7-6.1-3.7c-17.3,0-18.6-3.7-18.8-9.6c-0.4-10.9-0.7-53.5-0.7-53.5
			c9-0.2,14-0.2,22.9,8.7c7.9,7.9,22.3,35.6,40.4,59.2c1.3,1.7,2,1.7,3.9,1.7c1.1,0,2.2-0.4,15.5-0.4c15.9,0,16.8,0.4,17.9,0.4
			c2,0,2.6-0.9,2.6-3.3c0-1.3,0-2.6-1.5-2.6c-13.1-0.2-15.1-2.8-30.8-21.8c-20.3-24.5-31.2-44.6-31.2-45.9c0-0.9,1.3-1.3,2.4-1.7
			c24-9.6,35.2-19.9,35.2-40.9c0-31.5-31-40-56.4-40c-12.9,0-26.2,0.9-31.9,0.9c-13.8,0-29.5-0.9-31.2-0.9c-1.5,0-2,1.5-2,2.8
			c0,2,0,3.7,2.4,3.7c15.7,0,19.4,1.7,19.7,14.6C373.7,78.4,373.7,176.3,373.3,187.2z"/>
		<g>
			<path class="st3" d="M546.9,53.8c19,0,22.7,1.7,22.9,14.6c0.2,10.1,0.4,60,0.4,60c7.3,0,14.5,0.1,21.6,0.1c0,0,0.2-50.1,0.4-60.1
				c0.2-12.9,3.9-14.6,22.9-14.6c2.4,0,2.4-1.7,2.4-3.7c0-1.3-0.4-2.8-2-2.8c-1.7,0-20.8,0.9-34.7,0.9c-13.8,0-32.8-0.9-34.5-0.9
				c-1.5,0-2,1.5-2,2.8C544.5,52,544.5,53.8,546.9,53.8z"/>
			<path class="st3" d="M611.4,196.8c-17.3,0-18.6-3.7-18.8-9.6c-0.4-10.9-0.7-25.1-0.7-34.5v-2c-7.1,0-14.4,0.1-21.6,0.1v1.9
				c0,9.4-0.2,23.6-0.7,34.5c-0.2,5.9-1.5,9.6-18.8,9.6c-6.1,0-6.1,1.3-6.1,3.7c0,2,0,2.8,1.8,2.8c1.5,0,2.4-0.4,34.5-0.4
				c32.3,0,33.2,0.4,34.7,0.4c1.7,0,1.7-0.9,1.7-2.8C617.5,198.1,617.5,196.8,611.4,196.8z"/>
		</g>
		<g>
			<path class="st3" d="M718.2,196.8c-12,0-17-3.5-17-10.7c0-3.6-0.6-16.1-0.8-36.7c-2.4,0-4.7,0.1-7.2,0.1
				c-0.7,21.8-1.5,35.4-1.6,37.6c-0.9,8.5-9.6,9.6-14.9,9.6c-2.6,0-9.8,0.4-9.8,2.4c0,2.6,0,4.1,2.2,4.1c1.5,0,3.5-0.4,28.2-0.4
				c26.9,0,28.2,0.4,29.9,0.4c1.7,0,2.2-0.7,2.2-3.3C729.3,197.9,729.3,196.8,718.2,196.8z"/>
			<path class="st3" d="M853.8,47.2c-1.3,0-23.8,0.9-28.6,0.9c-6.1,0-28.2-0.9-31.7-0.9c-1.7,0-2.4,1.3-2.4,3.5
				c0,1.8,0.4,3.1,2.8,3.1c19,0,27.3,1.3,27.3,34.7c0,21.4-1.1,60.1-2.2,80.4c-48.9-50.2-83.4-91.5-109-120.4
				c-0.7-0.7-1.1-1.3-1.7-1.3c-3.5,0-16.2,0.9-19.4,0.9c-3.9,0-19.4-0.9-20.7-0.9c-1.8,0-2.4,0.4-2.4,3.1c0,2.2,0,3.5,2,3.5h8.1
				c4.6,0,16.4,11.4,17.9,15.3c0.4,1.1,0.4,5.5,0.4,9.4c0,19.1-0.2,36.7-0.6,51.4c2.2,0,4.5,0.2,6.7,0.2c0-18.4,0.4-37.4,0.6-55.8
				C801.8,182.8,820.2,206,822.2,206c2.2,0,3.3-0.2,3.3-3.1c0-20.8,2.6-123.4,3.9-131.1c2.8-15.9,6.6-18.1,24.3-18.1
				c1.1,0,2-0.7,2-3.7C855.6,48.7,855.2,47.2,853.8,47.2z"/>
		</g>
	</g>
</g>
</svg>
