<svg height="143.32" width="640.57" id="Layer_1" data-name="Layer 1" xmlns="http://www.w3.org/2000/svg" viewBox="0 0 640.57 143.32"><defs><style>.cls-1{fill:#140464;}</style></defs><path d="M0,84.82A27.92,27.92,0,0,1,5.56,67.58a35.51,35.51,0,0,1,15.5-11.47,60.13,60.13,0,0,1,22.82-4,89.66,89.66,0,0,1,13.06,1,44.93,44.93,0,0,1,11.51,3.12V50.72q0-9.57-5.76-14.74T45.63,30.81a44.15,44.15,0,0,0-16,2.92,81.38,81.38,0,0,0-16,8.58L5.27,25.15A83.39,83.39,0,0,1,26,15.21a74.59,74.59,0,0,1,22.33-3.32q21.84,0,34,10.77T94.58,53.42v32.1c0,2.7.48,4.62,1.46,5.77a7,7,0,0,0,4.78,2.11v21.26c-2.34.39-4.46.71-6.34,1a37.55,37.55,0,0,1-4.78.38q-7.8,0-11.8-3.51a14.86,14.86,0,0,1-5-8.58l-.58-5.26a44.77,44.77,0,0,1-16.58,13.26,47.17,47.17,0,0,1-20.28,4.68,39.43,39.43,0,0,1-18.23-4.14A31.8,31.8,0,0,1,4.58,101.1,29.79,29.79,0,0,1,0,84.82Zm63.57,5.07a26.82,26.82,0,0,0,3.51-4.56,8.28,8.28,0,0,0,1.37-4.18V71.07a54,54,0,0,0-10.14-2.95,55.66,55.66,0,0,0-10.34-1q-10.14,0-16.67,4.28T24.77,82.67a13.33,13.33,0,0,0,2.14,7.22,15.41,15.41,0,0,0,6.24,5.52A21.25,21.25,0,0,0,42.9,97.5a31.68,31.68,0,0,0,11.51-2.19A28.45,28.45,0,0,0,63.57,89.89Z"/><path d="M156.58,116.61a73,73,0,0,1-25-4.29,56,56,0,0,1-20.47-12.68l9.36-17a69.93,69.93,0,0,0,18,10.92,46.28,46.28,0,0,0,17.06,3.51q7.6,0,12.19-2.63a8.56,8.56,0,0,0,4.58-7.9,6.86,6.86,0,0,0-2.54-5.68,23.44,23.44,0,0,0-7.31-3.56q-4.78-1.55-11.6-3.46A180.59,180.59,0,0,1,132,66.75q-7.6-3.47-11.4-8.75T116.8,44.43A28.84,28.84,0,0,1,122,27.2,33.92,33.92,0,0,1,136.4,15.94q9.25-4,21.74-4a62,62,0,0,1,20.67,3.42,49.09,49.09,0,0,1,17.75,11L186,42.9A63,63,0,0,0,171.21,34,37.74,37.74,0,0,0,157,31.2a29.86,29.86,0,0,0-7.7,1,12.83,12.83,0,0,0-5.85,3.17,8.37,8.37,0,0,0-2.24,6.23,7.57,7.57,0,0,0,2,5.67,17.46,17.46,0,0,0,6.24,3.55q4.18,1.53,10.23,3.45a169.09,169.09,0,0,1,20.77,7.1Q189,65,193.24,70.26t4.29,14.49q0,15-11.11,23.42T156.58,116.61Z"/><path class="cls-1" d="M295,91.06v23.6H215.86V91.06h27.69V32a21.75,21.75,0,0,1-5.46,4.78,63.54,63.54,0,0,1-8.38,4.58,68.49,68.49,0,0,1-9.36,3.51A30.32,30.32,0,0,1,212,46.21V21.84a21.45,21.45,0,0,0,8.48-2.24,82.14,82.14,0,0,0,9.95-5.37A76.67,76.67,0,0,0,239,8.09a20.64,20.64,0,0,0,4.58-4.78h26.72V91.06Z"/><path class="cls-1" d="M409.88,58.4q0,16.91-6.53,30.07a51.46,51.46,0,0,1-17.94,20.65,48.3,48.3,0,0,1-51.67,0A51.46,51.46,0,0,1,315.8,88.47q-6.54-13.17-6.54-30.07t6.54-30.06A52.1,52.1,0,0,1,333.74,7.59a47.76,47.76,0,0,1,51.67,0,52.1,52.1,0,0,1,17.94,20.75Q409.89,41.5,409.88,58.4Zm-26.32,0a49.17,49.17,0,0,0-3-18,28.39,28.39,0,0,0-8.49-12.07A19.39,19.39,0,0,0,359.57,24a19.65,19.65,0,0,0-12.67,4.38,28.29,28.29,0,0,0-8.48,12.07,49,49,0,0,0-3,18,48.1,48.1,0,0,0,3,17.87,28.29,28.29,0,0,0,8.48,12,19.64,19.64,0,0,0,12.67,4.37A19,19,0,0,0,372,88.25a29.47,29.47,0,0,0,8.48-12.07A47.07,47.07,0,0,0,383.56,58.4Z"/><path class="cls-1" d="M529.61,58.4q0,16.91-6.53,30.07a51.54,51.54,0,0,1-17.94,20.65,48.3,48.3,0,0,1-51.67,0,51.46,51.46,0,0,1-17.94-20.65Q429,75.3,429,58.4t6.54-30.06A52.1,52.1,0,0,1,453.47,7.59a47.76,47.76,0,0,1,51.67,0,52.17,52.17,0,0,1,17.94,20.75Q529.62,41.5,529.61,58.4Zm-26.32,0a49.17,49.17,0,0,0-3-18,28.39,28.39,0,0,0-8.49-12.07A19.39,19.39,0,0,0,479.3,24a19.65,19.65,0,0,0-12.67,4.38,28.29,28.29,0,0,0-8.48,12.07,49,49,0,0,0-3,18,48.1,48.1,0,0,0,3,17.87,28.29,28.29,0,0,0,8.48,12,19.64,19.64,0,0,0,12.67,4.37,19,19,0,0,0,12.39-4.37,29.47,29.47,0,0,0,8.48-12.07A47.07,47.07,0,0,0,503.29,58.4Z"/><path class="cls-1" d="M613.46,67.27a30.48,30.48,0,0,1,14.24,6.26,33.22,33.22,0,0,1,9.46,12.41,40.09,40.09,0,0,1,3.41,16.68,37.12,37.12,0,0,1-6.24,21.45,40.76,40.76,0,0,1-17.65,14.19q-11.4,5.07-26.81,5.06-14.82,0-26.23-4.77a48.84,48.84,0,0,1-19-14l14.82-18.52a37.26,37.26,0,0,0,12.19,9.85q7.11,3.6,17.45,3.6,11.89,0,18.13-4.93t6.24-14.82q0-10.48-7.21-16.13T584.41,78H579V58.5h6q11.89,0,18.63-5.61a17.55,17.55,0,0,0,6.72-14,15.29,15.29,0,0,0-2.53-9,15.44,15.44,0,0,0-6.92-5.42,26.87,26.87,0,0,0-10.24-1.8A31.61,31.61,0,0,0,563,38.22L546.58,19.89A36.07,36.07,0,0,1,557.79,9.46a62.63,62.63,0,0,1,16.38-6.93A73.55,73.55,0,0,1,593.57,0a58.26,58.26,0,0,1,23.31,4.35,36.65,36.65,0,0,1,15.69,12.27A30.84,30.84,0,0,1,638.23,35a35.19,35.19,0,0,1-3.12,14.64,31.92,31.92,0,0,1-8.68,11.58A27.75,27.75,0,0,1,613.46,67.27Z"/></svg>