<svg width="346" height="70" xmlns="http://www.w3.org/2000/svg" viewBox="0 0 855.67365 172.79872">
  <defs>
    <style>
      .a {
        fill: #fff;
      }
    </style>
  </defs>
  <title>as211562-monowhite</title>
  <path class="a" d="M36.31973,145.03893a41.57683,41.57683,0,0,1-14.23989-2.4,36.32941,36.32941,0,0,1-11.35992-7.04A34.208,34.208,0,0,1,3.12,125.03908,32.41684,32.41684,0,0,1,.48,111.83916a29.87554,29.87554,0,0,1,3.2-13.59989,34.13636,34.13636,0,0,1,9.1999-10.79992,45.21771,45.21771,0,0,1,14.2399-6.8,58.232,58.232,0,0,1,17.99987-2.64,76.10371,76.10371,0,0,1,13.5999,1.2,56.23412,56.23412,0,0,1,11.9999,3.44v-6c0-6.95993-2-12.23991-5.99995-15.99987-3.84-3.76-9.67993-5.6-17.43987-5.6a46.41323,46.41323,0,0,0-16.39988,2.96,78.65335,78.65335,0,0,0-16.39988,8.79994L6.32,49.83963a77.1484,77.1484,0,0,1,43.59968-13.4399c15.03989,0,26.7198,3.76,34.95975,11.19992,8.39994,7.35994,12.6399,17.99987,12.6399,31.99976v32.63976c0,2.8.48,4.8,1.36,6a7.30711,7.30711,0,0,0,5.04,2V143.039a57.72957,57.72957,0,0,1-11.83991,1.36q-7.56,0-11.75992-3.36a15.2146,15.2146,0,0,1-5.04-9.03993l-.56-5.76A45.61225,45.61225,0,0,1,57.67957,140.239,48.56089,48.56089,0,0,1,36.31973,145.03893Zm7.59994-19.59986a34.04191,34.04191,0,0,0,12.79991-2.4,23.25076,23.25076,0,0,0,9.59993-6.39994c2.96-2.24,4.4-4.8,4.4-7.59994V97.03928a56.42394,56.42394,0,0,0-10.39992-2.8,51.90738,51.90738,0,0,0-10.79992-1.2q-10.43992,0-17.03987,4.8c-4.4,3.04-6.55994,6.95993-6.55994,11.75991a14.702,14.702,0,0,0,5.2,11.43992A19.00339,19.00339,0,0,0,43.91967,125.43907Z"/>
  <path class="a" d="M162.0788,145.03893a80.8698,80.8698,0,0,1-25.75983-4.24A62.92465,62.92465,0,0,1,114.71915,128.799l9.99993-16.79987a89.43884,89.43884,0,0,0,18.55993,10.4,51.43094,51.43094,0,0,0,18.23985,3.44c5.35995,0,9.51993-1.04,12.55991-3.04a9.49432,9.49432,0,0,0,4.64-8.55993c0-3.76-1.84-6.48-5.44-8.23993a128.88368,128.88368,0,0,0-17.59987-6c-6.79994-1.84-12.5599-3.6-17.35986-5.36a47.344,47.344,0,0,1-11.59992-5.84,21.02208,21.02208,0,0,1-6.4-7.6,24.37239,24.37239,0,0,1-2-10.39992,33.84967,33.84967,0,0,1,2.96-14.3999A32.93225,32.93225,0,0,1,130.079,45.59966a40.00834,40.00834,0,0,1,13.03991-6.95994,54.18242,54.18242,0,0,1,16.39987-2.4,70.02814,70.02814,0,0,1,21.99985,3.36,54.1373,54.1373,0,0,1,18.95985,11.03991L189.67859,66.79951a61.88287,61.88287,0,0,0-15.59989-8.79994,41.8235,41.8235,0,0,0-14.79988-2.8,21.73246,21.73246,0,0,0-11.35992,2.8c-3.04,1.92-4.63995,4.88-4.63995,9.03993a9.60421,9.60421,0,0,0,1.04,4.56,10.144,10.144,0,0,0,3.6,3.2,34.75334,34.75334,0,0,0,6.16,2.8q4.08,1.2,9.83993,2.64c7.19994,1.84,13.3599,3.76,18.39986,5.6a47.03373,47.03373,0,0,1,12.55991,6.4,20.95594,20.95594,0,0,1,7.2,8.39994,23.89587,23.89587,0,0,1,2.4,11.1999c0,10.23993-3.76,18.39988-11.35991,24.39982C185.51863,142.079,175.1987,145.03893,162.0788,145.03893Z"/>
  <path class="a" d="M216.71838,143.03894a90.54894,90.54894,0,0,1,1.36-16.23988,48.18917,48.18917,0,0,1,4.8-13.5999,49.35286,49.35286,0,0,1,9.59993-11.59991,90.95793,90.95793,0,0,1,15.59987-10.55992c5.51994-2.96,10.31994-5.44,14.3999-7.6a102.156,102.156,0,0,0,10.63992-6.2399,26.69335,26.69335,0,0,0,6.4-5.6,11.29256,11.29256,0,0,0,2.16-6.79995,12.9919,12.9919,0,0,0-4.8-10.15993c-3.2-2.96-7.76-4.4-13.75992-4.4a27.81418,27.81418,0,0,0-8.79992,1.36,32.57764,32.57764,0,0,0-7.6,3.44,42.764,42.764,0,0,0-6.39995,4.96,49.0076,49.0076,0,0,0-5.2,5.6L217.9184,45.83966a41.82518,41.82518,0,0,1,7.35994-6,69.74838,69.74838,0,0,1,11.19992-6.23995,76.0355,76.0355,0,0,1,14.39988-4.8,73.1235,73.1235,0,0,1,17.03989-2,57.47983,57.47983,0,0,1,18.15985,2.64,36.889,36.889,0,0,1,13.43991,6.95995,29.09535,29.09535,0,0,1,8.39993,10.79992,31.03058,31.03058,0,0,1,2.96,13.5999,28.84441,28.84441,0,0,1-2.56,12.39991,36.72141,36.72141,0,0,1-6.64,9.59992,52.21666,52.21666,0,0,1-8.79992,7.43995c-3.04,2-6.08,3.76-8.95993,5.36-2.4,1.36-5.12,2.88-8.24,4.64-3.04,1.76-6.08,3.68-9.19992,5.76a82.34823,82.34823,0,0,0-8.15995,6.4,30.044,30.044,0,0,0-5.84,6.4h60.63955v24.23982Z"/>
  <path class="a" d="M415.91693,118.79912v24.23982h-81.1994V118.79912h28.39978V58.23957a21.08141,21.08141,0,0,1-5.84,4.96,68.276,68.276,0,0,1-8.39993,4.64,62.47,62.47,0,0,1-9.59991,3.6,29.97627,29.97627,0,0,1-8.55994,1.36V47.83965a22.86421,22.86421,0,0,0,8.79993-2.24,79.12773,79.12773,0,0,0,10.15991-5.6,76.08871,76.08871,0,0,0,8.63995-6.16,25.37544,25.37544,0,0,0,4.8-5.04h27.3598V118.799Z"/>
  <path class="a" d="M514.71619,118.79912v24.23982H433.51678V118.79912h28.39978V58.23957a21.08115,21.08115,0,0,1-5.83993,4.96,68.27539,68.27539,0,0,1-8.4,4.64,62.469,62.469,0,0,1-9.59992,3.6,29.97586,29.97586,0,0,1-8.55994,1.36V47.83965a22.86371,22.86371,0,0,0,8.79993-2.24,79.12675,79.12675,0,0,0,10.15994-5.6,76.09116,76.09116,0,0,0,8.63993-6.16,25.374,25.374,0,0,0,4.8-5.04h27.35981V118.799Z"/>
  <path class="a" d="M577.51575,79.19942a50.37958,50.37958,0,0,1,18.55981,3.44,41.7671,41.7671,0,0,1,14.79993,9.19993,40.63589,40.63589,0,0,1,9.59991,14.3999,46.545,46.545,0,0,1,3.6,18.55986,45.92712,45.92712,0,0,1-3.99994,19.59985,40.68693,40.68693,0,0,1-10.79993,15.03988,47.5429,47.5429,0,0,1-16.55987,9.75994,62.54844,62.54844,0,0,1-48.79969-2.96,45.95977,45.95977,0,0,1-18.63983-17.99988L540.716,132.239a40.88346,40.88346,0,0,0,13.99988,12.39992,35.8644,35.8644,0,0,0,17.35986,4.56c7.2,0,13.11994-2.08,17.59992-6.4,4.72-4.4,7.03992-10.15993,7.03992-17.35988,0-6.96-2.24-12.5599-6.64-16.79986-4.24-4.24-9.67993-6.4-16.3999-6.4a26.72439,26.72439,0,0,0-12.3999,2.96,24.65641,24.65641,0,0,0-8.9599,8.23993H528.8761c0-.4.32-1.84.8-4.4l2-9.99993c.8-4.16,1.68-8.63994,2.63995-13.5999.88-5.04,1.92-10.23992,2.96-15.43989,2.4-12.23991,5.12-25.99981,7.99994-41.19969h69.99951V53.19961H564.71582l-5.84,31.83976a17.01665,17.01665,0,0,1,7.04-4.24A37.59179,37.59179,0,0,1,577.51575,79.19942Z"/>
  <path class="a" d="M743.6745,95.5993a46.4737,46.4737,0,0,1-4,19.43984A49.41042,49.41042,0,0,1,728.7146,130.799a51.42154,51.42154,0,0,1-16.63989,10.4,53.23241,53.23241,0,0,1-20.39984,3.84,51.852,51.852,0,0,1-21.75983-4.4,44.83091,44.83091,0,0,1-16.3999-12.7999,58.463,58.463,0,0,1-10.39991-20.39985,97.77111,97.77111,0,0,1-3.6-27.5998,141.42067,141.42067,0,0,1,3.76-34.23975q3.84-14.99988,11.03992-24.95981A48.28366,48.28366,0,0,1,671.67505,5.2,49.80419,49.80419,0,0,1,694.47485,0a53.40937,53.40937,0,0,1,43.83966,22.39983L722.87463,39.19971a33.59059,33.59059,0,0,0-12.3999-11.75991,33.179,33.179,0,0,0-16.39984-4.24,25.48988,25.48988,0,0,0-21.35986,10.64q-8.04,10.55993-8.4,29.99978a30.51143,30.51143,0,0,1,11.76-11.43992,37.36582,37.36582,0,0,1,17.99988-4.16,51.85959,51.85959,0,0,1,19.43982,3.6,47.7721,47.7721,0,0,1,15.75989,9.99992,45.371,45.371,0,0,1,10.63989,15.19989A46.36068,46.36068,0,0,1,743.6745,95.5993Zm-51.75964,26.79979a25.367,25.367,0,0,0,9.99993-2,28.0238,28.0238,0,0,0,8.4-5.76,29.17429,29.17429,0,0,0,5.59991-8.63992,25.774,25.774,0,0,0,2.16-10.39992,23.40134,23.40134,0,0,0-2.16-9.99994,25.99976,25.99976,0,0,0-23.99981-15.99987,27.46925,27.46925,0,0,0-10.23993,2A25.99984,25.99984,0,0,0,665.67505,95.5993a28.62556,28.62556,0,0,0,2,10.39991,29.80528,29.80528,0,0,0,5.84,8.39994,29.32128,29.32128,0,0,0,8.15991,5.83995A24.75449,24.75449,0,0,0,691.91486,122.39909Z"/>
  <path class="a" d="M759.27435,143.03894a83.39356,83.39356,0,0,1,1.44-16.23988,43.69368,43.69368,0,0,1,4.8-13.5999,49.35375,49.35375,0,0,1,9.59992-11.59991,85.05557,85.05557,0,0,1,15.59985-10.55992c5.44-2.96,10.23993-5.44,14.3999-7.6a108.99628,108.99628,0,0,0,10.56-6.2399,25.21941,25.21941,0,0,0,6.4-5.6,10.85719,10.85719,0,0,0,2.24-6.79995,12.99183,12.99183,0,0,0-4.8-10.15993c-3.2-2.96-7.83991-4.4-13.83991-4.4a28.18231,28.18231,0,0,0-8.79992,1.36,34.14026,34.14026,0,0,0-7.59992,3.44,47.26683,47.26683,0,0,0-6.4,4.96,57.44486,57.44486,0,0,0-5.2,5.6L760.47437,45.83966a46.127,46.127,0,0,1,7.43994-6,66.44451,66.44451,0,0,1,11.19995-6.23995,76.03442,76.03442,0,0,1,14.39984-4.8,71.92764,71.92764,0,0,1,16.9599-2,58.35307,58.35307,0,0,1,18.23987,2.64,37.16342,37.16342,0,0,1,13.35986,6.95995,27.54262,27.54262,0,0,1,8.4,10.79992,31.08421,31.08421,0,0,1,3.04,13.5999,27.72679,27.72679,0,0,1-2.63995,12.39991,36.45636,36.45636,0,0,1-6.56,9.59992,55.56945,55.56945,0,0,1-8.79993,7.43995c-3.11993,2-6.08,3.76-9.03991,5.36-2.4,1.36-5.11994,2.88-8.15991,4.64-3.12,1.76-6.16,3.68-9.2,5.76a83.49553,83.49553,0,0,0-8.23992,6.4,29.46551,29.46551,0,0,0-5.76,6.4h60.55951v24.23982Z"/>
</svg>
