<svg xmlns="http://www.w3.org/2000/svg" viewBox="0 0 855.67365 172.79872">
  <defs>
    <style>
      .a {
        fill: #140464;
      }
    </style>
  </defs>
  <title>as211562 logo</title>
  <path d="M36.31973,145.03892a41.57667,41.57667,0,0,1-14.23989-2.4,36.32965,36.32965,0,0,1-11.35992-7.04A34.208,34.208,0,0,1,3.12,125.03908,32.417,32.417,0,0,1,.48,111.83916a29.87569,29.87569,0,0,1,3.2-13.59989A34.13643,34.13643,0,0,1,12.8799,87.43935a45.21772,45.21772,0,0,1,14.2399-6.8,58.232,58.232,0,0,1,17.99987-2.64,76.10361,76.10361,0,0,1,13.5999,1.2,56.2342,56.2342,0,0,1,11.9999,3.44v-6c0-6.95994-2-12.23991-5.99995-15.99988-3.84-3.76-9.67993-5.6-17.43987-5.6a46.41321,46.41321,0,0,0-16.39988,2.96,78.65389,78.65389,0,0,0-16.39988,8.79994L6.32,49.83963a77.1484,77.1484,0,0,1,43.59968-13.4399c15.03989,0,26.7198,3.76,34.95974,11.19992,8.39994,7.35994,12.63991,17.99987,12.63991,31.99976v32.63975c0,2.8.48,4.8,1.36,6a7.30706,7.30706,0,0,0,5.04,2v22.79984a57.73067,57.73067,0,0,1-11.83991,1.36q-7.56,0-11.75992-3.36a15.21457,15.21457,0,0,1-5.04-9.03993l-.56-5.76A45.61207,45.61207,0,0,1,57.67957,140.239,48.56065,48.56065,0,0,1,36.31973,145.03892Zm7.59994-19.59985a34.042,34.042,0,0,0,12.79991-2.4,23.25074,23.25074,0,0,0,9.59993-6.39994c2.96-2.24,4.4-4.8,4.4-7.59994V97.03928a56.42344,56.42344,0,0,0-10.39992-2.8,51.907,51.907,0,0,0-10.79992-1.2q-10.43992,0-17.03987,4.8c-4.4,3.04-6.55995,6.95994-6.55995,11.75991a14.702,14.702,0,0,0,5.2,11.43992A19.00338,19.00338,0,0,0,43.91967,125.43907Z"/>
  <path d="M162.0788,145.03892a80.86956,80.86956,0,0,1-25.75982-4.24A62.92452,62.92452,0,0,1,114.71915,128.799l9.99993-16.79987A89.43885,89.43885,0,0,0,143.279,122.3991a51.43125,51.43125,0,0,0,18.23985,3.44c5.35995,0,9.51993-1.04,12.5599-3.04a9.49432,9.49432,0,0,0,4.64-8.55993c0-3.76-1.84-6.48-5.44-8.23994a128.88592,128.88592,0,0,0-17.59987-6c-6.79994-1.84-12.55991-3.6-17.35987-5.36a47.34376,47.34376,0,0,1-11.59992-5.84,21.02217,21.02217,0,0,1-6.4-7.6,24.37244,24.37244,0,0,1-2-10.39992,33.84973,33.84973,0,0,1,2.96-14.3999A32.93217,32.93217,0,0,1,130.079,45.59966a40.00813,40.00813,0,0,1,13.0399-6.95994,54.18271,54.18271,0,0,1,16.39987-2.4,70.0285,70.0285,0,0,1,21.99985,3.36,54.13745,54.13745,0,0,1,18.95986,11.03991L189.67859,66.79951a61.883,61.883,0,0,0-15.59989-8.79994,41.82354,41.82354,0,0,0-14.79988-2.8,21.73257,21.73257,0,0,0-11.35992,2.8c-3.04,1.92-4.63995,4.88-4.63995,9.03993a9.60438,9.60438,0,0,0,1.04,4.56,10.14409,10.14409,0,0,0,3.6,3.2,34.75459,34.75459,0,0,0,6.16,2.8q4.08,1.2,9.83993,2.64c7.19994,1.84,13.3599,3.76,18.39986,5.59995a47.034,47.034,0,0,1,12.55991,6.4,20.956,20.956,0,0,1,7.2,8.39994,23.89591,23.89591,0,0,1,2.4,11.1999c0,10.23994-3.76,18.39988-11.35991,24.39982C185.51863,142.079,175.1987,145.03892,162.0788,145.03892Z"/>
  <path class="a" d="M216.71838,143.03894a90.54849,90.54849,0,0,1,1.36-16.23988,48.18934,48.18934,0,0,1,4.8-13.5999,49.35309,49.35309,0,0,1,9.59993-11.59991,90.95852,90.95852,0,0,1,15.59987-10.55992c5.51995-2.96,10.31994-5.44,14.3999-7.6A102.15865,102.15865,0,0,0,273.118,77.19943a26.69329,26.69329,0,0,0,6.4-5.6,11.2925,11.2925,0,0,0,2.16-6.79995,12.99191,12.99191,0,0,0-4.8-10.15993c-3.2-2.96-7.75995-4.4-13.75992-4.4a27.81416,27.81416,0,0,0-8.79992,1.36,32.5776,32.5776,0,0,0-7.6,3.44,42.7635,42.7635,0,0,0-6.39995,4.96,49.00685,49.00685,0,0,0-5.2,5.6L217.9184,45.83966a41.82431,41.82431,0,0,1,7.35994-6,69.74859,69.74859,0,0,1,11.19992-6.23995,76.03594,76.03594,0,0,1,14.39988-4.8,73.12358,73.12358,0,0,1,17.03989-2,57.48,57.48,0,0,1,18.15985,2.64,36.8891,36.8891,0,0,1,13.43991,6.95995,29.09554,29.09554,0,0,1,8.39993,10.79992,31.03031,31.03031,0,0,1,2.96,13.5999,28.84432,28.84432,0,0,1-2.56,12.39991,36.72128,36.72128,0,0,1-6.64,9.59992,52.21722,52.21722,0,0,1-8.79992,7.43995c-3.04,2-6.08,3.76-8.95993,5.36-2.4,1.36-5.12,2.88-8.24,4.64-3.04,1.76-6.08,3.68-9.19992,5.76a82.34772,82.34772,0,0,0-8.15995,6.4,30.0443,30.0443,0,0,0-5.84,6.4h60.63955v24.23982Z"/>
  <path class="a" d="M415.91693,118.79912v24.23982h-81.1994V118.79912h28.39978V58.23957a21.0815,21.0815,0,0,1-5.84,4.96,68.2765,68.2765,0,0,1-8.39993,4.64,62.47086,62.47086,0,0,1-9.59991,3.6,29.97578,29.97578,0,0,1-8.55994,1.36V47.83965a22.864,22.864,0,0,0,8.79993-2.24,79.12758,79.12758,0,0,0,10.15991-5.6,76.089,76.089,0,0,0,8.63995-6.15995,25.37559,25.37559,0,0,0,4.8-5.04h27.3598v89.99933Z"/>
  <path class="a" d="M514.71619,118.79912v24.23982H433.51678V118.79912h28.39978V58.23957a21.08169,21.08169,0,0,1-5.83993,4.96,68.27551,68.27551,0,0,1-8.4,4.64,62.46825,62.46825,0,0,1-9.59992,3.6,29.97566,29.97566,0,0,1-8.55993,1.36V47.83965a22.86366,22.86366,0,0,0,8.79992-2.24,79.12725,79.12725,0,0,0,10.15994-5.6,76.0886,76.0886,0,0,0,8.63993-6.15995,25.37454,25.37454,0,0,0,4.8-5.04h27.35981v89.99933Z"/>
  <path class="a" d="M577.51575,79.19942a50.37978,50.37978,0,0,1,18.55981,3.44,41.76707,41.76707,0,0,1,14.79993,9.19993,40.63661,40.63661,0,0,1,9.59991,14.3999,46.54554,46.54554,0,0,1,3.6,18.55986,45.92743,45.92743,0,0,1-3.99994,19.59984,40.68675,40.68675,0,0,1-10.79993,15.03989,47.54243,47.54243,0,0,1-16.55987,9.75993,62.54841,62.54841,0,0,1-48.79969-2.96,45.96,45.96,0,0,1-18.63983-17.99988L540.716,132.239a40.88334,40.88334,0,0,0,13.99988,12.39992,35.86438,35.86438,0,0,0,17.35986,4.56c7.2,0,13.11994-2.08,17.59992-6.4,4.72-4.4,7.03992-10.15993,7.03992-17.35988,0-6.96-2.24-12.55991-6.64-16.79987-4.24-4.24-9.67993-6.4-16.3999-6.4a26.72453,26.72453,0,0,0-12.3999,2.96,24.65664,24.65664,0,0,0-8.9599,8.23993H528.8761c0-.4.32-1.84.8-4.4l2-9.99993c.8-4.16,1.68-8.63994,2.63995-13.5999.88-5.04,1.92-10.23992,2.96-15.43989,2.4-12.23991,5.12-25.99981,7.99994-41.19969h69.99951V53.19961H564.71582l-5.84,31.83976a17.01659,17.01659,0,0,1,7.04-4.24A37.59184,37.59184,0,0,1,577.51575,79.19942Z"/>
  <path class="a" d="M743.6745,95.5993a46.47389,46.47389,0,0,1-4,19.43984A49.41,49.41,0,0,1,728.7146,130.799,51.42143,51.42143,0,0,1,712.07471,141.199a53.23243,53.23243,0,0,1-20.39984,3.84,51.85211,51.85211,0,0,1-21.75983-4.4,44.83094,44.83094,0,0,1-16.3999-12.7999,58.46268,58.46268,0,0,1-10.39991-20.39985,97.77246,97.77246,0,0,1-3.6-27.5998,141.42242,141.42242,0,0,1,3.76-34.23975q3.84-14.99988,11.03991-24.95981A48.28353,48.28353,0,0,1,671.67505,5.2,49.80418,49.80418,0,0,1,694.47485,0a53.40933,53.40933,0,0,1,43.83966,22.39983L722.87463,39.19971a33.59016,33.59016,0,0,0-12.3999-11.75991,33.17891,33.17891,0,0,0-16.39984-4.24A25.48988,25.48988,0,0,0,672.715,33.83975q-8.04,10.55993-8.4,29.99978a30.51155,30.51155,0,0,1,11.76-11.43992,37.36569,37.36569,0,0,1,17.99988-4.16,51.85935,51.85935,0,0,1,19.43982,3.6,47.77205,47.77205,0,0,1,15.75989,9.99992,45.37108,45.37108,0,0,1,10.63989,15.19989A46.35992,46.35992,0,0,1,743.6745,95.5993Zm-51.75964,26.7998a25.3672,25.3672,0,0,0,9.99993-2,28.02413,28.02413,0,0,0,8.4-5.76,29.17362,29.17362,0,0,0,5.59991-8.63992,25.77361,25.77361,0,0,0,2.16-10.39992,23.40133,23.40133,0,0,0-2.16-9.99994,25.99976,25.99976,0,0,0-23.99981-15.99987,27.46932,27.46932,0,0,0-10.23993,2A25.99987,25.99987,0,0,0,665.67505,95.5993a28.62567,28.62567,0,0,0,2,10.39992,29.80494,29.80494,0,0,0,5.84,8.39994,29.3216,29.3216,0,0,0,8.15992,5.83994A24.75468,24.75468,0,0,0,691.91486,122.3991Z"/>
  <path class="a" d="M759.27435,143.03894a83.39606,83.39606,0,0,1,1.44-16.23988,43.69455,43.69455,0,0,1,4.8-13.5999,49.35353,49.35353,0,0,1,9.59992-11.59991,85.05416,85.05416,0,0,1,15.59985-10.55992c5.44-2.96,10.23993-5.44,14.3999-7.6A108.99959,108.99959,0,0,0,815.674,77.19943a25.21917,25.21917,0,0,0,6.4-5.6,10.8573,10.8573,0,0,0,2.24-6.79995,12.99184,12.99184,0,0,0-4.8-10.15993c-3.2-2.96-7.83991-4.4-13.83991-4.4a28.18192,28.18192,0,0,0-8.79993,1.36,34.14023,34.14023,0,0,0-7.59991,3.44,47.26756,47.26756,0,0,0-6.4,4.96,57.44752,57.44752,0,0,0-5.19995,5.6L760.47437,45.83966a46.12664,46.12664,0,0,1,7.43994-6,66.44508,66.44508,0,0,1,11.19995-6.23995,76.03577,76.03577,0,0,1,14.39984-4.8,71.92755,71.92755,0,0,1,16.9599-2,58.353,58.353,0,0,1,18.23987,2.64,37.16341,37.16341,0,0,1,13.35986,6.95995,27.54247,27.54247,0,0,1,8.4,10.79992,31.08442,31.08442,0,0,1,3.04,13.5999,27.72706,27.72706,0,0,1-2.63995,12.39991,36.45651,36.45651,0,0,1-6.56,9.59992,55.5717,55.5717,0,0,1-8.79993,7.43995c-3.11993,2-6.07995,3.76-9.03991,5.36-2.4,1.36-5.11994,2.88-8.15992,4.64-3.12,1.76-6.16,3.68-9.19995,5.76a83.4991,83.4991,0,0,0-8.23993,6.4,29.46621,29.46621,0,0,0-5.75994,6.4h60.55951v24.23982Z"/>
</svg>
