<svg width="346" height="70" xmlns="http://www.w3.org/2000/svg" viewBox="0 0 855.674 172.799"><defs><style>.a{fill:#140464}</style></defs><path d="M36.32 145.039a41.577 41.577 0 0 1-14.24-2.4 36.33 36.33 0 0 1-11.36-7.04 34.208 34.208 0 0 1-7.6-10.56 32.417 32.417 0 0 1-2.64-13.2 29.876 29.876 0 0 1 3.2-13.6 34.136 34.136 0 0 1 9.2-10.8 45.218 45.218 0 0 1 14.24-6.8 58.232 58.232 0 0 1 18-2.64 76.104 76.104 0 0 1 13.6 1.2 56.234 56.234 0 0 1 12 3.44v-6c0-6.96-2-12.24-6-16-3.84-3.76-9.68-5.6-17.44-5.6A46.413 46.413 0 0 0 30.88 58a78.654 78.654 0 0 0-16.4 8.8L6.32 49.84a77.148 77.148 0 0 1 43.6-13.44c15.04 0 26.72 3.76 34.96 11.2 8.4 7.36 12.64 18 12.64 32v32.64c0 2.8.48 4.8 1.36 6a7.307 7.307 0 0 0 5.04 2v22.8a57.73 57.73 0 0 1-11.84 1.36q-7.56 0-11.76-3.36a15.215 15.215 0 0 1-5.04-9.04l-.56-5.76a45.612 45.612 0 0 1-17.04 14 48.56 48.56 0 0 1-21.36 4.8Zm7.6-19.6a34.042 34.042 0 0 0 12.8-2.4 23.25 23.25 0 0 0 9.6-6.4c2.96-2.24 4.4-4.8 4.4-7.6v-12a56.423 56.423 0 0 0-10.4-2.8 51.907 51.907 0 0 0-10.8-1.2q-10.44 0-17.04 4.8c-4.4 3.04-6.56 6.96-6.56 11.76a14.702 14.702 0 0 0 5.2 11.44 19.003 19.003 0 0 0 12.8 4.4ZM162.079 145.039a80.87 80.87 0 0 1-25.76-4.24 62.925 62.925 0 0 1-21.6-12l10-16.8a89.439 89.439 0 0 0 18.56 10.4 51.431 51.431 0 0 0 18.24 3.44c5.36 0 9.52-1.04 12.56-3.04a9.494 9.494 0 0 0 4.64-8.56c0-3.76-1.84-6.48-5.44-8.24a128.886 128.886 0 0 0-17.6-6c-6.8-1.84-12.56-3.6-17.36-5.36a47.344 47.344 0 0 1-11.6-5.84 21.022 21.022 0 0 1-6.4-7.6 24.372 24.372 0 0 1-2-10.4 33.85 33.85 0 0 1 2.96-14.4 32.932 32.932 0 0 1 8.8-10.8 40.008 40.008 0 0 1 13.04-6.96 54.183 54.183 0 0 1 16.4-2.4 70.028 70.028 0 0 1 22 3.36 54.137 54.137 0 0 1 18.96 11.04l-10.8 16.16a61.883 61.883 0 0 0-15.6-8.8 41.824 41.824 0 0 0-14.8-2.8 21.733 21.733 0 0 0-11.36 2.8c-3.04 1.92-4.64 4.88-4.64 9.04a9.604 9.604 0 0 0 1.04 4.56 10.144 10.144 0 0 0 3.6 3.2 34.755 34.755 0 0 0 6.16 2.8q4.08 1.2 9.84 2.64c7.2 1.84 13.36 3.76 18.4 5.6a47.034 47.034 0 0 1 12.56 6.4 20.956 20.956 0 0 1 7.2 8.4 23.896 23.896 0 0 1 2.4 11.2c0 10.24-3.76 18.4-11.36 24.4-7.6 5.84-17.92 8.8-31.04 8.8Z"/><path class="a" d="M216.718 143.039a90.548 90.548 0 0 1 1.36-16.24 48.19 48.19 0 0 1 4.8-13.6 49.353 49.353 0 0 1 9.6-11.6 90.959 90.959 0 0 1 15.6-10.56c5.52-2.96 10.32-5.44 14.4-7.6a102.159 102.159 0 0 0 10.64-6.24 26.693 26.693 0 0 0 6.4-5.6 11.293 11.293 0 0 0 2.16-6.8 12.992 12.992 0 0 0-4.8-10.16c-3.2-2.96-7.76-4.4-13.76-4.4a27.814 27.814 0 0 0-8.8 1.36 32.578 32.578 0 0 0-7.6 3.44 42.764 42.764 0 0 0-6.4 4.96 49.007 49.007 0 0 0-5.2 5.6l-17.2-19.76a41.824 41.824 0 0 1 7.36-6 69.749 69.749 0 0 1 11.2-6.24 76.036 76.036 0 0 1 14.4-4.8 73.124 73.124 0 0 1 17.04-2 57.48 57.48 0 0 1 18.16 2.64 36.89 36.89 0 0 1 13.44 6.96 29.096 29.096 0 0 1 8.4 10.8 31.03 31.03 0 0 1 2.96 13.6 28.844 28.844 0 0 1-2.56 12.4 36.721 36.721 0 0 1-6.64 9.6 52.217 52.217 0 0 1-8.8 7.44c-3.04 2-6.08 3.76-8.96 5.36-2.4 1.36-5.12 2.88-8.24 4.64-3.04 1.76-6.08 3.68-9.2 5.76a82.348 82.348 0 0 0-8.16 6.4 30.044 30.044 0 0 0-5.84 6.4h60.64v24.24ZM415.917 118.8v24.239h-81.2v-24.24h28.4V58.24a21.081 21.081 0 0 1-5.84 4.96 68.276 68.276 0 0 1-8.4 4.64 62.47 62.47 0 0 1-9.6 3.6 29.976 29.976 0 0 1-8.56 1.36V47.84a22.864 22.864 0 0 0 8.8-2.24 79.128 79.128 0 0 0 10.16-5.6 76.089 76.089 0 0 0 8.64-6.16 25.376 25.376 0 0 0 4.8-5.04h27.36v90ZM514.716 118.8v24.239h-81.2v-24.24h28.4V58.24a21.082 21.082 0 0 1-5.84 4.96 68.276 68.276 0 0 1-8.4 4.64 62.468 62.468 0 0 1-9.6 3.6 29.976 29.976 0 0 1-8.56 1.36V47.84a22.864 22.864 0 0 0 8.8-2.24 79.127 79.127 0 0 0 10.16-5.6 76.089 76.089 0 0 0 8.64-6.16 25.375 25.375 0 0 0 4.8-5.04h27.36v90ZM577.516 79.2a50.38 50.38 0 0 1 18.56 3.44 41.767 41.767 0 0 1 14.8 9.2 40.637 40.637 0 0 1 9.6 14.4 46.546 46.546 0 0 1 3.6 18.56 45.927 45.927 0 0 1-4 19.599 40.687 40.687 0 0 1-10.8 15.04 47.542 47.542 0 0 1-16.56 9.76 62.548 62.548 0 0 1-48.8-2.96 45.96 45.96 0 0 1-18.64-18l15.44-16a40.883 40.883 0 0 0 14 12.4 35.864 35.864 0 0 0 17.36 4.56c7.2 0 13.12-2.08 17.6-6.4 4.72-4.4 7.04-10.16 7.04-17.36 0-6.96-2.24-12.56-6.64-16.8-4.24-4.24-9.68-6.4-16.4-6.4a26.725 26.725 0 0 0-12.4 2.96 24.657 24.657 0 0 0-8.96 8.24h-23.44c0-.4.32-1.84.8-4.4l2-10c.8-4.16 1.68-8.64 2.64-13.6.88-5.04 1.92-10.24 2.96-15.44 2.4-12.24 5.12-26 8-41.2h70v24.4h-50.56l-5.84 31.84a17.017 17.017 0 0 1 7.04-4.24 37.592 37.592 0 0 1 11.6-1.6ZM743.674 95.6a46.474 46.474 0 0 1-4 19.44 49.41 49.41 0 0 1-10.96 15.759 51.421 51.421 0 0 1-16.64 10.4 53.232 53.232 0 0 1-20.4 3.84 51.852 51.852 0 0 1-21.759-4.4 44.83 44.83 0 0 1-16.4-12.8 58.463 58.463 0 0 1-10.4-20.4 97.772 97.772 0 0 1-3.6-27.6 141.422 141.422 0 0 1 3.76-34.24q3.84-15 11.04-24.96A48.284 48.284 0 0 1 671.675 5.2a49.804 49.804 0 0 1 22.8-5.2 53.41 53.41 0 0 1 43.84 22.4l-15.44 16.8a33.59 33.59 0 0 0-12.4-11.76 33.179 33.179 0 0 0-16.4-4.24 25.49 25.49 0 0 0-21.36 10.64q-8.04 10.56-8.4 30a30.512 30.512 0 0 1 11.76-11.44 37.366 37.366 0 0 1 18-4.16 51.86 51.86 0 0 1 19.44 3.6 47.772 47.772 0 0 1 15.76 10 45.371 45.371 0 0 1 10.64 15.2 46.36 46.36 0 0 1 3.76 18.56Zm-51.76 26.8a25.367 25.367 0 0 0 10-2 28.024 28.024 0 0 0 8.4-5.76 29.174 29.174 0 0 0 5.6-8.64 25.774 25.774 0 0 0 2.16-10.4 23.401 23.401 0 0 0-2.16-10 26 26 0 0 0-24-16 27.47 27.47 0 0 0-10.239 2 26 26 0 0 0-16 24 28.626 28.626 0 0 0 2 10.4 29.805 29.805 0 0 0 5.84 8.4 29.322 29.322 0 0 0 8.16 5.84 24.755 24.755 0 0 0 10.24 2.16ZM759.274 143.039a83.396 83.396 0 0 1 1.44-16.24 43.695 43.695 0 0 1 4.8-13.6 49.354 49.354 0 0 1 9.6-11.6 85.054 85.054 0 0 1 15.6-10.56c5.44-2.96 10.24-5.44 14.4-7.6a109 109 0 0 0 10.56-6.24 25.22 25.22 0 0 0 6.4-5.6 10.857 10.857 0 0 0 2.24-6.8 12.992 12.992 0 0 0-4.8-10.16c-3.2-2.96-7.84-4.4-13.84-4.4a28.182 28.182 0 0 0-8.8 1.36 34.14 34.14 0 0 0-7.6 3.44 47.268 47.268 0 0 0-6.4 4.96 57.448 57.448 0 0 0-5.2 5.6l-17.2-19.76a46.127 46.127 0 0 1 7.44-6 66.445 66.445 0 0 1 11.2-6.24 76.036 76.036 0 0 1 14.4-4.8 71.928 71.928 0 0 1 16.96-2 58.353 58.353 0 0 1 18.24 2.64 37.163 37.163 0 0 1 13.36 6.96 27.542 27.542 0 0 1 8.4 10.8 31.084 31.084 0 0 1 3.04 13.6 27.727 27.727 0 0 1-2.64 12.4 36.457 36.457 0 0 1-6.56 9.6 55.572 55.572 0 0 1-8.8 7.44c-3.12 2-6.08 3.76-9.04 5.36-2.4 1.36-5.12 2.88-8.16 4.64-3.12 1.76-6.16 3.68-9.2 5.76a83.5 83.5 0 0 0-8.24 6.4 29.466 29.466 0 0 0-5.76 6.4h60.56v24.24Z"/></svg>