<svg id="Layer_1" data-name="Layer 1" xmlns="http://www.w3.org/2000/svg" xmlns:xlink="http://www.w3.org/1999/xlink" viewBox="0 0 350.41 79.25"><defs><style>.cls-1{fill:none;}.cls-2{clip-path:url(#clip-path);}.cls-3{clip-path:url(#clip-path-2);}.cls-4,.cls-7{fill:#fff;}.cls-5{fill:#00203e;}.cls-6{opacity:0.15;}.cls-7,.cls-8{font-size:9.75px;}.cls-7{font-family:Arial-BoldMT, Arial;font-weight:700;}.cls-8{font-family:ArialMT, Arial;}.cls-9{letter-spacing:-0.07em;}</style><clipPath id="clip-path"><rect class="cls-1" x="-220.72" y="-53.25" width="792" height="612"/></clipPath><clipPath id="clip-path-2"><rect class="cls-1" x="-0.59" y="-0.75" width="351.75" height="81"/></clipPath></defs><title>IXP</title><g class="cls-2"><g class="cls-3"><rect class="cls-4" x="76.66" y="16.5" width="273.75" height="63"/><rect x="0.16" width="350.25" height="16.5"/><rect class="cls-5" x="0.16" y="15.75" width="76.5" height="63.75"/><path class="cls-6" d="M.16,78.75H350.41v.75H.16ZM.16,63H350.41v.75H.16Zm0-15.75H350.41V48H.16Zm0-15.75H350.41v.75H.16Zm0-15.75H350.41v.75H.16ZM.16,0H350.41V.75H.16ZM350.41,63.75h0v15h-.75v-15Zm0-15.75h0V63h-.75V48Zm0-15.75h0v15h-.75v-15Zm0-15.75h0v15h-.75v-15Zm0-15.75h0v15h-.75V.75Zm-75.75,63h0v15h-.75v-15Zm0-15.75h0V63h-.75V48Zm0-15.75h0v15h-.75v-15Zm0-15.75h0v15h-.75v-15Zm0-15.75h0v15h-.75V.75Zm-107.25,63h0v15h-.75v-15Zm0-15.75h0V63h-.75V48Zm0-15.75h0v15h-.75v-15Zm0-15.75h0v15h-.75v-15Zm0-15.75h0v15h-.75V.75Zm-90.75,63h0v15h-.75v-15Zm0-15.75h0V63h-.75V48Zm0-15.75h0v15h-.75v-15Zm0-15.75h0v15h-.75v-15Zm0-15.75h0v15h-.75V.75ZM.91,63.75h0v15H.16v-15ZM.91,48h0V63H.16V48Zm0-15.75h0v15H.16v-15Zm0-15.75h0v15H.16v-15ZM.91.75h0v15H.16V.75Z"/><text class="cls-7" transform="translate(3.16 12.18)">exchange</text><text class="cls-7" transform="translate(78.91 12.18)">ipv4</text><text class="cls-7" transform="translate(169.66 12.18)">ipv6</text><text class="cls-7" transform="translate(276.91 12.18)">speed</text><text class="cls-7" transform="translate(3.16 27.93)">kcix</text><text class="cls-8" transform="translate(78.91 27.93)">206.51.7.153</text><text class="cls-8" transform="translate(169.66 27.93)">2001:504:1b:1::153</text><text class="cls-8" transform="translate(276.91 27.93)">40gbps</text><text class="cls-7" transform="translate(3.16 43.68)">stlix</text><text class="cls-8" transform="translate(78.91 43.68)">206.83.12.51</text><text class="cls-8" transform="translate(169.66 43.68)">2001:504:98::51</text><text class="cls-8" transform="translate(276.91 43.68)">40gbps</text><text class="cls-7" transform="translate(3.16 59.43)">houix</text><text class="cls-8" transform="translate(78.91 59.43)">206.83.136.27</text><text class="cls-8" transform="translate(169.66 59.43)">2001:504:9e::27</text><text class="cls-8" transform="translate(276.91 59.43)">40gbps</text><text class="cls-7" transform="translate(3.16 75.18)">onix</text><text class="cls-8" transform="translate(78.91 75.18)">149.<tspan class="cls-9" x="18.98" y="0">1</tspan><tspan x="23.68" y="0">12.50.21</tspan></text><text class="cls-8" transform="translate(169.66 75.18)">2001:504:125:e1::21</text><text class="cls-8" transform="translate(276.91 75.18)">1gbps</text></g></g></svg>