<svg id="Layer_1" data-name="Layer 1" xmlns="http://www.w3.org/2000/svg" xmlns:xlink="http://www.w3.org/1999/xlink" viewBox="0 0 351 78"><defs><style>.cls-1{fill:none;}.cls-2{clip-path:url(#clip-path);}.cls-3{clip-path:url(#clip-path-2);}.cls-4,.cls-7{fill:#fff;}.cls-5{fill:#00203e;}.cls-6{opacity:0.15;}.cls-7,.cls-8{font-size:9.75px;font-family:ArialMT, Arial;}.cls-9{letter-spacing:-0.07em;}</style><clipPath id="clip-path"><rect class="cls-1" x="-220.88" y="-54" width="792" height="612"/></clipPath><clipPath id="clip-path-2"><rect class="cls-1" x="-0.75" y="-1.5" width="351.75" height="81"/></clipPath></defs><title>IXP</title><g class="cls-2"><g class="cls-3"><rect class="cls-4" x="76.5" y="15.75" width="273.75" height="63"/><rect y="-0.75" width="350.25" height="16.5"/><rect class="cls-5" y="15" width="76.5" height="63.75"/><path class="cls-6" d="M0,78H350.25v.75H0ZM0,62.25H350.25V63H0ZM0,46.5H350.25v.75H0ZM0,30.75H350.25v.75H0ZM0,15H350.25v.75H0ZM0-.75H350.25V0H0ZM350.25,63h0V78h-.75V63Zm0-15.75h0v15h-.75v-15Zm0-15.75h0v15h-.75v-15Zm0-15.75h0v15h-.75v-15Zm0-15.75h0V15h-.75V0ZM274.5,63h0V78h-.75V63Zm0-15.75h0v15h-.75v-15Zm0-15.75h0v15h-.75v-15Zm0-15.75h0v15h-.75v-15ZM274.5,0h0V15h-.75V0ZM167.25,63h0V78h-.75V63Zm0-15.75h0v15h-.75v-15Zm0-15.75h0v15h-.75v-15Zm0-15.75h0v15h-.75v-15Zm0-15.75h0V15h-.75V0ZM76.5,63h0V78h-.75V63Zm0-15.75h0v15h-.75v-15Zm0-15.75h0v15h-.75v-15Zm0-15.75h0v15h-.75v-15ZM76.5,0h0V15h-.75V0ZM.75,63h0V78H0V63Zm0-15.75h0v15H0v-15Zm0-15.75h0v15H0v-15Zm0-15.75h0v15H0v-15ZM.75,0h0V15H0V0Z"/><text class="cls-7" transform="translate(3 11.43)">Exchange</text><text class="cls-7" transform="translate(78.75 11.43)">IPv4</text><text class="cls-7" transform="translate(169.5 11.43)">IPv6</text><text class="cls-7" transform="translate(276.75 11.43)">Speed</text><text class="cls-7" transform="translate(3 27.18)">KCIX</text><text class="cls-8" transform="translate(78.75 27.18)">206.51.7.153</text><text class="cls-8" transform="translate(169.5 27.18)">2001:504:1b:1::153</text><text class="cls-8" transform="translate(276.75 27.18)">40GBPS</text><text class="cls-7" transform="translate(3 42.93)">STLIX</text><text class="cls-8" transform="translate(78.75 42.93)">206.83.12.51</text><text class="cls-8" transform="translate(169.5 42.93)">2001:504:98::51</text><text class="cls-8" transform="translate(276.75 42.93)">40GBPS</text><text class="cls-7" transform="translate(3 58.68)">HOUIX</text><text class="cls-8" transform="translate(78.75 58.68)">206.83.136.27</text><text class="cls-8" transform="translate(169.5 58.68)">2001:504:9e::27</text><text class="cls-8" transform="translate(276.75 58.68)">40GBPS</text><text class="cls-7" transform="translate(3 74.43)">ONIX</text><text class="cls-8" transform="translate(78.75 74.43)">149.<tspan class="cls-9" x="18.98" y="0">1</tspan><tspan x="23.68" y="0">12.50.21</tspan></text><text class="cls-8" transform="translate(169.5 74.43)">2001:504:125:e1::21</text><text class="cls-8" transform="translate(276.75 74.43)">1GBPS</text></g></g></svg>