<svg height="64.2673" width="250" id="layer" xmlns="http://www.w3.org/2000/svg" viewBox="0 0 608.24 156.36"><defs><style>.cls-1{fill:#fff;}.cls-2{fill:#187fc3;}.cls-3{fill:#0559a7;}.cls-4{fill:#0b3673;}.cls-5{fill:#000035;}</style></defs><rect class="cls-1" width="608.24" height="156.36"/><path class="cls-2" d="M101.48,97.9,69.38,5.2a6.68,6.68,0,0,0-3.8.8L7.28,39.6a7.21,7.21,0,0,0-2.4,2.5l64,37Z"/><path class="cls-3" d="M133.28,42.8a6.88,6.88,0,0,0-2.7-3.1L72.28,6.1a7,7,0,0,0-3-.8L101.38,98Z"/><path class="cls-4" d="M134,45.5v67.3a6.65,6.65,0,0,1-1.4,3.9H69l32.5-18.8,31.8-55.1a7.21,7.21,0,0,1,.7,2.7"/><path class="cls-4" d="M69,79.2,36.48,98,4.88,116.1a7.35,7.35,0,0,1-1-3.3V45.5a6.68,6.68,0,0,1,1-3.3Z"/><path class="cls-2" d="M36.38,97.9l31.9,55.2a7.06,7.06,0,0,0,4.1-.8l58.3-33.6a5.46,5.46,0,0,0,2-2H68.88Z"/><path class="cls-3" d="M4.88,116.1a6.44,6.44,0,0,0,2.4,2.5l58.3,33.6a7.73,7.73,0,0,0,2.7.8L36.48,97.9Z"/><polygon class="cls-1" points="36.38 97.9 68.88 116.7 101.48 97.9 68.88 79.2 36.38 97.9"/><path class="cls-5" d="M258.48,59.1l-22.2,26.6c-.8,1-1.2,1-2.1,0l-22.1-26.6c-.3-.4-.5-.3-.5,0v55.5a2.09,2.09,0,0,1-2,2.1h-6.1a2.09,2.09,0,0,1-2-2.1V44.8a2.09,2.09,0,0,1,2-2.1H210a3.06,3.06,0,0,1,2.2,1.3l22.5,27.9c.7.9.9.8,1.4,0l22.8-28a2.9,2.9,0,0,1,2.2-1.2h6a2.18,2.18,0,0,1,2.1,2.1v69.8a2.09,2.09,0,0,1-2,2.1H261a2.09,2.09,0,0,1-2-2.1V59.1c0-.3-.2-.4-.5,0M357,116.7a1.78,1.78,0,0,0,1.5-2.6l-30.1-69.4c-.4-1-1-1.8-2.1-1.8h-5.5a2.75,2.75,0,0,0-2.9,1.7L287.28,114c-.7,1.5.1,2.7,1.4,2.7H295a2.7,2.7,0,0,0,2.7-1.7l5.7-13.3a2.13,2.13,0,0,1,2.1-1.5h34.7c1.2,0,1.6.2,2.1,1.2l5.6,13.3c.7,1.5,1.3,2.1,2.5,2.1H357Zm-19.5-26.2c.3.8-.1,1.3-.8,1.3h-27.8c-.8,0-1.2-.4-.9-1.3l14.5-33.7c.2-.4.4-.4.7,0ZM439,116.7a2.18,2.18,0,0,0,2.1-2.1V44.8a2.09,2.09,0,0,0-2-2.1h-5.8a2.09,2.09,0,0,0-2,2.1l.1,55c0,.4-.2.4-.4.1l-42.2-55.7c-.8-1-1.4-1.4-2.3-1.4h-6.7a2.09,2.09,0,0,0-2,2.1v69.8a2.09,2.09,0,0,0,2,2.1h5.8a2.09,2.09,0,0,0,2-2.1l-.1-56.3c0-.4.2-.4.5,0l42.5,57a2.61,2.61,0,0,0,2.1,1.3Zm85.2,0c1.3,0,2.1-1.3,1.1-2.8l-16.1-25.5c-.9-1.5,0-2.2,1.3-2.7,6.4-2.7,14.6-8.5,14.6-20.8,0-16.6-12.1-22.1-26.1-22.1h-28.5a2.09,2.09,0,0,0-2,2.1v69.8a2.09,2.09,0,0,0,2,2.1h6.3a2.09,2.09,0,0,0,2-2.1V89.8a2,2,0,0,1,2-2.1h15.4c1,0,1.5.7,2.1,1.6l16.1,26a2.74,2.74,0,0,0,2.3,1.4Zm-43.4-37.8a2,2,0,0,1-2-2.1v-23a1.94,1.94,0,0,1,2-2h19.7c8,0,13.8,5.4,13.8,13.5,0,8.6-6.4,13.6-12.5,13.6Zm120.6-14.4c1.3,0,1.6-.8,1.4-2-2.2-13.4-14.3-20.5-29.2-20.5-16.6,0-29,7.8-29,21.2,0,14.1,13.6,17.3,27.3,19.4,10.2,1.6,21.5,3.7,21.5,13.5,0,8.4-8.7,12.4-18.6,12.4-10.2,0-18.1-4.6-20.1-12.1-.2-1-.8-1.4-2-1.4h-6.8c-1.3,0-2,.5-1.7,1.8,2.2,15,15.8,20.8,29.9,20.8,15.8,0,29.9-7,29.9-22.4,0-15.6-14.6-19.3-28.4-21.8-11.2-1.8-20.8-3.9-20.8-11.6,0-6.5,7.2-10.6,17.9-10.6,10,0,16.7,4.3,19.4,11.8a1.79,1.79,0,0,0,2,1.5Z"/></svg>